<?xml version="1.0" standalone="no"?>
<!DOCTYPE svg PUBLIC "-//W3C//DTD SVG 1.1//EN" "http://www.w3.org/Graphics/SVG/1.1/DTD/svg11.dtd" >
<svg>
<metadata>
Created by FontForge 20090914 at Sat Mar  7 18:46:23 2015
 By www-data
Copyright 1990-1998 Bitstream Inc.  All rights reserved.
</metadata>
<defs>
<font id="ImpressBT-Regular" horiz-adv-x="1024" >
  <font-face 
    font-family="Impress BT"
    font-weight="400"
    font-stretch="normal"
    units-per-em="2048"
    panose-1="3 8 8 2 4 4 2 2 2 4"
    ascent="1556"
    descent="-492"
    x-height="948"
    cap-height="1425"
    bbox="-340 -597.999 2486 1944"
    underline-thickness="213"
    underline-position="-160"
    unicode-range="U+0020-U+F002"
  />
<missing-glyph horiz-adv-x="1229" 
d="M102 -362v1806h1024v-1806h-1024zM217 -248h795v1577h-795v-1577z" />
    <glyph glyph-name=".notdef" horiz-adv-x="1229" 
d="M102 -362v1806h1024v-1806h-1024zM217 -248h795v1577h-795v-1577z" />
    <glyph glyph-name="space" unicode=" " horiz-adv-x="659" 
 />
    <glyph glyph-name="exclam" unicode="!" horiz-adv-x="688" 
d="M217 473l-56.998 910.999v5c0 14.667 4.5 25.5 13.5 32.5s23.5 10.5 43.5 10.5l238 2c10.667 0 20.167 -3.33301 28.5 -10s12.5 -13.667 12.5 -21c0 -10 -3 -39.667 -9 -89c-28.667 -258 -43 -509.667 -43 -755c0 -20.667 0.333008 -42.167 1 -64.5s1 -34.166 1 -35.499
c0 -21.333 -2.5 -36.333 -7.5 -45s-13.167 -13 -24.5 -13l-158 -4c-0.666992 0 -1.33398 -0.333008 -2.00098 -1s-1.33398 -1 -2.00098 -1c-20 0.666992 -31.333 20.334 -34 59.001c0 7.33301 -0.333008 13.666 -1 18.999zM358.002 -39.001
c-54 0 -100.501 15.999 -139.501 47.999s-58.5 71.333 -58.5 118c0 54.667 17.667 100.834 53 138.501s80.333 56.5 135 56.5c55.333 0 100.333 -15.333 135 -46s52 -70 52 -118c0 -49.333 -18.667 -94.5 -56 -135.5s-77.666 -61.5 -120.999 -61.5z" />
    <glyph glyph-name="quotedbl" unicode="&#x22;" horiz-adv-x="643" 
d="M395 1436h164v-557h-164v557zM86 1436h164v-557h-164v557z" />
    <glyph glyph-name="numbersign" unicode="#" horiz-adv-x="1575" 
d="M709 852l-91 -254h256l91 254h-256zM735 1460h191l-154 -436h250l156 436h190l-154 -436h291l-59 -172h-293l-90 -252h309l-61 -172h-307l-156 -434h-191l156 434h-252l-158 -434h-190l156 434h-299l61 172h297l90 252h-315l61 172h316z" />
    <glyph glyph-name="dollar" unicode="$" horiz-adv-x="858" 
d="M371 326c-72.667 0 -138.333 30.8301 -197 92.4971s-88 122.167 -88 181.5c0 10 10.333 18.667 31 26s45 11 73 11c32 0 54.167 -3.33301 66.5 -10s22.5 -20.334 30.5 -41.001c14.667 -40.667 32.5 -69.334 53.5 -86.001s48.167 -25 81.5 -25
c35.333 0 62.166 8.16699 80.499 24.5s27.5 39.5 27.5 69.5c0 48.667 -44 85.334 -132 110.001l-40 11c-77.333 22.667 -135.5 55.834 -174.5 99.501s-58.5 97.167 -58.5 160.5c0 72 22.5 133.333 67.5 184s107.833 85.667 188.5 105l14 137c2 20 9.33301 34.333 22 43
s33.334 13 62.001 13c25.333 0 43.333 -7.16699 54 -21.5s16.667 -38.833 18 -73.5l2 -100c56.667 -26 105.667 -70.5 147 -133.5s62 -121.5 62 -175.5c0 -16 -6.16699 -29.667 -18.5 -41s-26.833 -17 -43.5 -17c-44.667 0 -78.667 30.333 -102 91l-12 30
c-14 32.667 -32 56.834 -54 72.501s-48.333 23.5 -79 23.5c-36 0 -63.833 -12.167 -83.5 -36.5s-29.5 -58.5 -29.5 -102.5c0 -31.333 13.833 -58.666 41.5 -81.999s76.5 -47.666 146.5 -72.999c90 -32.667 151.167 -66.667 183.5 -102s48.5 -82 48.5 -140
c0 -52 -20.167 -99.5 -60.5 -142.5s-95.166 -75.5 -164.499 -97.5l-9 -133c-0.666992 -19.333 -6 -34.333 -16 -45s-23.667 -16 -41 -16c-42.667 0 -70.334 4.83301 -83.001 14.5s-19 31.5 -19 65.5v16z" />
    <glyph glyph-name="percent" unicode="%" horiz-adv-x="1753" 
d="M1382 571c-52 0 -94.666 -35.501 -127.999 -106.501s-50 -162.5 -50 -274.5c0 -49.333 10.167 -87.166 30.5 -113.499s49.166 -39.5 86.499 -39.5c52 0 94.333 33.5 127 100.5s49 154.833 49 263.5c0 54.667 -10 96.667 -30 126s-48.333 44 -85 44zM1004 273.999
c0 118.667 29.1689 219.667 87.502 303s125.833 125 202.5 125c23.333 0 63.166 -8.33301 119.499 -25s109.5 -37 159.5 -61c36 -16.667 64.5 -50.667 85.5 -102s31.5 -112.666 31.5 -183.999c0 -118.667 -32.833 -212.834 -98.5 -282.501s-154.5 -104.5 -266.5 -104.5
c-100.667 0 -179.334 29.167 -236.001 87.5s-85 139.5 -85 243.5zM348.003 -19.001l780.001 1313c-60.667 -26 -117.834 -45.333 -171.501 -58s-104.834 -19 -153.501 -19h-21c-6 0 -12.333 0.166992 -19 0.5s-13.667 0.5 -21 0.5c6 -18 10.5 -35.5 13.5 -52.5
s4.5 -34.167 4.5 -51.5c0 -118.667 -32.667 -213.5 -98 -284.5s-154.333 -106.5 -267 -106.5c-106.667 0 -189.667 29.833 -249 89.5s-89 143.167 -89 250.5c0 106 27.5 199.333 82.5 280s118.5 121 190.5 121c24 0 49.167 -6.5 75.5 -19.5s41.5 -19.5 45.5 -19.5
c8.66699 0 24.334 9.33301 47.001 28s41.667 28 57 28c34 0 67 -18 99 -54c6.66699 -8 12 -14 16 -18c24.667 -24 52.667 -42.333 84 -55s64.666 -19 99.999 -19c41.333 0 90.833 8 148.5 24s105.834 34.667 144.501 56c18 10.667 44.833 29 80.5 55s61.5 39 77.5 39
c13.333 0 25.166 -5.16699 35.499 -15.5s15.5 -22.166 15.5 -35.499s-11.667 -41 -35 -83c-4 -7.33301 -6.66699 -12.333 -8 -15l-815 -1464c-6 -9.33301 -11.333 -15.833 -16 -19.5s-9.66699 -5.5 -15 -5.5c-17.333 0 -43.166 11.167 -77.499 33.5
s-51.5 39.166 -51.5 50.499c0 2.66699 0.833008 6.33398 2.5 11.001s4.16699 9.66699 7.5 15zM549.004 1241c-27.333 3.33301 -45.1689 9.50098 -53.502 18.501s-12.5 26.167 -12.5 51.5c-12.667 7.33301 -23.167 12.5 -31.5 15.5s-16.166 4.5 -23.499 4.5
c-44 0 -84 -37.333 -120 -112s-54 -158.667 -54 -252c0 -51.333 10.833 -90.5 32.5 -117.5s52.5 -40.5 92.5 -40.5c52.667 0 94.834 31.333 126.501 94s47.5 146.667 47.5 252c0 13.333 -1.33301 39.666 -4 78.999v7z" />
    <glyph glyph-name="ampersand" unicode="&#x26;" horiz-adv-x="1595" 
d="M1147 -25l-67.998 55.9951c-6.66699 4.66699 -13.5 8.5 -20.5 11.5s-13.167 4.5 -18.5 4.5c-8.66699 0 -31.667 -8.33301 -69 -25c-143.333 -64 -281.333 -96 -414 -96c-150.667 0 -271.334 35.333 -362.001 106s-136 164.334 -136 281.001c0 80.667 27.833 160 83.5 238
s139.167 155 250.5 231c-44.667 62.667 -77.334 119.5 -98.001 170.5s-31 100.833 -31 149.5c0 104 32.667 190 98 258s148.666 102 249.999 102c109.333 0 199.5 -31 270.5 -93s106.5 -140.667 106.5 -236c0 -63.333 -16.333 -124 -49 -182s-99.667 -136 -201 -234
c51.333 -70.667 100.5 -133 147.5 -187s95.5 -104.333 145.5 -151c46 54.667 76 150.667 90 288c1.33301 10.667 2 18.334 2 23.001c2.66699 22.667 10.667 39 24 49s37.666 15.667 72.999 17l321 6c15.333 0 26.666 -7.16699 33.999 -21.5s11 -36.5 11 -66.5
c0 -80.667 -32.333 -124 -97 -130c-36.667 -3.33301 -66.334 -8.66602 -89.001 -15.999c-31.333 -9.33301 -49.666 -31.666 -54.999 -66.999c-1.33301 -10.667 -3 -19 -5 -25c-5.33301 -24.667 -17.666 -56 -36.999 -94s-43.666 -79.667 -72.999 -125l176 -184
c4 -4 7 -8.16699 9 -12.5s3 -8.5 3 -12.5c0 -13.333 -5.16699 -23.166 -15.5 -29.499s-26.166 -9.5 -47.499 -9.5h-19c-16 0 -38.167 -2.33301 -66.5 -7s-48.5 -7 -60.5 -7c-11.333 0 -23 1.83301 -35 5.5s-21.333 8.5 -28 14.5zM604.002 929.995
c42 30.667 75.333 68 100 112s37 86.333 37 127c0 37.333 -7.5 64.5 -22.5 81.5s-38.833 25.5 -71.5 25.5c-34.667 0 -61.667 -11.5 -81 -34.5s-29 -55.167 -29 -96.5c0 -34 5.5 -68.833 16.5 -104.5s27.833 -72.5 50.5 -110.5zM539.002 554.995
c-60.667 -38.667 -105.998 -78.665 -135.998 -119.998s-45 -84 -45 -128c0 -50 16 -86.333 48 -109s83 -34 153 -34c47.333 0 94.166 5.33301 140.499 16s93.166 27 140.499 49c-54.667 49.333 -107 101.166 -157 155.499s-98 111.166 -144 170.499z" />
    <glyph glyph-name="quotesingle" unicode="'" horiz-adv-x="334" 
d="M86 1436h164v-557h-164v557z" />
    <glyph glyph-name="parenleft" unicode="(" horiz-adv-x="758" 
d="M575 1399c0 -22 -21.001 -95.001 -63.001 -219.001l-8 -25c-30 -90.667 -52.167 -181 -66.5 -271s-21.5 -183.333 -21.5 -280c0 -126.667 12.333 -247.5 37 -362.5s62 -227.5 112 -337.5c22.667 -50 51.667 -99.5 87 -148.5s53 -78.167 53 -87.5
c0 -24.667 -23.667 -55 -71 -91s-84 -54 -110 -54c-21.333 0 -51.333 25.333 -90 76s-78.334 117.334 -119.001 200.001c-51.333 108.667 -89.666 224 -114.999 346s-38 253.333 -38 394c0 132 10.667 256.667 32 374s54.333 231.333 99 342l21 55
c38.667 100 81.334 150 128.001 150c28.667 0 58 -7 88 -21s45 -27.333 45 -40z" />
    <glyph glyph-name="parenright" unicode=")" horiz-adv-x="758" 
d="M342 604c0 96.667 -7.16699 190.001 -21.5 280.001s-36.5 180.333 -66.5 271l-9 26c-42 123.333 -63 196 -63 218c0 12.667 15 26 45 40s59.333 21 88 21c46.667 0 89.667 -50.333 129 -151l21 -54c44 -110.667 76.833 -224.667 98.5 -342s32.5 -242 32.5 -374
c0 -140.667 -12.667 -272 -38 -394s-64 -237.333 -116 -346c-40 -82.667 -79.333 -149.334 -118 -200.001s-69 -76 -91 -76c-26 0 -62.5 18 -109.5 54s-70.5 66.333 -70.5 91c0 12.667 14.833 38.667 44.5 78s52.5 74 68.5 104c59.333 115.333 103.5 235.333 132.5 360
s43.5 256 43.5 394z" />
    <glyph glyph-name="asterisk" unicode="*" 
d="M594 1030c44.667 -14 98.6729 -28.9971 162.006 -44.9971c72 -18 108 -37 108 -57c0 -24.667 -11.167 -55.167 -33.5 -91.5s-41.833 -54.5 -58.5 -54.5c-8.66699 0 -36.834 21.333 -84.501 64s-93.834 80 -138.501 112c27.333 -96 45.666 -161.833 54.999 -197.5
s14 -56.5 14 -62.5c0 -14 -9.5 -24.333 -28.5 -31s-48.833 -10 -89.5 -10c-24.667 0 -43.167 3.16699 -55.5 9.5s-18.5 15.5 -18.5 27.5c0 5.33301 5.33301 36.166 16 92.499s19 110.833 25 163.5c-36.667 -32.667 -77 -71.167 -121 -115.5s-70 -66.5 -78 -66.5
c-18 0 -39.5 17.667 -64.5 53s-37.5 65.333 -37.5 90c0 16 31.167 34.5 93.5 55.5s118.5 44.167 168.5 69.5c-36 9.33301 -80.667 19.666 -134 30.999c-89.333 19.333 -134 40.333 -134 63c0 24.667 11.167 54.834 33.5 90.501s41.833 53.5 58.5 53.5
c7.33301 0 33.666 -19.667 78.999 -59s90.666 -73.666 135.999 -102.999c-8 53.333 -18.5 107.166 -31.5 161.499s-19.5 83.166 -19.5 86.499c0 14 7.66699 24.333 23 31s40.333 10 75 10c34 0 58.5 -3.33301 73.5 -10s22.5 -17 22.5 -31
c0 -3.33301 -6.33301 -31.833 -19 -85.5s-22.334 -106.834 -29.001 -159.501c35.333 31.333 74.666 68.333 117.999 111s68.666 64 75.999 64c18.667 0 40.334 -17.833 65.001 -53.5s37 -66.167 37 -91.5c0 -16 -29.667 -33.333 -89 -52
c-67.333 -20.667 -125.666 -41.667 -174.999 -63z" />
    <glyph glyph-name="plus" unicode="+" horiz-adv-x="1706" 
d="M768 1221h170v-527h514v-166h-514v-528h-170v528h-514v166h514v527z" />
    <glyph glyph-name="comma" unicode="," horiz-adv-x="639" 
d="M213 227c2.66699 34.667 10.667 57.002 24 67.002s35.333 15 66 15c57.333 0 98.666 -4.5 123.999 -13.5s38 -24.167 38 -45.5c0 -6 -0.666992 -15 -2 -27s-4 -33.667 -8 -65l-43 -275c-6.66699 -42.667 -14.167 -68.334 -22.5 -77.001s-26.166 -13 -53.499 -13
c-62 0 -103.167 4.5 -123.5 13.5s-30.5 27.833 -30.5 56.5c0 8.66699 0.666992 18.667 2 30s2 17.666 2 18.999z" />
    <glyph glyph-name="hyphen" unicode="-" horiz-adv-x="815" 
d="M156 391c-19.333 1.33301 -32.501 5.5 -39.501 12.5s-10.5 19.167 -10.5 36.5l3 123c0 12.667 3.66699 21.667 11 27s23.333 8 48 8l487 -4c16.667 0 29.834 -4.5 39.501 -13.5s14.5 -21.5 14.5 -37.5l2 -101c0 -25.333 -3.66699 -42.5 -11 -51.5
s-19.333 -13.5 -36 -13.5h-5z" />
    <glyph glyph-name="period" unicode="." horiz-adv-x="639" 
d="M315 313c56.667 0 102 -15.333 136 -46s51 -72 51 -124c0 -48.667 -17.167 -88.5 -51.5 -119.5s-78.833 -46.5 -133.5 -46.5c-52.667 0 -95.5 14.667 -128.5 44s-49.5 67.333 -49.5 114c0 52 16.5 94.667 49.5 128s75.167 50 126.5 50z" />
    <glyph glyph-name="slash" unicode="/" horiz-adv-x="758" 
d="M129 -154c-4 -9.33301 -10.8311 -17.668 -20.498 -25.001s-17.834 -11 -24.501 -11h-125c-4.66699 0 -8.83398 2.66699 -12.501 8s-5.5 11.333 -5.5 18c0 6 0.333008 10.5 1 13.5s1.66699 6.16699 3 9.5l618 1560c3.33301 8.66699 10 16.334 20 23.001s19.667 10 29 10
h127c4.66699 0 9 -1 13 -3s6 -3.66699 6 -5l-13 -31z" />
    <glyph glyph-name="zero" unicode="0" horiz-adv-x="1280" 
d="M653 -39c-182 0 -325.333 66.502 -430 199.502s-157 316.5 -157 550.5c0 126 17.5 241.167 52.5 345.5s85.5 192.5 151.5 264.5c39.333 43.333 81.833 73.666 127.5 90.999s109.167 26 190.5 26c91.333 0 169 -9.83301 233 -29.5s117.333 -49.5 160 -89.5
c74.667 -70.667 132.167 -159.834 172.5 -267.501s60.5 -225.5 60.5 -353.5c0 -216.667 -52.5 -393.667 -157.5 -531s-239.5 -206 -403.5 -206zM686 1270c-102 0 -180.999 -57.667 -236.999 -173s-84 -278.333 -84 -489c0 -143.333 24.667 -257.666 74 -342.999
s114.666 -128 195.999 -128c90 0 163.667 56.333 221 169s86 259 86 439c0 159.333 -23.5 286.666 -70.5 381.999s-108.833 143 -185.5 143z" />
    <glyph glyph-name="one" unicode="1" horiz-adv-x="659" 
d="M223 66l-16.001 1026c0 17.333 -2.83301 30.333 -8.5 39s-16.5 16 -32.5 22l-60 23c-16 6 -28.167 17.333 -36.5 34s-12.5 38 -12.5 64s6.33301 43.667 19 53s38.667 18.333 78 27l297 57c1.33301 0 3.33301 0.333008 6 1s4.66699 1 6 1c16 0 29.5 -6.16699 40.5 -18.5
s16.5 -27.166 16.5 -44.499c0 -0.666992 -0.333008 -6.33398 -1 -17.001s-1 -20.667 -1 -30c0 -2.66699 -0.5 -11 -1.5 -25s-1.83301 -27 -2.5 -39l-8 -176c-3.33301 -56.667 -5.83301 -114.834 -7.5 -174.501s-2.5 -120.834 -2.5 -183.501c0 -80 1.33301 -181 4 -303
c0.666992 -30 1.33398 -52 2.00098 -66l10 -268v-11c0 -23.333 -4.66699 -39.666 -14 -48.999s-25 -14 -47 -14h-156c-30 0 -49.5 4.83301 -58.5 14.5s-13.5 28.834 -13.5 57.501z" />
    <glyph glyph-name="two" unicode="2" horiz-adv-x="1247" 
d="M680 236l474.998 -25.0029c22 -1.33301 36.333 -6.66602 43 -15.999s10 -31.333 10 -66c0 -52.667 -7.83301 -90.334 -23.5 -113.001s-42.5 -34 -80.5 -34c-5.33301 0 -18 0.333008 -38 1s-37.333 1 -52 1l-213 -2c-16.667 0 -40.5 0.333008 -71.5 1s-54.5 1 -70.5 1
c-96.667 0 -198.667 -4.83301 -306 -14.5s-165.666 -14.5 -174.999 -14.5c-31.333 0 -52.166 8.66699 -62.499 26s-15.5 51 -15.5 101c0 25.333 2.66699 44.333 8 57s14.333 23.667 27 33c2 1.33301 11.667 6 29 14c88 40.667 173.333 87.334 256 140.001
c60.667 37.333 116.667 81.5 168 132.5s97 107.833 137 170.5c53.333 82.667 94.333 159.5 123 230.5s43 131.167 43 180.5c0 57.333 -18.167 103.833 -54.5 139.5s-83.833 53.5 -142.5 53.5c-81.333 0 -151.833 -35.167 -211.5 -105.5s-111.167 -179.166 -154.5 -326.499
c-6 -19.333 -11 -46.333 -15 -81c-9.33301 -73.333 -49.333 -110 -120 -110c-44.667 0 -75.334 5.5 -92.001 16.5s-25 31.5 -25 61.5c0 62.667 7.66699 127.667 23 195s38.333 137 69 209c54.667 128 114.834 216.333 180.501 265s154.167 73 265.5 73
c182.667 0 324 -32.833 424 -98.5s150 -158.5 150 -278.5c0 -116.667 -43.167 -244.667 -129.5 -384s-212.5 -283.666 -378.5 -432.999z" />
    <glyph glyph-name="three" unicode="3" horiz-adv-x="1290" 
d="M958 664c80 -22.667 141.668 -59.501 185.001 -110.501s65 -111.833 65 -182.5c0 -121.333 -54.167 -223.666 -162.5 -306.999s-243.833 -125 -406.5 -125c-158 0 -293.833 46.833 -407.5 140.5s-170.5 202.5 -170.5 326.5c0 39.333 9.66699 65.166 29 77.499
s60.333 18.5 123 18.5c47.333 0 80.666 -5.16699 99.999 -15.5s29 -28.5 29 -54.5v-22c0 -88.667 21.833 -161 65.5 -217s98.834 -84 165.501 -84c71.333 0 143.5 32.333 216.5 97s109.5 126.334 109.5 185.001c0 36.667 -20.5 66.167 -61.5 88.5s-99.5 35.833 -175.5 40.5
c-8.66699 0.666992 -20 1.33398 -34 2.00098c-67.333 4 -101.333 42.333 -102 115c0 22 24.333 42.667 73 62c29.333 11.333 52.333 21.333 69 30c78.667 43.333 143.667 100.666 195 171.999s77 135.666 77 192.999c0 46.667 -13 83.167 -39 109.5s-62 39.5 -108 39.5
c-73.333 0 -142.5 -24.333 -207.5 -73s-129.167 -124 -192.5 -226c-9.33301 -14.667 -20 -36.667 -32 -66c-22 -54 -48 -81 -78 -81c-70 0 -119 5.33301 -147 16s-42 29 -42 55c0 10.667 8.66699 40.334 26 89.001l13 38c22.667 64.667 43.667 116.667 63 156
s40.666 74.666 63.999 105.999c44.667 60 95.167 104.5 151.5 133.5s120.5 43.5 192.5 43.5c189.333 0 343.833 -35.833 463.5 -107.5s179.5 -164.167 179.5 -277.5c0 -72.667 -23.333 -140.167 -70 -202.5s-119.667 -123.166 -219 -182.499z" />
    <glyph glyph-name="four" unicode="4" horiz-adv-x="1251" 
d="M1016 45c0 -35.333 -6.16992 -57.8291 -18.5029 -67.4961s-34.166 -14.5 -65.499 -14.5h-45c-63.333 0 -102 3.83301 -116 11.5s-21 25.167 -21 52.5v223c0 16 -2.66699 25.833 -8 29.5s-17 5.5 -35 5.5l-584 -2c-41.333 0 -70.166 10.167 -86.499 30.5
s-24.5 55.166 -24.5 104.499c0 52 142.667 271.333 428 658l41 57l19 25c111.333 152.667 178 235 200 247c10 4.66699 38.333 8.5 85 11.5s103.667 4.5 171 4.5c31.333 0 53.5 -4.83301 66.5 -14.5s19.5 -27.167 19.5 -52.5c0 -6 -0.666992 -17.333 -2 -34s-2 -30 -2 -40
l-2 -723c0 -18 3.5 -31 10.5 -39s17.833 -12 32.5 -12h111c12 0 22.833 -5.83301 32.5 -17.5s14.5 -24.834 14.5 -39.501l-2 -86c-1.33301 -26.667 -6.5 -45.334 -15.5 -56.001s-23.5 -16 -43.5 -16h-136c-9.33301 0 -15.666 -2.33301 -18.999 -7s-5 -15.334 -5 -32.001
v-207zM773.997 506.004l-10 653.001c-123.333 -157.333 -223.5 -295.333 -300.5 -414s-115.5 -192.334 -115.5 -221.001c0 -6 3.5 -10.833 10.5 -14.5s16.5 -5.5 28.5 -5.5z" />
    <glyph glyph-name="five" unicode="5" horiz-adv-x="1233" 
d="M399 1063l-7.99902 -206.999v-22c0 -11.333 1.66699 -18.666 5 -21.999s12 -5 26 -5c9.33301 0 35.833 2.33301 79.5 7s81.834 7 114.501 7c173.333 0 311 -36 413 -108s153 -167.667 153 -287c0 -132.667 -51.333 -244 -154 -334s-232.334 -135 -389.001 -135
c-95.333 0 -181.333 16 -258 48s-142.334 79.333 -197.001 142c-36.667 42.667 -66 87.5 -88 134.5s-33 87.5 -33 121.5c0 18.667 8 31.334 24 38.001s45.667 10 89 10h21c73.333 0 117 -4.5 131 -13.5s27 -42.167 39 -99.5c16 -74.667 40.167 -129.167 72.5 -163.5
s75.5 -51.5 129.5 -51.5c81.333 0 156 36.333 224 109s102 151.667 102 237c0 55.333 -20 98.166 -60 128.499s-96.333 45.5 -169 45.5c-63.333 0 -128 -14.333 -194 -43s-106 -43 -120 -43c-39.333 0 -83 3.33301 -131 10s-81 13 -99 19
c-6.66699 2.66699 -11.5 10.667 -14.5 24s-4.83301 36.666 -5.5 69.999v61l15 591c0.666992 30 5.66699 49.667 15 59s28 14 56 14h107c121.333 0 261.5 -3.5 420.5 -10.5s256.5 -10.5 292.5 -10.5h59c38.667 0 64.667 -4.83301 78 -14.5s20 -29.167 20 -58.5
c0 -52.667 -5.66699 -94.834 -17 -126.501s-26 -47.5 -44 -47.5c-2 0 -8 0.666992 -18 2c-104.667 18.667 -229.667 28 -375 28c-66.667 0 -127.167 -2 -181.5 -6s-85.5 -8 -93.5 -12c-23.333 -10 -35.333 -33 -36 -69c0 -7.33301 -0.333008 -13 -1 -17z" />
    <glyph glyph-name="six" unicode="6" horiz-adv-x="1255" 
d="M1006 852c-46.667 0 -73.333 28.334 -80 85.001c-2 14 -3.33301 24.333 -4 31c-12 82 -40 146.667 -84 194s-97.333 71 -160 71c-44.667 0 -85.334 -14.333 -122.001 -43s-70.334 -72.334 -101.001 -131.001c-25.333 -48.667 -46.666 -101.167 -63.999 -157.5
s-26 -94.833 -26 -115.5c0 -11.333 3.33301 -21.666 10 -30.999s14 -14 22 -14c4 0 44.167 9.33301 120.5 28s149.5 28 219.5 28c135.333 0 245 -37.833 329 -113.5s126 -173.167 126 -292.5c0 -132.667 -47.667 -242.334 -143 -329.001s-217.666 -130 -366.999 -130
c-206 0 -359.5 55 -460.5 165s-151.5 277 -151.5 501c0 269.333 47.667 476.666 143 621.999s232 218 410 218c150 0 282.667 -51.167 398 -153.5s173 -215.166 173 -338.499c0 -36 -6.5 -60.667 -19.5 -74s-41.167 -20 -84.5 -20h-84zM690.001 590.001
c-119.333 0 -202.333 -11.166 -249 -33.499s-70 -64.5 -70 -126.5c0 -95.333 25.167 -177.833 75.5 -247.5s108.5 -104.5 174.5 -104.5c70.667 0 133.334 34.5 188.001 103.5s82 145.167 82 228.5c0 57.333 -17.333 101.666 -52 132.999s-84.334 47 -149.001 47z" />
    <glyph glyph-name="seven" unicode="7" horiz-adv-x="997" 
d="M233 24l421.997 1073c3.33301 8.66699 5.83301 16.167 7.5 22.5s2.83398 11.5 3.50098 15.5c-0.666992 7.33301 -5 12.5 -13 15.5s-25 4.5 -51 4.5h-45c-26 0 -70.5 2 -133.5 6s-112.833 6 -149.5 6c-40.667 0 -83 -2.66699 -127 -8s-67.667 -8 -71 -8
c-27.333 0 -45.5 8.16699 -54.5 24.5s-13.5 60.166 -13.5 131.499c0 32 5.33301 54.333 16 67s30 19 58 19c4 0 10.667 -0.333008 20 -1s17 -1 23 -1l770 2c20 0 34 -2.83301 42 -8.5s14.333 -16.5 19 -32.5l31 -111c1.33301 -4 2.33301 -8.5 3 -13.5s1 -10.167 1 -15.5
c0 -10 -4 -25 -12 -45c-2 -4.66699 -3.33301 -8 -4 -10l-465 -1106c-2.66699 -6 -5.66699 -13.667 -9 -23c-13.333 -34 -37.666 -51 -72.999 -51h-158c-19.333 0.666992 -31.166 2.33398 -35.499 5.00098s-6.83301 8 -7.5 16c0 2.66699 0.5 6 1.5 10s2.5 9.33301 4.5 16z
" />
    <glyph glyph-name="eight" unicode="8" horiz-adv-x="1313" 
d="M395 367c0 -84 23 -148.5 69 -193.5s112 -67.5 198 -67.5c87.333 0 155.833 23.5 205.5 70.5s74.5 111.833 74.5 194.5c0 77.333 -23.667 138.333 -71 183s-112.333 67 -195 67c-90.667 0 -160.167 -21.833 -208.5 -65.5s-72.5 -106.5 -72.5 -188.5zM702 1282
c-82 0 -148.832 -25.001 -200.499 -75.001s-77.5 -115.667 -77.5 -197c0 -68 20.667 -121.167 62 -159.5s97.666 -57.5 168.999 -57.5c76 0 139.833 25.5 191.5 76.5s77.5 113.5 77.5 187.5c0 66.667 -20.5 120.834 -61.5 162.501s-94.5 62.5 -160.5 62.5zM307.001 726.999
c-64.667 36.667 -113.499 81.334 -146.499 134.001s-49.5 111.667 -49.5 177c0 110.667 43.5 209 130.5 295s185.5 129 295.5 129c29.333 0 83.666 -7.83301 162.999 -23.5s157.333 -35.834 234 -60.501c95.333 -31.333 169.333 -77.333 222 -138s79 -130.667 79 -210
c0 -71.333 -20.667 -135.333 -62 -192s-101.333 -103.334 -180 -140.001c80.667 -39.333 143.5 -90.666 188.5 -153.999s67.5 -131.333 67.5 -204c0 -110 -55 -206.5 -165 -289.5s-242.667 -124.5 -398 -124.5c-181.333 0 -329.333 43.5 -444 130.5s-172 199.167 -172 336.5
c0 74 20 139.167 60 195.5s99 102.5 177 138.5z" />
    <glyph glyph-name="nine" unicode="9" horiz-adv-x="1319" 
d="M571 664c40.667 0 84.832 6.16699 132.499 18.5s88.834 28.5 123.501 48.5c35.333 20 60 41.167 74 63.5s21 51.833 21 88.5c0 96 -23.5 177.667 -70.5 245s-103.5 101 -169.5 101c-83.333 0 -152 -35.667 -206 -107s-81 -161.333 -81 -270
c0 -62.667 14.833 -109.667 44.5 -141s73.5 -47 131.5 -47zM927.998 595c-67.333 -46.667 -136.501 -82.332 -207.501 -106.999s-141.167 -37 -210.5 -37c-126 0 -228.167 43.667 -306.5 131s-117.5 201.333 -117.5 342c0 145.333 50.333 264.166 151 356.499
s230.667 138.5 390 138.5c192 0 343 -65.167 453 -195.5s165 -310.166 165 -539.499c0 -105.333 -15.333 -206.5 -46 -303.5s-74.667 -183.5 -132 -259.5c-41.333 -55.333 -95 -97.166 -161 -125.499s-142 -42.5 -228 -42.5c-81.333 0 -155.333 9.66699 -222 29
s-125.667 48.666 -177 87.999c-52 38.667 -93 80.667 -123 126s-45 85.666 -45 120.999c0 12.667 5.83301 23.334 17.5 32.001s25.5 13 41.5 13s34.833 -0.666992 56.5 -2s34.834 -2 39.501 -2c76 0 121.667 -23 137 -69c1.33301 -3.33301 2.33301 -6 3 -8
c18 -52.667 46.167 -93.5 84.5 -122.5s83.166 -43.5 134.499 -43.5c88.667 0 160.834 43.667 216.501 131s84.5 203.666 86.5 348.999z" />
    <glyph glyph-name="colon" unicode=":" horiz-adv-x="688" 
d="M340 313c56 0 101 -15.333 135 -46s51 -72 51 -124c0 -48.667 -17 -88.5 -51 -119.5s-78.333 -46.5 -133 -46.5c-53.333 0 -96.333 14.667 -129 44s-49 67.333 -49 114c0 52 16.333 94.667 49 128s75 50 127 50zM379 635c-56.667 0 -102.333 15.5 -137 46.5
s-52 72.167 -52 123.5c0 48.667 17.5 88.5 52.5 119.5s79.833 46.5 134.5 46.5c53.333 0 96.333 -14.5 129 -43.5s49 -67.167 49 -114.5c0 -52 -16.333 -94.667 -49 -128s-75 -50 -127 -50z" />
    <glyph glyph-name="semicolon" unicode=";" horiz-adv-x="688" 
d="M393 655c-56 0 -101 15.5 -135 46.5s-51 72.167 -51 123.5c0 48.667 17 88.167 51 118.5s78.333 45.5 133 45.5c53.333 0 96.333 -14.167 129 -42.5s49 -65.833 49 -112.5c0 -52 -16.333 -94.833 -49 -128.5s-75 -50.5 -127 -50.5zM219 221
c2.66699 29.333 10.833 48.334 24.5 57.001s36.834 13 69.501 13c58.667 0 99.667 -3.83301 123 -11.5s35 -20.834 35 -39.501c0 -7.33301 -0.666992 -16.333 -2 -27s-4 -27.667 -8 -51l-43 -236c-6 -34 -12.833 -55.5 -20.5 -64.5s-24.834 -13.5 -51.501 -13.5
c-64.667 0 -107.167 4 -127.5 12s-30.5 24.667 -30.5 50c0 8 0.833008 16.333 2.5 25s2.5 14 2.5 16z" />
    <glyph glyph-name="less" unicode="&#x3c;" horiz-adv-x="1706" 
d="M1442 1176v-185l-934 -381l934 -381v-182l-1178 483v160z" />
    <glyph glyph-name="equal" unicode="=" horiz-adv-x="1706" 
d="M254 487h1198v-165h-1198v165zM254 901h1198v-168h-1198v168z" />
    <glyph glyph-name="greater" unicode="&#x3e;" horiz-adv-x="1706" 
d="M264 1176l1178 -486v-160l-1178 -483v182l934 381l-934 381v185z" />
    <glyph glyph-name="question" unicode="?" horiz-adv-x="1229" 
d="M731 371l-151 1.99902c-8.66699 0 -15.667 2.83301 -21 8.5s-8 12.834 -8 21.501c0 5.33301 0.333008 9.5 1 12.5s1.66699 5.83301 3 8.5l127 287l41 88c65.333 137.333 98 237 98 299c0 55.333 -12 98.5 -36 129.5s-57.667 46.5 -101 46.5c-42 0 -86.5 -17 -133.5 -51
s-93.833 -83.333 -140.5 -148c-42.667 -60 -73.667 -116.667 -93 -170l-2 -4c-7.33301 -19.333 -15.5 -31.333 -24.5 -36s-25.167 -7 -48.5 -7h-154c-10.667 0 -19.167 1.83301 -25.5 5.5s-9.5 8.83398 -9.5 15.501c0 25.333 15.333 70.833 46 136.5s70 135.5 118 209.5
c49.333 74.667 106.333 133.5 171 176.5s128 64.5 190 64.5c52 0 117.333 -11 196 -33s149 -49.667 211 -83c46.667 -26 84 -63.833 112 -113.5s42 -103.5 42 -161.5c0 -80.667 -54 -197 -162 -349c-52 -72.667 -91 -130.334 -117 -173.001
c-20.667 -34 -39.667 -73.667 -57 -119c-16 -42 -38.667 -63 -68 -63h-2h-2zM631 292.999c44 0 79.835 -15.168 107.502 -45.501s41.5 -70.5 41.5 -120.5c0 -47.333 -16.333 -88.166 -49 -122.499s-72.334 -51.5 -119.001 -51.5c-52.667 0 -94.834 13.667 -126.501 41
s-47.5 63.333 -47.5 108c0 51.333 19.333 96 58 134s83.667 57 135 57z" />
    <glyph glyph-name="at" unicode="@" horiz-adv-x="2048" 
d="M1174 283c-36.667 -58 -79.334 -100.502 -128.001 -127.502s-107.334 -40.5 -176.001 -40.5c-101.333 0 -178.833 28.833 -232.5 86.5s-80.5 140.834 -80.5 249.501c0 155.333 46 287 138 395s203 162 333 162c59.333 0 109 -11.5 149 -34.5s73 -58.833 99 -107.5l55 107
h154l-148 -586c-0.666992 -3.33301 -1.33398 -7.33301 -2.00098 -12c-4 -18.667 -6 -31 -6 -37c0 -25.333 8.83301 -45.666 26.5 -60.999s40.834 -23 69.501 -23c34 0 69.833 10.167 107.5 30.5s72.834 48.5 105.501 84.5c48 50.667 84.667 109.834 110 177.501
s38 139.5 38 215.5c0 168.667 -62.333 305.667 -187 411s-287.667 158 -489 158c-92 0 -177.333 -10.333 -256 -31s-150.334 -52 -215.001 -94c-120.667 -75.333 -213.667 -172.333 -279 -291s-98 -250.334 -98 -395.001c0 -208 69.833 -374.333 209.5 -499
s325.834 -187 558.501 -187c110.667 0 218.5 16.333 323.5 49s202.167 80 291.5 142l67 -99c-99.333 -75.333 -205.5 -132 -318.5 -170s-231.5 -57 -355.5 -57c-128 0 -245 16 -351 48s-199.667 79.333 -281 142c-103.333 78.667 -180.5 170.5 -231.5 275.5
s-76.5 224.167 -76.5 357.5c0 110 17.333 214.5 52 313.5s85.667 189.833 153 272.5c98 119.333 215.833 210 353.5 272s290.834 93 459.501 93c110.667 0 215.667 -15.167 315 -45.5s184.333 -72.833 255 -127.5c88 -68 154 -146.5 198 -235.5s66 -189.167 66 -300.5
c0 -108 -21.667 -208.667 -65 -302s-105 -172.333 -185 -237c-46 -36.667 -96 -64.5 -150 -83.5s-110 -28.5 -168 -28.5c-70.667 0 -123 13.5 -157 40.5s-51 68.833 -51 125.5v4zM1233 706.998c-9.33301 56 -29.832 99.332 -61.499 129.999s-72.5 46 -122.5 46
c-84.667 0 -157.167 -42.833 -217.5 -128.5s-90.5 -189.167 -90.5 -310.5c0 -65.333 15.167 -115.666 45.5 -150.999s73.166 -53 128.499 -53c60 0 114.5 22.167 163.5 66.5s82.167 101.833 99.5 172.5z" />
    <glyph glyph-name="A" unicode="A" horiz-adv-x="1155" 
d="M442 518l258.001 -4.00098c7.33301 0 14 2.5 20 7.5s9 10.833 9 17.5c0 2.66699 -1 9 -3 19c-0.666992 2.66699 -1 4.33398 -1 5.00098l-145 582l-168 -546c-2.66699 -9.33301 -4.83398 -18.166 -6.50098 -26.499s-2.5 -15.5 -2.5 -21.5c0 -8.66699 4 -16.334 12 -23.001
s17 -10 27 -10zM51.001 -20.001c-18 0 -31.002 2.50098 -39.002 7.50098s-12 13.167 -12 24.5c0 4 0.5 8.66699 1.5 14s2.5 11.666 4.5 18.999l406 1346c7.33301 24 16.5 40.5 27.5 49.5s26.833 13.5 47.5 13.5l242 -6c32 -1.33301 51.5 -5 58.5 -11s14.167 -25 21.5 -57
l317 -1326c2 -9.33301 3.16699 -15.833 3.5 -19.5s0.5 -6.83398 0.5 -9.50098c0 -13.333 -2.83301 -23.5 -8.5 -30.5s-14.167 -10.5 -25.5 -10.5l-195 2c-15.333 0 -27 3.16699 -35 9.5s-14 17.5 -18 33.5l-53 196c-9.33301 30.667 -24.666 52.667 -45.999 66
s-52.666 20 -93.999 20h-10l-236 -6c-32 -1.33301 -55.5 -7.16602 -70.5 -17.499s-26.833 -28.5 -35.5 -54.5l-65 -194c-2 -4.66699 -4 -10.667 -6 -18c-8.66699 -27.333 -24.667 -41 -48 -41h-133z" />
    <glyph glyph-name="B" unicode="B" horiz-adv-x="1208" 
d="M414 844v-7.99805c0 -24.667 4.83301 -43.167 14.5 -55.5s23.834 -18.5 42.501 -18.5c20.667 0 56.667 7.33301 108 22s103.333 34 156 58c50.667 22 89 47.667 115 77s39 61.666 39 96.999c0 56.667 -30.667 103.167 -92 139.5s-141.333 54.5 -240 54.5
c-62.667 0 -100.334 -8.83301 -113.001 -26.5s-20.667 -74.834 -24 -171.501zM408 248.002l0.00195312 -46.999c0 -22.667 4.16699 -37.667 12.5 -45s23.166 -11 44.499 -11c32 0 75.667 8.16699 131 24.5s101.666 35.5 138.999 57.5c36 21.333 64.167 46.5 84.5 75.5
s30.5 58.5 30.5 88.5c0 47.333 -26.5 83.166 -79.5 107.499s-131.5 36.5 -235.5 36.5h-72c-20 0 -33.833 -4.5 -41.5 -13.5s-11.5 -25.833 -11.5 -50.5zM838.002 657.003c105.333 -19.333 185.167 -53.002 239.5 -101.002s81.5 -109 81.5 -183
c0 -129.333 -74.167 -234.333 -222.5 -315s-344.5 -121 -588.5 -121c-95.333 0 -158.333 5.66699 -189 17s-46 32 -46 62c0 4.66699 0.666992 17 2 37c10.667 122.667 16 246.334 16 371.001v37l-6 674c0 34 -2.66699 68.167 -8 102.5s-8 52.5 -8 54.5
c0 40 31.667 68.833 95 86.5s169.333 26.5 318 26.5c185.333 0 336.5 -39.667 453.5 -119s175.5 -179 175.5 -299c0 -74 -25.833 -138.167 -77.5 -192.5s-130.167 -100.166 -235.5 -137.499z" />
    <glyph glyph-name="C" unicode="C" horiz-adv-x="1247" 
d="M1036 463l121.002 -0.000976562c18 0 31 -3.16699 39 -9.5s12 -16.166 12 -29.499c0 -35.333 -18.167 -85.166 -54.5 -149.499s-84.166 -130.5 -143.499 -198.5c-38.667 -43.333 -80.334 -74.666 -125.001 -93.999s-98.667 -29 -162 -29
c-216.667 0 -379 54.167 -487 162.5s-162 271.166 -162 488.499c0 237.333 43.833 436.333 131.5 597s193.834 241 318.501 241c109.333 0 212.666 -12.833 309.999 -38.5s164.666 -56.5 201.999 -92.5c36 -36 67.167 -99.333 93.5 -190s39.5 -185 39.5 -283
c0 -25.333 -5.5 -44.5 -16.5 -57.5s-27.167 -19.833 -48.5 -20.5l-96 -4h-17c-30.667 0 -50 31 -58 93c-2.66699 22 -5 40 -7 54c-17.333 112 -47.333 200.167 -90 264.5s-92.667 96.5 -150 96.5c-80.667 0 -152.334 -64.333 -215.001 -193s-94 -285.667 -94 -471
c0 -172.667 17.667 -297.334 53 -374.001s92 -115 170 -115c49.333 0 99.5 17.167 150.5 51.5s104.5 87.5 160.5 159.5c18 22.667 36 50.667 54 84c19.333 38 43 57 71 57z" />
    <glyph glyph-name="D" unicode="D" horiz-adv-x="1255" 
d="M131 981v6c0 101.333 -7.33301 206 -22 314c-3.33301 22.667 -5 36 -5 40c0 36 22.333 61.833 67 77.5s120 23.5 226 23.5c246 0 440.333 -63.333 583 -190s214 -299 214 -517c0 -245.333 -62.333 -442.833 -187 -592.5s-289 -224.5 -493 -224.5
c-64.667 0 -145.667 9.33301 -243 28l-50 9c-10 1.33301 -23.333 3 -40 5c-40 5.33301 -60 13.333 -60 24c0 2 1.66699 22.667 5 62s5 77.333 5 114v821zM403 360c0 -2.66699 0.331055 -9.66699 0.998047 -21c1.33301 -43.333 2 -84 2 -122
c0 -51.333 4.33301 -85.333 13 -102s25.334 -25 50.001 -25c128 0 237.5 63 328.5 189s136.5 286.333 136.5 481c0 156 -30.667 274.167 -92 354.5s-151.666 120.5 -270.999 120.5c-56.667 0 -97.667 -8 -123 -24s-38 -42 -38 -78c0 -6 -1.16699 -60.833 -3.5 -164.5
s-3.5 -204.5 -3.5 -302.5v-306z" />
    <glyph glyph-name="E" unicode="E" horiz-adv-x="1090" 
d="M205 -23c-30.667 0 -53 10.6689 -67 32.002s-21 55.333 -21 102c0 20.667 4 105.667 12 255s12 288 12 416c0 191.333 -5.33301 367.666 -16 528.999c-1.33301 18.667 -2 29.334 -2 32.001c0 26.667 6 44.334 18 53.001s34.667 13 68 13c2 0 10.667 -0.333008 26 -1
c143.333 -8.66699 304 -13 482 -13c82 0 160 1 234 3c12 0.666992 19.333 1 22 1c30.667 0 51 -4.83301 61 -14.5s15 -38.5 15 -86.5c0 -65.333 -59.667 -100.333 -179 -105c-16 -0.666992 -28 -1 -36 -1l-305 -10c-54.667 -2.66699 -87.5 -8.16699 -98.5 -16.5
s-16.5 -35.166 -16.5 -80.499v-10l-2 -250v-8c0 -14.667 1.5 -23.334 4.5 -26.001s12.167 -4.33398 27.5 -5.00098h13l370 2c22 0 44.333 0.666992 67 2c5.33301 0.666992 8.33301 1 9 1c24.667 0 39.667 -7.16699 45 -21.5s8 -45.5 8 -93.5
c0 -76.667 -55.667 -117.667 -167 -123c-21.333 -0.666992 -38.666 -1.33398 -51.999 -2.00098l-274 -14c-21.333 -1.33301 -37.333 -6 -48 -14s-16 -20 -16 -36l2 -237c0 -24.667 3.16699 -40.334 9.5 -47.001s23.166 -10 50.499 -10h274c42 0 83 1 123 3
c6.66699 0.666992 10.667 1 12 1c26 0 44.5 -5.16699 55.5 -15.5s16.5 -27.833 16.5 -52.5c0 -66.667 -13.5 -109 -40.5 -127s-94.833 -27 -203.5 -27h-45z" />
    <glyph glyph-name="F" unicode="F" horiz-adv-x="1063" 
d="M139 27l-22.001 1304v6c0 33.333 7.66699 56.666 23 69.999s42.333 20 81 20l729 -6c44.667 0 73.667 -4.33301 87 -13s20.666 -25 21.999 -49l4 -75v-14c0 -60.667 -52.333 -92 -157 -94h-11l-375 -5c-34.667 0 -57.667 -4.16699 -69 -12.5
s-17.666 -23.833 -18.999 -46.5l-6 -307v-14c0 -23.333 3.66699 -38.5 11 -45.5s27 -10.5 59 -10.5l440 6c27.333 0 45.833 -6.5 55.5 -19.5s14.5 -37.833 14.5 -74.5v-10c0 -56 -7.83301 -90.833 -23.5 -104.5s-44.167 -20.5 -85.5 -20.5h-160
c-61.333 0 -120.166 -5.16699 -176.499 -15.5s-103.166 -24.166 -140.499 -41.499l2 -385v-29c0 -24 -3.5 -40 -10.5 -48s-19.167 -12.333 -36.5 -13l-193 -11h-4c-12.667 0 -22.334 4.83301 -29.001 14.5s-10 24.167 -10 43.5z" />
    <glyph glyph-name="G" unicode="G" horiz-adv-x="1305" 
d="M755 694l435.002 24.9971h4c13.333 0 23.166 -6 29.499 -18s9.5 -30.667 9.5 -56c0 -65.333 -11.167 -138.166 -33.5 -218.499s-50.833 -149.5 -85.5 -207.5c-50.667 -83.333 -112.167 -147.833 -184.5 -193.5s-148.833 -68.5 -229.5 -68.5
c-30.667 0 -70.167 4.83301 -118.5 14.5s-102.166 23.834 -161.499 42.501c-41.333 13.333 -77 28 -107 44s-53.667 33.667 -71 53c-40 40.667 -74.333 120.667 -103 240s-43 250 -43 392c0 208 37 376.833 111 506.5s169.667 194.5 287 194.5
c96.667 0 193.5 -13.667 290.5 -41s172.167 -61.666 225.5 -102.999c51.333 -40 93.166 -98.833 125.499 -176.5s48.5 -155.834 48.5 -234.501c0 -23.333 -4.66699 -40.166 -14 -50.499s-27.333 -15.5 -54 -15.5h-18h-113c-40.667 0 -67.334 39.333 -80.001 118l-6 34
c-18.667 96 -45.834 167 -81.501 213s-81.5 69 -137.5 69c-84.667 0 -154.667 -58.333 -210 -175s-83 -269 -83 -457c0 -166.667 19.167 -296.5 57.5 -389.5s91.5 -139.5 159.5 -139.5c54.667 0 115.834 38.833 183.501 116.5s116.5 169.167 146.5 274.5l-152 -8h-14
c-33.333 0 -56 7.66699 -68 23s-18 45.333 -18 90c0 38.667 4.83301 65 14.5 79s29.167 21.667 58.5 23z" />
    <glyph glyph-name="H" unicode="H" horiz-adv-x="1305" 
d="M928 0c-16 0 -26.834 3.66895 -32.501 11.002s-8.5 26.333 -8.5 57l-4 446c0 19.333 -4 33 -12 41s-22 12 -42 12h-8l-341 -12c-22 -1.33301 -36.167 -5 -42.5 -11s-9.5 -20 -9.5 -42l-4 -404c0 -44 -12.167 -71.667 -36.5 -83s-73.5 -17 -147.5 -17
c-43.333 0 -72.333 5 -87 15s-22 31 -22 63c0 2 0.333008 8.83301 1 20.5s1 22.5 1 32.5c0 29.333 -0.333008 63.666 -1 102.999s-1 64.333 -1 75v123l-2 551c-0.666992 114 -10 236.667 -28 368c-4.66699 34.667 -7 56 -7 64c0 14 19.833 24.333 59.5 31
s101.834 10 186.501 10c42.667 0 69.334 -3.33301 80.001 -10s16 -22.334 16 -47.001c0 -9.33301 -2.33301 -53 -7 -131s-7 -151 -7 -219v-33l2 -162c0 -17.333 2.16699 -28.5 6.5 -33.5s11.833 -7.5 22.5 -7.5h215c96 0 157.5 3 184.5 9s40.5 17.333 40.5 34v8
c-1.33301 26.667 -2 54 -2 82v281c0 26 -0.666992 52.167 -2 78.5s-2 40.5 -2 42.5c0 27.333 4.66699 46 14 56s28.333 15 57 15h37c8 0 24.667 0.333008 50 1s47 1 65 1c37.333 0 60.666 -2.5 69.999 -7.5s14 -16.167 14 -33.5c0 -2 -1 -11 -3 -27
c-20 -157.333 -30 -343.333 -30 -558v-756c0 -12 -7 -21.167 -21 -27.5s-34.333 -9.5 -61 -9.5h-151z" />
    <glyph glyph-name="I" unicode="I" horiz-adv-x="616" 
d="M166 446c0 302 -7.33203 580.335 -21.999 835.002c-2 27.333 -3 42.666 -3 45.999c0 33.333 17.667 58 53 74s90 24 164 24c36 0 62.167 -4.66699 78.5 -14s24.5 -24.333 24.5 -45c0 -2.66699 -0.666992 -11.334 -2 -26.001c-11.333 -124.667 -17 -261.334 -17 -410.001
c0 -59.333 1.16699 -150.666 3.5 -273.999s3.5 -217 3.5 -281c0 -21.333 -0.5 -53.333 -1.5 -96s-1.5 -74.334 -1.5 -95.001c0 -33.333 1.66699 -68.666 5 -105.999c1.33301 -10.667 2 -17 2 -19c0 -26 -6.83301 -43.333 -20.5 -52s-43.834 -13 -90.501 -13
c-92 0 -145.667 4.66699 -161 14s-23 38 -23 86c0 22.667 1.33301 73 4 151s4 145 4 201z" />
    <glyph glyph-name="J" unicode="J" horiz-adv-x="750" 
d="M2 190c0 24.667 2.66797 42.833 8.00098 54.5s13.666 17.5 24.999 17.5c4 0 18 -10.833 42 -32.5s51.667 -32.5 83 -32.5c68 0 116.667 21.333 146 64s44 114.667 44 216c0 170.667 -3.33301 350 -10 538s-10 290 -10 306c0 33.333 8.5 54.666 25.5 63.999
s52.167 14 105.5 14c72 0 117.333 -9.16699 136 -27.5s28 -67.833 28 -148.5v-99c0 -64.667 -1.16699 -175.667 -3.5 -333s-3.5 -282.333 -3.5 -375c0 -152 -27 -262.667 -81 -332s-139.333 -104 -256 -104c-52 0 -101.167 3.33301 -147.5 10s-77.166 14 -92.499 22
c-14.667 8.66699 -24.834 21.834 -30.501 39.501s-8.5 54.5 -8.5 110.5v28z" />
    <glyph glyph-name="K" unicode="K" horiz-adv-x="1276" 
d="M131 94l-5.99902 1196c0 5.33301 -0.666992 12.5 -2 21.5s-2 15.5 -2 19.5c0 18.667 4.83301 33.334 14.5 44.001s23.167 16 40.5 16c0.666992 0 4.66699 0.333008 12 1s14.333 1 21 1l162 2h4c22 0 38.667 -6.83301 50 -20.5s17 -33.5 17 -59.5
c0 -16.667 -3 -47.667 -9 -93s-9.66699 -82 -11 -110l-16 -340l333 354c25.333 26.667 57.666 62.667 96.999 108c108.667 123.333 211 185 307 185c42.667 0 74.834 -3.66699 96.501 -11s32.5 -18.666 32.5 -33.999c0 -9.33301 -8.33301 -25.5 -25 -48.5
s-39 -49.167 -67 -78.5l-512 -520l508 -621c1.33301 -1.33301 3.66602 -4 6.99902 -8c14 -15.333 21 -28.333 21 -39c0 -17.333 -18.833 -33.833 -56.5 -49.5s-77.5 -23.5 -119.5 -23.5c-46 0 -104.667 41.333 -176 124l-2 3l-422 493l-14 -590
c0 -18.667 -9 -32.834 -27 -42.501s-44.667 -14.5 -80 -14.5c-14.667 0 -34 0.666992 -58 2s-40.667 2 -50 2c-26.667 0 -44.667 6.33301 -54 19s-14 45.334 -14 98.001v14z" />
    <glyph glyph-name="L" unicode="L" horiz-adv-x="911" 
d="M131 93l-18.0029 1197v35c0 44.667 7.33301 72.5 22 83.5s47.334 16.5 98.001 16.5c79.333 0 132 -7 158 -21s39 -40.333 39 -79c0 -6.66699 -1.66699 -24.667 -5 -54c-16 -129.333 -24 -254.666 -24 -375.999v-25l7 -571c0 -28 8.5 -47 25.5 -57s62.167 -15 135.5 -15
l236 2h16c24.667 0 40.834 -7.66699 48.501 -23s11.5 -41.666 11.5 -78.999c0 -59.333 -5.83301 -95 -17.5 -107s-48.834 -18.667 -111.501 -20l-523 -6c-33.333 0 -57.666 7.66699 -72.999 23s-23.666 40.666 -24.999 75.999z" />
    <glyph glyph-name="M" unicode="M" horiz-adv-x="1651" 
d="M115 23l5.99902 1265v12c0 66 6.33301 104.833 19 116.5s52.667 17.5 120 17.5c114.667 0 189.5 -8.16699 224.5 -24.5s62.5 -55.5 82.5 -117.5l250 -764l283 732c22 57.333 40.167 95.5 54.5 114.5s33.5 28.5 57.5 28.5c8 0 14.167 -0.166992 18.5 -0.5
s9.16602 -0.833008 14.499 -1.5l262 -25l21 -1257v-27c0 -41.333 -9.16699 -67.333 -27.5 -78s-57.166 -16 -116.499 -16h-16c-64.667 0 -97.667 40 -99 120c-0.666992 16 -1 28.667 -1 38l-25 891c-48.667 -104 -91.667 -213.333 -129 -328l-12 -35l-174 -493
c-0.666992 -2 -1.66699 -5.33301 -3 -10c-19.333 -55.333 -59.333 -83 -120 -83c-44.667 0 -76 5.83301 -94 17.5s-34.333 38.167 -49 79.5l-306 839l9 -985c0 -44 -10.833 -71 -32.5 -81s-62.167 -15 -121.5 -15c-35.333 0 -60.166 5.33301 -74.499 16
s-21.5 28.667 -21.5 54z" />
    <glyph glyph-name="N" unicode="N" horiz-adv-x="1262" 
d="M106 102l27.001 1250c0 24.667 20.833 42 62.5 52s113.167 15 214.5 15c49.333 0 80.333 -3 93 -9s19 -24 19 -54c0 -92.667 29.333 -208.334 88 -347.001v-1l238 -570c2 -4.66699 5 -8.5 9 -11.5s8.33301 -4.5 13 -4.5c6 0 10.667 3.16699 14 9.5s5 14.833 5 25.5
l10 893c0 33.333 9.33301 54.5 28 63.5s54.334 13.5 107.001 13.5c56 0 90.833 -2.33301 104.5 -7s20.5 -16 20.5 -34c0 -5.33301 -0.666992 -15.5 -2 -30.5s-2 -27.167 -2 -36.5v-23v-18l-14 -266c-8.66699 -148 -14.667 -271.667 -18 -371s-5 -192.333 -5 -279v-331
c0 -29.333 -14.333 -48 -43 -56s-82 -12 -160 -12c-29.333 0 -54.333 1.5 -75 4.5s-39.334 7.83301 -56.001 14.5l-442 956l10 -879c0 -30 -6.83301 -48.333 -20.5 -55s-49.834 -10 -108.501 -10c-52.667 0 -85.667 2.66699 -99 8s-20 17 -20 35c0 0.666992 0.333008 3 1 7
c0.666992 19.333 1 38.666 1 57.999z" />
    <glyph glyph-name="O" unicode="O" horiz-adv-x="1360" 
d="M717 1241c-107.333 0 -190.834 -57.668 -250.501 -173.001s-89.5 -278 -89.5 -488c0 -143.333 26 -257.666 78 -342.999s121 -128 207 -128c94.667 0 171.834 56.333 231.501 169s89.5 261 89.5 445c0 158.667 -24.333 284.667 -73 378s-113 140 -193 140z
M60.999 679.999c0 104 13.334 205.332 40.001 303.999s62.667 182.334 108 251.001c45.333 69.333 99 120.5 161 153.5s136.667 49.5 224 49.5c214 0 384.5 -68.833 511.5 -206.5s190.5 -324.167 190.5 -559.5c0 -224.667 -50.833 -399.667 -152.5 -525
s-243.834 -188 -426.501 -188c-200 0 -359.333 64.667 -478 194s-178 305 -178 527z" />
    <glyph glyph-name="P" unicode="P" horiz-adv-x="1186" 
d="M408 756c0 -38 4.50098 -62.165 13.501 -72.498s26.833 -15.5 53.5 -15.5c111.333 0 201.666 28 270.999 84s104 129 104 219c0 79.333 -23.5 142.166 -70.5 188.499s-110.833 69.5 -191.5 69.5c-56.667 0 -100.5 -6.83301 -131.5 -20.5s-46.5 -32.834 -46.5 -57.501z
M135.001 150.002l-8 680.998c-2 176.667 -11.667 343.667 -29 501c-2.66699 21.333 -4 33.333 -4 36c0 32 18.5 53 55.5 63s125.167 15 264.5 15c123.333 0 230.333 -11.333 321 -34s167.334 -57 230.001 -103c66 -49.333 117.333 -107.666 154 -174.999
s55 -137.333 55 -210c0 -68.667 -15.667 -131.167 -47 -187.5s-77.333 -104.5 -138 -144.5c-56 -36 -121.5 -64.833 -196.5 -86.5s-148.167 -32.5 -219.5 -32.5h-55c-38.667 0 -64.667 -5.5 -78 -16.5s-20 -32.833 -20 -65.5v-31c0 -6 -0.333008 -15.167 -1 -27.5
s-1 -21.5 -1 -27.5v-276c0 -25.333 -9.83301 -41.666 -29.5 -48.999s-53.5 -11 -101.5 -11h-41c-9.33301 0 -19.833 -0.333008 -31.5 -1s-18.834 -1 -21.501 -1c-21.333 0 -37.333 4.66699 -48 14s-16 23.333 -16 42c0 6.66699 1 24 3 52s3 53 3 75z" />
    <glyph glyph-name="Q" unicode="Q" horiz-adv-x="1305" 
d="M776 -33l-123 -6h-37c-172.667 0 -308 63 -406 189s-147 302.667 -147 530c0 240.667 48.333 426.5 145 557.5s233.334 196.5 410.001 196.5c198.667 0 351.5 -64.167 458.5 -192.5s160.5 -310.833 160.5 -547.5c0 -102 -12.833 -198.833 -38.5 -290.5
s-60.5 -166.834 -104.5 -225.501c-12.667 -15.333 -30.667 -35.333 -54 -60c-32.667 -33.333 -49 -57.666 -49 -72.999c0 -0.666992 3.33301 -5.66699 10 -15l13 -18l114 -163c4 -6 7.16699 -11.667 9.5 -17s3.5 -9.33301 3.5 -12c0 -6 -2.33301 -12 -7 -18
s-11.334 -11 -20.001 -15l-128 -61c-5.33301 -2 -10.166 -3.5 -14.499 -4.5l-10.5 -2.5c-6.66699 0 -14.334 6 -23.001 18l-8 11zM367 616c0 -150.667 24.332 -270.166 72.999 -358.499s114.334 -132.5 197.001 -132.5c98.667 0 177.667 54.667 237 164s89 258 89 446
c0 160 -26.667 291.167 -80 393.5s-120.333 153.5 -201 153.5c-84 0 -157.5 -63.833 -220.5 -191.5s-94.5 -285.834 -94.5 -474.501z" />
    <glyph glyph-name="R" unicode="R" horiz-adv-x="1305" 
d="M422 719c0 -32.667 6 -53.166 18 -61.499s36 -12.5 72 -12.5c104.667 0 187.167 27.333 247.5 82s90.5 129 90.5 223c0 85.333 -25.167 152.833 -75.5 202.5s-119.5 74.5 -207.5 74.5c-53.333 0 -91.5 -6.83301 -114.5 -20.5s-34.5 -36.834 -34.5 -69.501zM213 -42.999
c-3.33301 0 -10.998 -0.335938 -22.998 -1.00293s-22.667 -1 -32 -1c-17.333 0 -28.833 2.33301 -34.5 7s-8.5 17.334 -8.5 38.001c0 0.666992 3.33301 59.5 10 176.5s10 233.5 10 349.5c0 74 -1 159.833 -3 257.5s-5 204.5 -9 320.5
c-2.66699 76.667 -11.334 155.334 -26.001 236.001c-3.33301 20 -5 32 -5 36c0 23.333 13.167 38.833 39.5 46.5s78.833 11.5 157.5 11.5c294 0 516.667 -42.5 668 -127.5s227 -209.833 227 -374.5c0 -79.333 -20.333 -148.5 -61 -207.5s-103 -110.167 -187 -153.5l186 -301
c28 -44 62.667 -92.5 104 -145.5s62 -84.167 62 -93.5c0 -18 -24.667 -28.333 -74 -31h-6l-198 -6c-16.667 0 -31.334 10.333 -44.001 31l-7 11l-140 183c-63.333 84.667 -114.5 141.834 -153.5 171.501s-83.833 45.5 -134.5 47.5l-87 4h-2
c-15.333 0 -26.333 -12.833 -33 -38.5s-10 -70.834 -10 -135.501c0 -8.66699 0.333008 -24 1 -46s1 -39.333 1 -52l5 -150v-14c0 -17.333 -2.83301 -29.166 -8.5 -35.499s-15.167 -9.5 -28.5 -9.5z" />
    <glyph glyph-name="S" unicode="S" horiz-adv-x="1223" 
d="M967 549c72 -19.333 126.829 -51.1709 164.496 -95.5039s56.5 -99.166 56.5 -164.499c0 -45.333 -12.833 -85.666 -38.5 -120.999s-75.167 -77.666 -148.5 -126.999c-55.333 -37.333 -116.5 -66.5 -183.5 -87.5s-132.5 -31.5 -196.5 -31.5
c-67.333 0 -139.666 13.667 -216.999 41s-144.333 63 -201 107c-42 32 -74.333 69.667 -97 113s-34 88 -34 134c0 36 24.5 66.167 73.5 90.5s104.167 36.5 165.5 36.5c30 0 47.333 -21 52 -63c2.66699 -27.333 6 -50 10 -68c18.667 -85.333 42.5 -148.333 71.5 -189
s64.5 -61 106.5 -61c32.667 0 66.834 7.66699 102.501 23s71.167 38 106.5 68c30.667 25.333 54.667 50.333 72 75s26 46 26 64c0 21.333 -7.33301 38.666 -22 51.999s-42 26 -82 38l-318 96c-130 39.333 -223.5 90.166 -280.5 152.499s-85.5 144.833 -85.5 247.5
c0 66.667 10.833 138.5 32.5 215.5s48.167 140.167 79.5 189.5c36 54.667 75.833 93.667 119.5 117s100.167 35 169.5 35c122 0 238 -16 348 -48s183.667 -69.333 221 -112c30.667 -34 54.5 -89.667 71.5 -167s25.5 -170.666 25.5 -279.999
c0 -68.667 -6.66699 -115.167 -20 -139.5s-37.666 -37.166 -72.999 -38.499l-79 -2h-9c-30 0 -52.167 6.33301 -66.5 19s-21.5 33 -21.5 61c0 174 -18.667 303.833 -56 389.5s-93.666 128.5 -168.999 128.5c-66.667 0 -122.5 -38 -167.5 -114s-67.5 -173 -67.5 -291
c0 -54 12.833 -94.667 38.5 -122s77.5 -51.666 155.5 -72.999z" />
    <glyph glyph-name="T" unicode="T" horiz-adv-x="948" 
d="M363 30l-3 196.003c-1.33301 170 -4.33301 323.667 -9 461s-9.66699 236.666 -15 297.999c-2 19.333 -3.66699 43.666 -5 72.999c-1.33301 46.667 -22 70.667 -62 72l-159 3c-31.333 0.666992 -52.333 13.5 -63 38.5s-16 72.833 -16 143.5c0 26.667 3.83301 45 11.5 55
s25.834 17 54.501 21h10c106 8 220 12 342 12h73c18.667 0 48.334 0.333008 89.001 1s72 1 94 1c94 0 151.5 -5.33301 172.5 -16s31.5 -46.334 31.5 -107.001v-6c0 -54 -4.83301 -89 -14.5 -105s-31.167 -24.667 -64.5 -26l-145 -8
c-20.667 -1.33301 -34.167 -7.16602 -40.5 -17.499s-9.5 -30.5 -9.5 -60.5c0 -4.66699 0.333008 -16.334 1 -35.001c2 -68 3 -131.333 3 -190v-232l6 -598c0 -29.333 -4.16699 -49 -12.5 -59s-28.833 -15 -61.5 -15c-98.667 0 -157.834 4.5 -177.501 13.5
s-29.834 37.833 -30.501 86.5z" />
    <glyph glyph-name="U" unicode="U" horiz-adv-x="1327" 
d="M903 147c-46.667 -62 -94.8311 -108.169 -144.498 -138.502s-102.5 -45.5 -158.5 -45.5c-70.667 0 -144.167 19.667 -220.5 59s-131.833 87.333 -166.5 144c-31.333 51.333 -53.5 130.166 -66.5 236.499s-19.5 275.833 -19.5 508.5c0 134.667 2.66699 228.667 8 282
s14.333 90 27 110c11.333 18 26.166 30.333 44.499 37s55.166 10 110.499 10c45.333 0 75.166 -6.5 89.499 -19.5s21.5 -37.5 21.5 -73.5c0 -6.66699 -0.666992 -20.167 -2 -40.5s-2 -38.166 -2 -53.499l-4 -456v-60c0 -189.333 12 -322.666 36 -399.999
s64.667 -116 122 -116c46.667 0 92.834 21.167 138.501 63.5s84.834 100.5 117.501 174.5c24.667 57.333 42.334 124.833 53.001 202.5s16 182.834 16 315.501v80l-4 346c0 39.333 7 67.833 21 85.5s36.333 26.5 67 26.5c3.33301 0 8.16602 -0.333008 14.499 -1
s11.166 -1 14.499 -1h106c32 0 53.667 -6.66699 65 -20s17 -38.666 17 -75.999c0 -4 -0.333008 -10.667 -1 -20s-1 -17 -1 -23l-10 -207c-5.33301 -118.667 -9.33301 -233 -12 -343s-4 -212 -4 -306v-225l-2 -158c0 -32.667 -10.5 -53.834 -31.5 -63.501
s-62.5 -14.5 -124.5 -14.5c-36.667 0 -61.5 4 -74.5 12s-20.833 23.333 -23.5 46z" />
    <glyph glyph-name="V" unicode="V" horiz-adv-x="1186" 
d="M596 342l230.998 775.998c16.667 56 32.5 114.333 47.5 175s23.833 93.334 26.5 98.001c7.33301 11.333 16.666 19.166 27.999 23.499s32 6.5 62 6.5h19l129 -2c16.667 0 28.334 -3 35.001 -9s10 -16 10 -30c0 -7.33301 -2.16699 -18.666 -6.5 -33.999
s-10.5 -34 -18.5 -56l-426 -1255c-6.66699 -22.667 -13.5 -36.5 -20.5 -41.5s-21.833 -7.5 -44.5 -7.5h-179c-23.333 0 -39.666 3.33301 -48.999 10s-18 25 -26 55l-140 461c-52.667 173.333 -112.167 356 -178.5 548s-99.5 296 -99.5 312c0 10.667 5.33301 18.167 16 22.5
s29.334 6.5 56.001 6.5h178c58 0 91.667 -23.333 101 -70c3.33301 -17.333 6.33301 -31.666 9 -42.999z" />
    <glyph glyph-name="W" unicode="W" horiz-adv-x="1784" 
d="M260 43l-98 516.001l-58 304l-34 175c-14.667 68 -32.334 134.167 -53.001 198.5s-31 97.833 -31 100.5c0 24 8.66699 40.667 26 50s53.666 14 108.999 14c111.333 0 172.333 -39.333 183 -118c0.666992 -4.66699 1 -7.66699 1 -9
c39.333 -279.333 70.166 -481.333 92.499 -606s44.166 -222.334 65.499 -293.001c108 292 185.333 548.333 232 769c2.66699 12.667 4.33398 20.334 5.00098 23.001c8.66699 33.333 21.834 57.166 39.501 71.499s43.5 21.5 77.5 21.5l170 -5
c54.667 -0.666992 93 -65 115 -193c2.66699 -15.333 4.66699 -27.333 6 -36c25.333 -144.667 50.333 -269.834 75 -375.501s52.334 -205.834 83.001 -300.501c47.333 112 91.333 242 132 390s75.667 307.333 105 478c2 10.667 4.33301 24.667 7 42c14 90 39 135 75 135
c4 0 8.5 -0.5 13.5 -1.5s10.5 -2.5 16.5 -4.5l134 -37c15.333 -4 26 -10 32 -18s9 -20 9 -36c0 -8 -1.16699 -18.5 -3.5 -31.5s-5.83301 -27.5 -10.5 -43.5l-275 -1035c-21.333 -79.333 -41.666 -133.166 -60.999 -161.499s-43.333 -42.5 -72 -42.5
c-106.667 0 -181 8.83301 -223 26.5s-70 55.167 -84 112.5l-191 827l-248 -867l-6 -23c-12 -45.333 -40 -68 -84 -68h-184c-32 0 -53.833 3.83301 -65.5 11.5s-19.167 20.834 -22.5 39.501z" />
    <glyph glyph-name="X" unicode="X" horiz-adv-x="1188" 
d="M-29 71l391.001 575.998c6 8 10.333 15 13 21s4 11.333 4 16c0 6.66699 -6.33301 21.334 -19 44.001l-2 4l-338 600c-1.33301 2.66699 -2.66602 6.16699 -3.99902 10.5s-2 7.5 -2 9.5c0 7.33301 2.66699 12.833 8 16.5s13 5.5 23 5.5l250 -4c26.667 0 49 -14.667 67 -44
v-1l209 -375c5.33301 -9.33301 10.166 -16 14.499 -20s8.5 -6 12.5 -6s8.83301 2.33301 14.5 7s11.167 10.334 16.5 17.001l330 427c1.33301 2 3 4.66699 5 8c8.66699 13.333 21 20 37 20h11l233 -8c8 0 14.833 -2.33301 20.5 -7s8.5 -10 8.5 -16
c0 -4 -1.16699 -8.66699 -3.5 -14s-5.83301 -11.333 -10.5 -18l-488 -656c-6 -8.66699 -10.167 -16 -12.5 -22s-3.5 -12.333 -3.5 -19c0 -5.33301 1 -11.5 3 -18.5s5 -13.833 9 -20.5l313 -552c1.33301 -2 2.33301 -4.5 3 -7.5s1 -7.5 1 -13.5
c0 -10.667 -3.16699 -19.167 -9.5 -25.5s-14.5 -9.5 -24.5 -9.5l-220 6c-16.667 0 -28.334 1.83301 -35.001 5.5s-14.667 13.5 -24 29.5l-229 377l-299 -412c-2 -2.66699 -4 -6.33398 -6 -11.001c-7.33301 -16 -19 -24 -35 -24c-8.66699 0 -27.5 4.16699 -56.5 12.5
s-55.167 12.5 -78.5 12.5c-11.333 0 -26 -0.666992 -44 -2s-30.667 -2 -38 -2c-14.667 0 -26.167 2 -34.5 6s-12.5 9.33301 -12.5 16c0 10.667 8 27.334 24 50.001z" />
    <glyph glyph-name="Y" unicode="Y" horiz-adv-x="1161" 
d="M453 51l4.00098 431.999c0 27.333 -2.83301 50.833 -8.5 70.5s-15.167 39.834 -28.5 60.501l-459 719c-3.33301 5.33301 -6.16602 11 -8.49902 17s-3.5 10.667 -3.5 14c0 10.667 15.667 19.167 47 25.5s73.666 9.5 126.999 9.5c28.667 0 50.5 -3.16699 65.5 -9.5
s30.833 -21.833 47.5 -46.5l333 -507l265 494c0.666992 1.33301 1.66699 3 3 5c16 28.667 38 43.667 66 45l252 9c7.33301 0 14.333 -2.83301 21 -8.5s10 -11.167 10 -16.5c0 -2.66699 -1.5 -7.66699 -4.5 -15s-6.83301 -15 -11.5 -23l-390 -669
c-0.666992 -1.33301 -2.33398 -4.33301 -5.00098 -9c-22.667 -38 -34 -77.333 -34 -118l-4 -456c0 -40 -9 -64 -27 -72s-69 -12 -153 -12c-42 0 -69.833 4 -83.5 12s-20.5 24.333 -20.5 49z" />
    <glyph glyph-name="Z" unicode="Z" horiz-adv-x="1110" 
d="M1094 1190c2.66699 -7.33301 4.66602 -14.666 5.99902 -21.999s2 -14.333 2 -21c0 -18 -89.667 -125.333 -269 -322s-347 -392.334 -503 -587.001l598 -5c37.333 0 65 -15.333 83 -46s27 -78 27 -142c0 -22 -6.83301 -35.667 -20.5 -41s-39.5 -8 -77.5 -8l-659 -8
c-21.333 0 -42.666 -0.333008 -63.999 -1s-33 -1 -35 -1c-21.333 0 -37.833 2.33301 -49.5 7s-23.167 13 -34.5 25c-16.667 19.333 -32.667 48.166 -48 86.499s-23 67.833 -23 88.5c0 70 200.667 337.333 602 802l104 121h-188c-14.667 0 -33.667 -0.333008 -57 -1
s-39.333 -1 -48 -1c-65.333 0 -118.5 2.5 -159.5 7.5s-68.5 12.167 -82.5 21.5c-16 11.333 -32.167 35.333 -48.5 72s-24.5 69.334 -24.5 98.001c0 21.333 9.16699 35.833 27.5 43.5s57.5 12.167 117.5 13.5l697 14c21.333 0 38.5 -4.66699 51.5 -14
s23.167 -24.333 30.5 -45z" />
    <glyph glyph-name="bracketleft" unicode="[" horiz-adv-x="758" 
d="M195 840l2 402.999c0 52 -3.66699 97.667 -11 137c-1.33301 6 -2 9.66699 -2 11c0 16 4.16699 27.833 12.5 35.5s21.5 11.5 39.5 11.5c3.33301 0 22.166 -1.83301 56.499 -5.5s67.166 -5.5 98.499 -5.5h51c6.66699 0 22.167 -0.333008 46.5 -1s45.833 -1 64.5 -1
c22.667 0 45 1.83301 67 5.5l33 5.5c16 0 27.5 -5.33301 34.5 -16s10.5 -28 10.5 -52c0 -22.667 -2.5 -40 -7.5 -52s-12.5 -18 -22.5 -18h-37l-178 9l-12 -443c-6 -227.333 -9 -354.333 -9 -381c0 -11.333 2.5 -105.333 7.5 -282s9.5 -350.667 13.5 -522l178 6
c7.33301 0 15 0.333008 23 1s12.667 1 14 1c10 0 17.5 -6 22.5 -18s7.5 -29.333 7.5 -52c0 -23.333 -3.5 -40.5 -10.5 -51.5s-18.5 -16.5 -34.5 -16.5l-33 4.5c-22 3 -44.333 4.5 -67 4.5c-18.667 0 -40.167 -0.333008 -64.5 -1s-39.833 -1 -46.5 -1h-51
c-31.333 0 -64.166 -1.5 -98.499 -4.5s-53.166 -4.5 -56.499 -4.5c-19.333 0 -32.833 3.5 -40.5 10.5s-11.5 18.5 -11.5 34.5c0 1.33301 0.666992 5 2 11c7.33301 39.333 11 85 11 137l-2 403c0 38 -0.333008 95.833 -1 173.5s-1 136.167 -1 175.5
c0 38.667 0.333008 96.834 1 174.501s1 135.5 1 173.5z" />
    <glyph glyph-name="backslash" unicode="\" horiz-adv-x="758" 
d="M676 -190c-7.33301 0 -16.168 3.83203 -26.501 11.499s-17.166 15.834 -20.499 24.501l-617 1568l-6 17.5c-2.66699 7.66699 -4 11.834 -4 12.501c0 1.33301 2 3 6 5s8 3 12 3h125c9.33301 0 19.5 -3.5 30.5 -10.5s18.167 -14.5 21.5 -22.5l616 -1560
c2 -7.33301 3.16699 -12.333 3.5 -15s0.5 -5.33398 0.5 -8.00098c0 -6.66699 -2 -12.667 -6 -18s-8 -8 -12 -8h-123z" />
    <glyph glyph-name="bracketright" unicode="]" horiz-adv-x="758" 
d="M555 143l-3.99707 -403c0 -52 3.66699 -98 11 -138c0.666992 -4.66699 1 -8 1 -10c0 -16 -3.83301 -27.5 -11.5 -34.5s-20.834 -10.5 -39.501 -10.5c-3.33301 0 -22.333 1.5 -57 4.5s-67.667 4.5 -99 4.5h-49c-6 0 -21.667 0.333008 -47 1s-47 1 -65 1
c-23.333 0 -45.833 -1.5 -67.5 -4.5s-32.834 -4.5 -33.501 -4.5c-15.333 0 -26.333 5.33301 -33 16s-10 28 -10 52s2.33301 41.667 7 53s12 17 22 17c0.666992 0 5.16699 -0.333008 13.5 -1s16.166 -1 23.499 -1l180 -6l12 455c5.33301 218.667 8 341.334 8 368.001
c0 11.333 -2.5 105.5 -7.5 282.5s-9.16699 350.833 -12.5 521.5l-180 -8h-37c-10 0 -17.333 5.66699 -22 17s-7 29 -7 53c0 24.667 3.33301 42.167 10 52.5s17.667 15.5 33 15.5c0.666992 0 11.834 -1.83301 33.501 -5.5s44.167 -5.5 67.5 -5.5c18 0 39.667 0.333008 65 1
s41 1 47 1h49c31.333 0 64.333 1.83301 99 5.5s53.667 5.5 57 5.5c17.333 0 30.166 -3.83301 38.499 -11.5s12.5 -19.5 12.5 -35.5c0 -2 -0.333008 -5.33301 -1 -10c-7.33301 -40 -11 -86 -11 -138l4 -403c0 -38 0.333008 -95.833 1 -173.5s1 -135.834 1 -174.501
c0 -39.333 -0.333008 -97.833 -1 -175.5s-1 -135.5 -1 -173.5z" />
    <glyph glyph-name="asciicircum" unicode="^" horiz-adv-x="2048" 
d="M915 1460h218l495 -561h-207l-397 397l-399 -397h-207z" />
    <glyph glyph-name="underscore" unicode="_" 
d="M0 -311h1024v-172h-1024v172z" />
    <glyph glyph-name="grave" unicode="`" 
d="M707 1061h-91.001l-313 164c-37.333 20 -62.333 37.667 -75 53s-19 33.666 -19 54.999c0 26.667 8.33301 48.334 25 65.001s38.334 25 65.001 25c20 0 40.5 -6.33301 61.5 -19s45.5 -33.667 73.5 -63z" />
    <glyph glyph-name="a" unicode="a" horiz-adv-x="985" 
d="M885 449l-0.00195312 -279.002c0 -47.333 1.66699 -93.666 5 -138.999c0.666992 -8 1 -13 1 -15c0 -19.333 -10.333 -32.666 -31 -39.999s-69 -11 -145 -11l-60 62c-4.66699 4.66699 -9 8.16699 -13 10.5s-7.66699 3.5 -11 3.5c-2.66699 0 -8.66699 -3 -18 -9
c-60.667 -39.333 -132.667 -59 -216 -59c-100.667 0 -182.5 25.667 -245.5 77s-94.5 117.333 -94.5 198c0 82.667 34.5 149.167 103.5 199.5s166.5 80.166 292.5 89.499l158 10c22 2 36 9.33301 42 22s9 45 9 97c0 59.333 -11.167 105.833 -33.5 139.5
s-52.833 50.5 -91.5 50.5c-36 0 -70.833 -17 -104.5 -51s-61.167 -80 -82.5 -138l-9 -26c-18.667 -56 -45 -84 -79 -84c-73.333 0 -122.666 4 -147.999 12s-38 23 -38 45c0 10.667 7 30.334 21 59.001c8.66699 17.333 15.334 31.333 20.001 42l10 26c20 52 41 93 63 123
c30 40 64.5 69.167 103.5 87.5s85.833 27.5 140.5 27.5c76 0 147.167 -9 213.5 -27s116.833 -41 151.5 -69c31.333 -26.667 53.5 -61.167 66.5 -103.5s19.5 -111.833 19.5 -208.5v-122zM644.998 351.998c0 28 -2.33203 48.333 -6.99902 61s-12 19 -22 19
c-76 0 -148.5 -26.333 -217.5 -79s-103.5 -111.667 -103.5 -177c0 -26 7.16699 -45.5 21.5 -58.5s35.833 -19.5 64.5 -19.5c65.333 0 125.666 24.667 180.999 74s83 109.333 83 180z" />
    <glyph glyph-name="b" unicode="b" horiz-adv-x="1049" 
d="M324 420c0 -125.333 14.3301 -208.167 42.9971 -248.5s80.334 -60.5 155.001 -60.5c70 0 123 32 159 96s54 158 54 282c0 114 -11.667 195.5 -35 244.5s-61.333 73.5 -114 73.5c-39.333 0 -78.166 -10 -116.499 -30s-69.166 -47 -92.499 -81
c-19.333 -26.667 -33 -56 -41 -88s-12 -77 -12 -135v-53zM245.997 -16.001l-96.002 0.000976562c-22 0 -35.833 4.33301 -41.5 13s-8.5 30 -8.5 64v45l-6 853c-0.666992 149.333 -5.66699 301.333 -15 456c-2 32 -3 51.333 -3 58c0 22 5.83301 37.333 17.5 46
s32.5 13 62.5 13c8 0 20 -0.333008 36 -1s27 -1 33 -1c8 0 19.167 0.666992 33.5 2s24.5 2 30.5 2c25.333 0 41.5 -4.33301 48.5 -13s10.5 -26.334 10.5 -53.001c0 -18.667 -1.66699 -48 -5 -88s-5 -70 -5 -90v-393c52.667 17.333 92.334 28.833 119.001 34.5
s50.334 8.5 71.001 8.5c132.667 0 243 -42.333 331 -127s132 -194.667 132 -330c0 -160 -44.667 -285.667 -134 -377s-213.333 -137 -372 -137c-34 0 -67.167 7.5 -99.5 22.5s-49.5 22.5 -51.5 22.5c-5.33301 0 -18.333 -5 -39 -15s-37 -15 -49 -15z" />
    <glyph glyph-name="c" unicode="c" horiz-adv-x="1014" 
d="M502 88c37.333 0 73.1689 13.167 107.502 39.5s71.5 69.833 111.5 130.5c2 4 5.33301 9 10 15c23.333 38 51.333 57 84 57c2.66699 0 11.667 -0.333008 27 -1s29 -1 41 -1c40 0 66 -3.33301 78 -10s18 -17.667 18 -33c0 -16.667 -9.33301 -41.167 -28 -73.5
s-44.334 -68.166 -77.001 -107.499c-47.333 -56.667 -93.166 -96.667 -137.499 -120s-96.5 -35 -156.5 -35c-176 0 -304.667 40.167 -386 120.5s-122 208.166 -122 383.499c0 168.667 29.667 299.5 89 392.5s143 139.5 251 139.5c90.667 0 181 -16 271 -48
s154.667 -69.333 194 -112c25.333 -28.667 44.166 -67 56.499 -115s18.5 -108 18.5 -180c0 -22.667 -3.83301 -37.5 -11.5 -44.5s-24.167 -10.5 -49.5 -10.5c-68.667 0 -112.834 4.5 -132.501 13.5s-31.5 32.5 -35.5 70.5c-8.66699 86 -30 156 -64 210s-72.667 81 -116 81
c-56.667 0 -105 -42 -145 -126s-60 -188.667 -60 -314c0 -102.667 14.333 -182 43 -238s69 -84 121 -84z" />
    <glyph glyph-name="d" unicode="d" horiz-adv-x="1071" 
d="M735 516c0 48 -2.33301 92.001 -7 132.001s-9.66699 65.667 -15 77c-13.333 28.667 -36.333 54 -69 76s-63.667 33 -93 33c-69.333 0 -121.5 -40.5 -156.5 -121.5s-52.5 -201.833 -52.5 -362.5c0 -80.667 14.167 -142.834 42.5 -186.501s68.833 -65.5 121.5 -65.5
c64 0 118.167 30.5 162.5 91.5s66.5 138.5 66.5 232.5v94zM803 -19.999l-14.9961 -0.00195312c-16.667 0 -27.5 2.83301 -32.5 8.5s-7.5 17.834 -7.5 36.501v57c-51.333 -42.667 -98.833 -73.167 -142.5 -91.5s-89.834 -27.5 -138.501 -27.5
c-126.667 0 -224.834 42.333 -294.501 127s-104.5 204.334 -104.5 359.001c0 162 31.167 289.833 93.5 383.5s147.166 140.5 254.499 140.5c20 0 41.5 -1.66699 64.5 -5s46.5 -8 70.5 -14l119 -30c2 -0.666992 5 -1.33398 9 -2.00098c8.66699 -1.33301 15 -2 19 -2
c11.333 0 19 3.83301 23 11.5s6 22.167 6 43.5l2 231c0 54 -2.66699 109 -8 165s-8 85 -8 87c0 27.333 5.83301 47.166 17.5 59.499s30.167 18.5 55.5 18.5c8.66699 0 19.834 -1.5 33.501 -4.5s23.167 -4.83301 28.5 -5.5l61 -6c7.33301 -1.33301 16.666 -2.33301 27.999 -3
c33.333 -3.33301 50 -23.666 50 -60.999v-14l-2 -140c-2 -136.667 -3.5 -246 -4.5 -328s-1.5 -124.667 -1.5 -128l4 -731c0 -6 0.666992 -15.667 2 -29s2 -23.666 2 -30.999c0 -28 -4.5 -47.167 -13.5 -57.5s-24.833 -15.5 -47.5 -15.5c-4 0 -10.333 0.333008 -19 1
s-15.334 1 -20.001 1z" />
    <glyph glyph-name="e" unicode="e" horiz-adv-x="995" 
d="M369 541l222.999 22.002c30.667 2.66699 52 7.66699 64 15s18 19.333 18 36c0 64 -12.667 115.833 -38 155.5s-57.666 59.5 -96.999 59.5c-49.333 0 -95.833 -29.833 -139.5 -89.5s-65.5 -117.834 -65.5 -174.501c0 -10.667 1.5 -17.334 4.5 -20.001s8.83301 -4 17.5 -4
h13zM365.999 348.002c-12 -2 -20.6689 -6.66602 -26.002 -13.999s-8 -19 -8 -35c0 -53.333 15.333 -98 46 -134s68.667 -54 114 -54c33.333 0 68.333 10.667 105 32s67 49.333 91 84c3.33301 4.66699 7.33301 11 12 19c29.333 43.333 61 65 95 65
c8 0 19.833 -0.333008 35.5 -1s27.5 -1 35.5 -1c2 0 4.83301 0.333008 8.5 1s6.5 1 8.5 1c22.667 0 39.834 -3 51.501 -9s17.5 -15.333 17.5 -28c0 -10 -6.5 -25.333 -19.5 -46s-37.167 -53 -72.5 -97c-52 -63.333 -99.667 -106.5 -143 -129.5s-94.666 -34.5 -153.999 -34.5
c-62.667 0 -129.667 11.5 -201 34.5s-125.666 49.833 -162.999 80.5c-43.333 34.667 -75.666 81.667 -96.999 141s-32 131 -32 215c0 160.667 33.333 292 100 394s152 153 256 153c70.667 0 147.167 -13.833 229.5 -41.5s140.166 -58.834 173.499 -93.501
c35.333 -35.333 64.666 -86.333 87.999 -153s35 -133 35 -199c0 -46 -42 -75 -126 -87c-5.33301 -0.666992 -9 -1 -11 -1z" />
    <glyph glyph-name="f" unicode="f" horiz-adv-x="670" 
d="M213 244l-1.99902 325v23c0 14 -2.66699 22.667 -8 26s-18.333 5 -39 5h-64c-25.333 0 -44.5 6.83301 -57.5 20.5s-19.5 34.167 -19.5 61.5c0 34.667 13.833 60 41.5 76s71.834 24 132.501 24h12l6 258c0.666992 18 1.33398 43.667 2.00098 77
c2.66699 125.333 9.66699 204 21 236c15.333 46.667 40 85.334 74 116.001s68 46 102 46c67.333 0 123.166 -5.66699 167.499 -17s79.833 -29 106.5 -53c30 -26.667 56.333 -67.334 79 -122.001s34 -103.334 34 -146.001c0 -18 -12.167 -32 -36.5 -42
s-57.833 -15 -100.5 -15c-22.667 0 -37.834 2.33301 -45.501 7s-14.5 17.334 -20.5 38.001l-31 107c-4.66699 16.667 -11.334 30.334 -20.001 41.001s-17.667 16 -27 16c-12 0 -21.833 -8.83301 -29.5 -26.5s-11.5 -41.834 -11.5 -72.501v-28
c0 -21.333 -1.33301 -51.333 -4 -90c-0.666992 -15.333 -1.33398 -27 -2.00098 -35l-8 -236v-18c0 -14 2.33301 -23 7 -27s16.667 -6 36 -6c45.333 0 76.5 -6 93.5 -18s25.5 -32.667 25.5 -62c0 -28 -6 -49.333 -18 -64s-31.333 -24.667 -58 -30c-12 -2 -27 -3.66699 -45 -5
c-30 -2.66699 -45 -16.667 -45 -42l2 -220c0.666992 -52.667 2.5 -114.167 5.5 -184.5s4.5 -114.5 4.5 -132.5c0 -31.333 -5.66699 -53.166 -17 -65.499s-30.333 -18.5 -57 -18.5c-73.333 0 -123.666 8.33301 -150.999 25s-41 48 -41 94c0 7.33301 1 28.166 3 62.499
s3 64.833 3 91.5z" />
    <glyph glyph-name="g" unicode="g" horiz-adv-x="1028" 
d="M561 -92c-26.667 6 -49.667 10.832 -69 14.499s-29.666 5.5 -30.999 5.5c-4.66699 0 -12.834 -2.33301 -24.501 -7s-25.5 -11 -41.5 -19l-155 -84c-19.333 -10 -32 -19 -38 -27s-9 -17.667 -9 -29c0 -26.667 13.5 -45.5 40.5 -56.5s75.5 -16.5 145.5 -16.5
c131.333 0 235.833 10.333 313.5 31s116.5 48.334 116.5 83.001c0 32.667 -34.667 56.667 -104 72c-8.66699 2 -14.667 3.33301 -18 4zM713 587.999c0 66 -15.499 121.001 -46.499 165.001s-69.5 66 -115.5 66c-58.667 0 -109.167 -27.333 -151.5 -82
s-63.5 -121.334 -63.5 -200.001c0 -66 12.167 -115.667 36.5 -149s59.833 -50 106.5 -50c63.333 0 118.166 24.167 164.499 72.5s69.5 107.5 69.5 177.5zM178.001 -14l-57.002 52.9961l-17 14c-25.333 20 -38 38.667 -38 56c0 11.333 3.5 23.166 10.5 35.499
s16.167 22.833 27.5 31.5l127 94c-42.667 38.667 -74.167 81 -94.5 127s-30.5 98 -30.5 156c0 52 8.16699 106.333 24.5 163s39.166 110.334 68.499 161.001c22 38.667 48 67 78 85s66 27 108 27c24.667 0 51.834 -3 81.501 -9s61.834 -15.333 96.501 -28l113 140
c16 20 31.5 34.833 46.5 44.5s30.167 14.5 45.5 14.5c23.333 0 49.333 -10.167 78 -30.5s43 -39.5 43 -57.5c0 -3.33301 -3 -9.16602 -9 -17.499s-14 -17.5 -24 -27.5l-117 -115c64.667 -33.333 115.667 -83.166 153 -149.499s56 -139.166 56 -218.499
c0 -102 -33.833 -182.5 -101.5 -241.5s-160.167 -88.5 -277.5 -88.5c-9.33301 0 -23.5 1 -42.5 3s-33.5 3 -43.5 3c-12.667 0 -27 -7.16699 -43 -21.5s-24 -25.5 -24 -33.5c0 -20 42.333 -37.333 127 -52c70 -11.333 128 -22.666 174 -33.999
c136.667 -34 225 -68.667 265 -104s60 -89.666 60 -162.999c0 -52 -11.5 -94.833 -34.5 -128.5s-61.167 -63.167 -114.5 -88.5c-61.333 -28.667 -132.833 -51.167 -214.5 -67.5s-166.5 -24.5 -254.5 -24.5c-155.333 0 -278.833 24.333 -370.5 73s-137.5 113 -137.5 193
c0 33.333 9.33301 61.666 28 84.999s59.334 51 122.001 83z" />
    <glyph glyph-name="h" unicode="h" horiz-adv-x="1034" 
d="M84 8l2.00293 290.998v90c0 68 -0.666992 219.333 -2 454c-0.666992 137.333 -1.33398 246 -2.00098 326v238c0 6.66699 -0.333008 16.834 -1 30.501s-1 23.834 -1 30.501c0 31.333 9.16699 51.5 27.5 60.5s54.833 13.5 109.5 13.5c53.333 0 88.5 -4 105.5 -12
s25.5 -27 25.5 -57c0 -5.33301 -1 -17.333 -3 -36c-11.333 -94 -17 -186 -17 -276c0 -38 1 -76.167 3 -114.5s5 -77.833 9 -118.5c35.333 4.66699 64.666 8.16699 87.999 10.5s43 3.5 59 3.5c160.667 0 278.667 -37.167 354 -111.5s113 -190.833 113 -349.5
c0 -154.667 -3.66699 -294.334 -11 -419.001c-0.666992 -8 -1 -12.333 -1 -13c-1.33301 -14.667 -13 -26.5 -35 -35.5s-51.333 -13.5 -88 -13.5c-50.667 0 -83.834 4.33301 -99.501 13s-23.5 29.667 -23.5 63c0 36.667 0.666992 88 2 154s2 114.333 2 145v176
c-0.666992 87.333 -12.167 149.5 -34.5 186.5s-58.5 55.5 -108.5 55.5c-84.667 0 -144 -34.5 -178 -103.5s-51 -212.167 -51 -429.5c0 -78.667 3.33301 -154 10 -226c1.33301 -12.667 2 -20 2 -22c0 -25.333 -15.833 -43.5 -47.5 -54.5s-83.5 -16.5 -155.5 -16.5
c-21.333 0 -35.5 2.83301 -42.5 8.5s-10.5 21.834 -10.5 48.501v10z" />
    <glyph glyph-name="i" unicode="i" horiz-adv-x="432" 
d="M360 1227c0 -45.333 -15.333 -84.3311 -46 -116.998s-67 -49 -109 -49c-42.667 0 -77 14.167 -103 42.5s-39 66.166 -39 113.499c0 45.333 13.667 83.166 41 113.499s61.666 45.5 102.999 45.5c42.667 0 78.834 -14.333 108.501 -43s44.5 -64 44.5 -106zM332 102.002
c0 -6.66699 -0.333008 -15.999 -1 -27.999c0 -53.333 -23 -80 -69 -80c-70.667 0 -116 3 -136 9s-30 20.667 -30 44c0 7.33301 0.666992 21 2 41s2 35.667 2 47l-4 522c0 41.333 -1.66699 84.166 -5 128.499s-5 68.5 -5 72.5c0 27.333 8.16699 45.833 24.5 55.5
s50.5 14.5 102.5 14.5c55.333 0 91 -3 107 -9s24 -22.333 24 -49v-94z" />
    <glyph glyph-name="j" unicode="j" horiz-adv-x="590" 
d="M129 1257c0 41.333 16.333 77.668 49 109.001s71.667 47 117 47c41.333 0 74.5 -13.333 99.5 -40s37.5 -61.667 37.5 -105c0 -48.667 -13.833 -87.834 -41.5 -117.501s-64.167 -44.5 -109.5 -44.5c-43.333 0 -79.5 15 -108.5 45s-43.5 65.333 -43.5 106zM195 -46.998
l-7 423.999c-0.666992 74.667 -3.83398 154.667 -9.50098 240s-8.5 134.333 -8.5 147c0 22.667 -0.666992 48.167 -2 76.5s-2 45.166 -2 50.499c0 23.333 3.5 40 10.5 50s18.5 15 34.5 15l172 5c18.667 0 31.834 -5.66699 39.501 -17s11.5 -31.666 11.5 -60.999v-34
c-2.66699 -110.667 -4 -222.334 -4 -335.001c0 -33.333 1.16699 -81.166 3.5 -143.499s3.83301 -105.833 4.5 -130.5l6 -357v-16c0 -146 -37.5 -257 -112.5 -333s-184.833 -114 -329.5 -114c-54.667 0 -99.334 6.33301 -134.001 19s-52 28.334 -52 47.001
c0 4 0.333008 8.33301 1 13s1.66699 9.33398 3 14.001l33 119c2 8 6.33301 14.333 13 19s15 7 25 7c8.66699 0 28.5 -5.5 59.5 -16.5s58.5 -16.5 82.5 -16.5c60.667 0 102.834 17.667 126.501 53s35.5 110.666 35.5 225.999v49z" />
    <glyph glyph-name="k" unicode="k" horiz-adv-x="985" 
d="M94 121l-4.00195 656.002c-2 207.333 -8 409.666 -18 606.999c-1.33301 31.333 -2 50 -2 56c0 39.333 8 64.833 24 76.5s58.333 17.5 127 17.5c50.667 0 83.834 -5.33301 99.501 -16s23.5 -31.334 23.5 -62.001c0 -9.33301 -2 -63 -6 -161s-6 -190.333 -6 -277v-86v-105
c0 -6 0.333008 -16 1 -30c2 -92.667 7.66699 -171.334 17 -236.001l185 236c50 63.333 100.333 108.5 151 135.5s119 40.5 205 40.5c18.667 0 35.667 -3.5 51 -10.5s23 -14.5 23 -22.5c0 -15.333 -37.333 -60 -112 -134c-59.333 -58 -107.333 -107 -144 -147l-148 -157
c75.333 -107.333 158.333 -211.166 249 -311.499s136 -156.166 136 -167.499c0 -12.667 -12.167 -22.334 -36.5 -29.001s-59.166 -10 -104.499 -10c-68 0 -131.333 36.667 -190 110l-50 60c-17.333 19.333 -39 46 -65 80c-45.333 58.667 -80.333 88 -105 88
c-16 0 -28.167 -7 -36.5 -21s-12.5 -33.667 -12.5 -59v-9l4 -137v-33c0 -40 -3.83301 -65.667 -11.5 -77s-24.167 -17 -49.5 -17c-78 0 -130.667 3 -158 9s-41 16 -41 30c0 4 0.666992 18.5 2 43.5s2 48.167 2 69.5z" />
    <glyph glyph-name="l" unicode="l" horiz-adv-x="432" 
d="M86 145l-2 1276c0 54 4.33301 85.667 13 95s31.667 14 69 14c80 0 130 -3 150 -9s30 -21.333 30 -46c0 -10 -1 -24.5 -3 -43.5s-3 -33.167 -3 -42.5l-6 -1125c0 -36 1.66699 -76.333 5 -121s5 -71.334 5 -80.001c0 -27.333 -8 -45.666 -24 -54.999s-50.333 -14 -103 -14
c-55.333 0 -91 2.83301 -107 8.5s-24 21.834 -24 48.501v94z" />
    <glyph glyph-name="m" unicode="m" horiz-adv-x="1589" 
d="M84 57l7.99805 315.001c2.66699 101.333 6.5 200.666 11.5 297.999s7.5 146.333 7.5 147c0 10.667 -0.833008 26 -2.5 46s-2.5 34.667 -2.5 44c0 33.333 7.66699 56 23 68s42 18 80 18c50 0 83.333 -2.66699 100 -8s25 -19.666 25 -42.999v-61
c18.667 10.667 38 18.334 58 23.001s43.667 7 71 7c112 0 196.5 -9.66699 253.5 -29s99.5 -52 127.5 -98l74 41c44.667 24.667 83 41.5 115 50.5s66 13.5 102 13.5c125.333 0 218.333 -27.667 279 -83s91 -140.333 91 -255v-12l-8 -447
c-1.33301 -45.333 -9.16602 -73 -23.499 -83s-45.5 -15 -93.5 -15l-112 2c-10.667 0 -18.167 2.83301 -22.5 8.5s-6.5 15.834 -6.5 30.501v14l10 154c2.66699 43.333 4.66699 86.166 6 128.499s2 85.5 2 129.5c0 113.333 -9.66699 190.166 -29 230.499
s-53.333 60.5 -102 60.5c-32 0 -66.333 -11.5 -103 -34.5s-65.667 -51.833 -87 -86.5c-12.667 -19.333 -21.667 -42.333 -27 -69s-8 -62.334 -8 -107.001l-2 -187v-100c0 -1.33301 0.333008 -4.66602 1 -9.99902c0.666992 -18 1 -36 1 -54c0 -28.667 -7.33301 -48 -22 -58
s-46.334 -15 -95.001 -15h-79c-21.333 0 -34.666 2.33301 -39.999 7s-8 15.334 -8 32.001v12l7 119l3 69c7.33301 122 11 213 11 273c0 90 -9 151 -27 183s-48.667 48 -92 48s-83.666 -9.33301 -120.999 -28s-66 -44 -86 -76c-11.333 -18.667 -20 -49.834 -26 -93.501
s-9 -101.5 -9 -173.5v-38l2 -228v-59c0 -40 -4 -65 -12 -75s-27.667 -15 -59 -15h-19l-120 2c-10 0 -17 2 -21 6s-6 11.333 -6 22c0 3.33301 0.333008 9.16602 1 17.499s1 15.5 1 21.5z" />
    <glyph glyph-name="n" unicode="n" horiz-adv-x="1053" 
d="M123 0c-15.333 0 -26.333 4.3252 -33 12.9922s-10 23.334 -10 44.001c0 8 5.5 89.667 16.5 245s16.5 304 16.5 446c0 28.667 -2.16699 60.834 -6.5 96.501s-6.5 57.167 -6.5 64.5c0 22 6.16699 36.833 18.5 44.5s38.5 11.5 78.5 11.5c26 0 47.5 -0.166992 64.5 -0.5
s34.167 -1.16602 51.5 -2.49902l4 -83l81 6c20.667 2 39.834 3.5 57.501 4.5s34.5 1.5 50.5 1.5c57.333 0 109 -6.83301 155 -20.5s93.333 -36.167 142 -67.5c70 -44.667 116.5 -89 139.5 -133s34.5 -107 34.5 -189c0 -122 -7 -251 -21 -387c-4 -34.667 -6 -55.667 -6 -63
c0 -28 -5.16699 -47.333 -15.5 -58s-29.5 -16 -57.5 -16c-52.667 0 -93.167 5 -121.5 15s-42.5 24 -42.5 42c0 8.66699 1.66699 30.334 5 65.001c14 130.667 21 253 21 367c0 112.667 -11.333 192.834 -34 240.501s-60.334 71.5 -113.001 71.5c-40 0 -80 -9 -120 -27
s-71.667 -41 -95 -69c-20 -24.667 -34.167 -60.667 -42.5 -108s-12.5 -116.666 -12.5 -207.999s1.66699 -179.666 5 -264.999c0.666992 -13.333 1 -21.333 1 -24c0 -21.333 -4.66699 -36.166 -14 -44.499s-34 -12.5 -74 -12.5h-117z" />
    <glyph glyph-name="o" unicode="o" horiz-adv-x="1085" 
d="M571 848c-71.333 0 -128.334 -37.3311 -171.001 -111.998s-64 -175.334 -64 -302.001c0 -108.667 16 -192.167 48 -250.5s78 -87.5 138 -87.5c72.667 0 132.834 36 180.501 108s71.5 163.667 71.5 275s-18.5 200.666 -55.5 267.999s-86.167 101 -147.5 101z
M56.999 492.002c0 148.667 34.333 268.332 103 358.999s159.334 136 272.001 136c59.333 0 128.166 -10.333 206.499 -31s144.833 -46.334 199.5 -77.001c70 -39.333 119.5 -88.166 148.5 -146.499s43.5 -140.166 43.5 -245.499c0 -165.333 -39.667 -292 -119 -380
s-194 -132 -344 -132c-154 0 -277.5 46.833 -370.5 140.5s-139.5 219.167 -139.5 376.5z" />
    <glyph glyph-name="p" unicode="p" horiz-adv-x="1063" 
d="M334 18l1.99707 -246.999c0 -78 -1.66699 -138.667 -5 -182s-8 -69 -14 -77c-8.66699 -11.333 -31.667 -21.5 -69 -30.5s-77 -13.5 -119 -13.5c-18 0 -30.667 4.16699 -38 12.5s-11 22.5 -11 42.5c0 2.66699 0.666992 14 2 34c16 253.333 24 552.666 24 897.999
c0 146.667 -0.5 244.834 -1.5 294.501s-3.16699 88.834 -6.5 117.501c-1.33301 14.667 -4.66602 36.667 -9.99902 66s-8 50 -8 62c0 21.333 5.66699 36.666 17 45.999s30.333 14 57 14h18l127 4c16.667 0 28.334 -3.33301 35.001 -10s10.667 -19 12 -37l2 -97
c34 9.33301 68 16.166 102 20.499s69 6.5 105 6.5c135.333 0 244 -42.167 326 -126.5s123 -196.5 123 -336.5c0 -146 -42.167 -267.167 -126.5 -363.5s-185.166 -144.5 -302.499 -144.5c-59.333 0 -108.833 3.83301 -148.5 11.5s-70.5 19.5 -92.5 35.5zM345.997 229.001v-8
c0 -38.667 10.667 -64.667 32 -78s64 -20 128 -20c84.667 0 144.667 26.833 180 80.5s53 146.167 53 277.5c0 102 -17.167 177.667 -51.5 227s-86.833 74 -157.5 74c-24 0 -49 -3.5 -75 -10.5s-49 -16.167 -69 -27.5c-12 -7.33301 -20.333 -14.333 -25 -21
s-7 -15.667 -7 -27v-26z" />
    <glyph glyph-name="q" unicode="q" horiz-adv-x="1090" 
d="M334 463c0 -110 12.668 -194.831 38.001 -254.498s61 -89.5 107 -89.5c64 0 123.333 43.167 178 129.5s82 189.166 82 308.499c0 81.333 -20.333 149.166 -61 203.499s-88.334 81.5 -143.001 81.5c-68 0 -118.5 -31.333 -151.5 -94s-49.5 -157.667 -49.5 -285z
M756.001 126.002c-55.333 -57.333 -103.169 -96.8359 -143.502 -118.503s-84.166 -32.5 -131.499 -32.5c-124.667 0 -224.667 47.167 -300 141.5s-113 221.5 -113 381.5c0 152.667 30.5 271.334 91.5 356.001s146.5 127 256.5 127c55.333 0 110.333 -7.83301 165 -23.5
s108.667 -39.167 162 -70.5l-2 53v6c0 12 3.83301 20.5 11.5 25.5s21.167 7.5 40.5 7.5h57c64 0 103.167 -3.16699 117.5 -9.5s21.5 -22.166 21.5 -47.499v-35v-51l8 -1272v-29c0 -34.667 -5 -57 -15 -67s-28 -15 -54 -15c-65.333 0 -110.666 3 -135.999 9
s-38 16.667 -38 32c0 4.66699 1 18.334 3 41.001c11.333 122 17 243 17 363c0 34.667 -1.5 71 -4.5 109s-7.5 77.667 -13.5 119z" />
    <glyph glyph-name="r" unicode="r" horiz-adv-x="692" 
d="M152 -16c-20 0 -33.002 3.16895 -39.002 9.50195s-9 21.5 -9 45.5v592c0 101.333 -3 195 -9 281c-0.666992 11.333 -1 18 -1 20c0 18 4 32.667 12 44s17.667 17 29 17c10.667 0 25.5 -1.33301 44.5 -4s32.833 -4 41.5 -4c3.33301 0 9.5 0.666992 18.5 2s16.5 2 22.5 2
c22 0 37 -3.33301 45 -10s12 -20.334 12 -41.001c0 -8 -0.666992 -26.833 -2 -56.5s-2 -55.167 -2 -76.5v-80l74 137c14.667 27.333 32.834 44.833 54.501 52.5s59.5 11.5 113.5 11.5c36.667 0 63.334 -18.833 80.001 -56.5s25 -97.5 25 -179.5
c0 -54.667 -8.16699 -95.334 -24.5 -122.001s-41.166 -40 -74.499 -40c-18.667 0 -35.334 6.66699 -50.001 20s-25.334 31.666 -32.001 54.999c-2 7.33301 -4 18.333 -6 33c-4 32 -12.667 48 -26 48c-24.667 0 -51.667 -40.833 -81 -122.5s-44 -173.834 -44 -276.501
c0 -41.333 2.33301 -88.166 7 -140.499s7 -84.166 7 -95.499c0 -26 -5.66699 -43.333 -17 -52s-40.666 -13 -87.999 -13h-81z" />
    <glyph glyph-name="s" unicode="s" horiz-adv-x="934" 
d="M240 420c-62.667 21.333 -106.668 48.1641 -132.001 80.4971s-38 76.5 -38 132.5c0 98.667 32.833 183.334 98.5 254.001s146.167 106 241.5 106c51.333 0 112.833 -13.333 184.5 -40s125.5 -55 161.5 -85c29.333 -24 55 -58.833 77 -104.5s33 -84.5 33 -116.5
c0 -28.667 -13 -49.167 -39 -61.5s-71 -18.5 -135 -18.5c-41.333 0 -64 27 -68 81c-0.666992 11.333 -1 20 -1 26c-4 54.667 -18 99 -42 133s-53 51 -87 51c-46.667 0 -86.667 -27 -120 -81s-50 -119 -50 -195c0 -18.667 5.5 -32.667 16.5 -42s41.5 -20.666 91.5 -33.999
l264 -72c68 -18.667 117.833 -44 149.5 -76s47.5 -72.667 47.5 -122c0 -81.333 -39.333 -147.5 -118 -198.5s-182 -76.5 -310 -76.5c-116 0 -212.667 30.667 -290 92s-116 132.333 -116 213c0 22 12.5 39.167 37.5 51.5s59.833 18.5 104.5 18.5c36 0 65.333 -26.333 88 -79
l18 -40c20.667 -43.333 45.5 -77 74.5 -101s59.5 -36 91.5 -36c38.667 0 73.667 16.333 105 49s47 68.334 47 107.001c0 38 -39 69 -117 93c-21.333 6 -37.666 11 -48.999 15z" />
    <glyph glyph-name="t" unicode="t" horiz-adv-x="692" 
d="M233 629c0 7.33301 -1.16992 13.1709 -3.50293 17.5039s-5.16602 6.5 -8.49902 6.5c-8.66699 0 -18 -0.333008 -28 -1s-16.333 -1 -19 -1c-49.333 0 -88.666 7.66699 -117.999 23s-44 35.666 -44 60.999s7.83301 46.333 23.5 63s40.167 30 73.5 40
c18 5.33301 39 11 63 17c36.667 9.33301 55 25.333 55 48v31v242c0 17.333 -0.666992 37.5 -2 60.5s-2 37.5 -2 43.5c0 31.333 12.833 52.833 38.5 64.5s72.834 17.5 141.501 17.5c40 0 66.833 -4.83301 80.5 -14.5s20.5 -28.834 20.5 -57.501c0 -1.33301 -1 -8 -3 -20
c-14.667 -100.667 -22 -213.334 -22 -338.001c0 -18 0.5 -32.833 1.5 -44.5s1.83301 -17.5 2.5 -17.5h107c2 0 4.5 0.333008 7.5 1s5.16699 1 6.5 1c16.667 0 30 -4.33301 40 -13s15 -20.667 15 -36c0 -41.333 -5 -72.5 -15 -93.5s-33 -36.833 -69 -47.5l-81 -25
c-10 -2.66699 -16.667 -6.66699 -20 -12s-5 -17 -5 -35v-14v-68c0 -15.333 -0.333008 -35 -1 -59s-1 -39.667 -1 -47c0 -1.33301 0.333008 -11.666 1 -30.999s1 -38.333 1 -57c0 -54 3.33301 -111.333 10 -172s10 -92.667 10 -96c0 -31.333 -13 -54.333 -39 -69
s-66 -22 -120 -22c-36.667 0 -62 6.83301 -76 20.5s-21 38.5 -21 74.5c0 1.33301 0.333008 6.66602 1 15.999c1.33301 43.333 2 85.666 2 126.999z" />
    <glyph glyph-name="u" unicode="u" horiz-adv-x="1075" 
d="M735 59c-44.667 -34.667 -83.6689 -59.333 -117.002 -74s-67.333 -22 -102 -22c-33.333 0 -69.333 4.33301 -108 13s-77 20.667 -115 36c-40.667 16.667 -71.167 35.5 -91.5 56.5s-38.5 51.5 -54.5 91.5c-16 41.333 -28.833 121.166 -38.5 239.499
s-14.5 259.5 -14.5 423.5c0 55.333 4.66699 92.5 14 111.5s26 28.5 50 28.5c16 0 32.833 -0.833008 50.5 -2.5s27.5 -2.5 29.5 -2.5c14 0 30.833 1.5 50.5 4.5s32.834 4.5 39.501 4.5c12.667 -0.666992 20.834 -2.66699 24.501 -6s5.5 -11.666 5.5 -24.999
c0 -6 -3.66699 -53.5 -11 -142.5s-11 -174.5 -11 -256.5c0 -146.667 13.667 -255.834 41 -327.501s69 -107.5 125 -107.5c71.333 0 127.666 38.167 168.999 114.5s62 182.5 62 318.5c0 108 -6.66699 216.333 -20 325c-2.66699 21.333 -4 34.333 -4 39
c0 23.333 6.16699 39.833 18.5 49.5s34.833 14.5 67.5 14.5c26.667 0 55.334 0.333008 86.001 1c8.66699 0.666992 14 1 16 1c32 0 54 -3.5 66 -10.5s18 -19.167 18 -36.5c0 -2.66699 -0.666992 -13.667 -2 -33c-10.667 -189.333 -16 -404.333 -16 -645
c0 -48 2.66699 -95.167 8 -141.5l8 -69.5c0 -16.667 -5.16699 -30.5 -15.5 -41.5s-23.5 -16.5 -39.5 -16.5c-42 0 -81.333 -1.66699 -118 -5c-6 -0.666992 -9.66699 -1 -11 -1c-16.667 0 -29.5 2.83301 -38.5 8.5s-13.5 13.834 -13.5 24.501v12v6z" />
    <glyph glyph-name="v" unicode="v" horiz-adv-x="938" 
d="M904 944c14.667 -1.33301 25.9971 -5.16699 33.9971 -11.5s12 -14.833 12 -25.5c0 -1.33301 -0.166992 -3 -0.5 -5s-1.5 -5.66699 -3.5 -11l-334 -838c-11.333 -30 -27.166 -48.333 -47.499 -55s-76.166 -10 -167.499 -10c-28 0 -50.5 4.66699 -67.5 14
s-29.167 23.666 -36.5 42.999l-279 830c-2 6 -3.5 11.833 -4.5 17.5s-1.5 11.167 -1.5 16.5c0 11.333 7.83301 19 23.5 23s55.834 6 120.501 6c62 0 98.667 -22 110 -66c2.66699 -9.33301 4.66699 -16.666 6 -21.999l199 -653c40 155.333 98.333 325 175 509
c22 53.333 36 89 42 107c20.667 64 37.667 102.5 51 115.5s34 19.5 62 19.5h22z" />
    <glyph glyph-name="w" unicode="w" horiz-adv-x="1395" 
d="M6 903c-2 7.33301 -3.50195 14.3359 -4.50195 21.0029s-1.5 12.667 -1.5 18c0 13.333 7.66699 23.166 23 29.499s39 9.5 71 9.5c92.667 0 147 -37.667 163 -113c2 -10 3.66699 -18 5 -24l127 -569l3 -15c2.66699 -18 11.334 -27 26.001 -27c16 0 29 20 39 60
c2 6.66699 3.33301 11.667 4 15l143 536c9.33301 35.333 21.333 57.5 36 66.5s40.334 13.5 77.001 13.5c82 0 129.667 -48 143 -144l6 -40l74 -421c0.666992 -3.33301 1.33398 -8 2.00098 -14c4 -24.667 13 -37 27 -37c20.667 0 35.334 19 44.001 57
c2.66699 11.333 5 20.333 7 27l145 549c9.33301 32.667 23.166 54.5 41.499 65.5s50.5 16.5 96.5 16.5c34.667 0 59.667 -4.33301 75 -13s23 -22.667 23 -42c0 -14 -5.33301 -34.833 -16 -62.5s-17.667 -46.5 -21 -56.5l-205 -713
c-11.333 -38.667 -23.666 -65.334 -36.999 -80.001s-30.333 -22 -51 -22c-1.33301 0 -2 0.666992 -2 2c-1.33301 0 -2 -0.666992 -2 -2l-200 14c-31.333 2 -55 14.667 -71 38s-29.333 67.333 -40 132l-43 243c-2.66699 14.667 -6.33398 26 -11.001 34s-10 12 -16 12
c-15.333 0 -28 -21 -38 -63c-1.33301 -4.66699 -2.33301 -8.33398 -3 -11.001l-100 -370c-6.66699 -24 -15.334 -40 -26.001 -48s-33.667 -12.667 -69 -14l-143 -4h-4c-20 0 -36 6.5 -48 19.5s-23.333 38.5 -34 76.5z" />
    <glyph glyph-name="x" unicode="x" horiz-adv-x="952" 
d="M745 0c-23.333 0 -43.1689 5.16602 -59.502 15.499s-33.166 29.833 -50.499 58.5l-170 266l-158 -260l-2 -4c-35.333 -57.333 -77 -86.666 -125 -87.999l-160 -6c-18 0 -29.667 2 -35 6s-8 11.333 -8 22c0 5.33301 3.66699 13 11 23c2.66699 3.33301 4.66699 6 6 8
l301 424c5.33301 7.33301 9 13.333 11 18s3 9 3 13c0 0.666992 -2.16699 4.16699 -6.5 10.5s-10.166 14.166 -17.499 23.499l-273 351c-4 4.66699 -7 9.83398 -9 15.501s-3 11.167 -3 16.5c0 14 7.16699 26.167 21.5 36.5s31.833 15.5 52.5 15.5h39c58 0 99.167 -2 123.5 -6
s43.833 -11 58.5 -21c12 -8.66699 27.5 -25.667 46.5 -51s38.833 -56 59.5 -92l86 -146l191 258c13.333 18.667 31.5 33.667 54.5 45s46.5 17 70.5 17l119 -2h24c12.667 0 21.334 -1 26.001 -3s7 -5.33301 7 -10c0 -2.66699 -1.33301 -6.33398 -4 -11.001
s-6.66699 -11 -12 -19l-308 -389c-8.66699 -11.333 -14.834 -20 -18.501 -26s-5.5 -10.333 -5.5 -13c0 -5.33301 1 -10.5 3 -15.5s5 -10.167 9 -15.5l143 -203c30 -41.333 65.5 -85.833 106.5 -133.5s61.5 -77.5 61.5 -89.5c0 -15.333 -3.83301 -25.666 -11.5 -30.999
s-26.167 -8 -55.5 -8h-142z" />
    <glyph glyph-name="y" unicode="y" horiz-adv-x="1077" 
d="M737 102c-26 -48 -55.9961 -81.832 -89.9961 -101.499s-80.333 -29.5 -139 -29.5c-166 0 -278.167 41.333 -336.5 124s-87.5 249.667 -87.5 501c0 95.333 2.5 173 7.5 233s11.833 95.333 20.5 106c10 13.333 26.667 23.333 50 30s53.333 10 90 10
c39.333 0 66.5 -5.5 81.5 -16.5s22.5 -30.833 22.5 -59.5c0 -16.667 -4.66699 -76.334 -14 -179.001s-14 -196 -14 -280c0 -107.333 12.167 -188 36.5 -242s61.166 -81 110.499 -81c37.333 0 73.5 13.833 108.5 41.5s67.833 68.5 98.5 122.5
c26.667 46.667 45.667 98.167 57 154.5s17 144.5 17 264.5c0 49.333 -3.33301 102.333 -10 159c-2 16 -3 26 -3 30c0 24 6.16699 40.5 18.5 49.5s37.833 13.5 76.5 13.5c72 0 116.167 -5.5 132.5 -16.5s24.5 -43.5 24.5 -97.5c0 -17.333 -2 -69 -6 -155s-6 -164 -6 -234v-89
c0 -200.667 -4.16699 -352.167 -12.5 -454.5s-21.833 -177.166 -40.5 -224.499c-30.667 -76.667 -76.834 -135.5 -138.501 -176.5s-135.167 -61.5 -220.5 -61.5c-102.667 0 -190.667 36.333 -264 109s-110 155.667 -110 249c0 26 6.66699 43.5 20 52.5
s49.666 13.5 108.999 13.5c62 0 97.667 -17.667 107 -53c2.66699 -11.333 5 -20 7 -26c22 -72.667 43.167 -121.334 63.5 -146.001s46.5 -37 78.5 -37c53.333 0 93.166 27 119.499 81s39.5 136 39.5 246c0 26.667 -1 72 -3 136c0 14.667 -0.333008 26 -1 34z" />
    <glyph glyph-name="z" unicode="z" horiz-adv-x="934" 
d="M78 74c-4 6.66699 -6.99902 14.335 -8.99902 23.002s-3 17.334 -3 26.001c0 12.667 2.33301 24.667 7 36s11.667 22.666 21 33.999l465 554c3.33301 4.66699 5.83301 9 7.5 13s2.5 8 2.5 12c0 6 -3 10.167 -9 12.5s-22.667 3.5 -50 3.5l-342 -4
c-34.667 0 -60 8.66699 -76 26s-24 44.333 -24 81c0 22 8.83301 39.167 26.5 51.5s42.834 18.5 75.501 18.5h31l373 12c48 1.33301 95.833 3.66602 143.5 6.99902s72.167 5 73.5 5c36 0 66.5 -13 91.5 -39s37.5 -56 37.5 -90c0 -16 -6 -33.833 -18 -53.5
s-35.667 -48.834 -71 -87.501l-469 -525l392 -2c44.667 0 74.5 -7.33301 89.5 -22s22.5 -39.334 22.5 -74.001c0 -35.333 -5.66699 -60.166 -17 -74.499s-36.333 -21.5 -75 -21.5h-22l-334 -4c-52.667 -0.666992 -107.834 -6 -165.501 -16s-88.5 -15 -92.5 -15
c-7.33301 0 -14.333 2.83301 -21 8.5s-13.334 15.167 -20.001 28.5z" />
    <glyph glyph-name="braceleft" unicode="{" 
d="M874 1477l0.00390625 -178.998c-5.33301 0 -13.333 0.333008 -24 1s-18.334 1 -23.001 1c-72.667 0 -121.834 -13.833 -147.501 -41.5s-38.5 -85.5 -38.5 -173.5v-241c0 -103.333 -14.667 -176.833 -44 -220.5s-82.333 -74.834 -159 -93.501
c76 -18 128.833 -48.833 158.5 -92.5s44.5 -117.167 44.5 -220.5v-240c0 -88 13.167 -146.167 39.5 -174.5s75.833 -42.5 148.5 -42.5c4.66699 0 12 0.333008 22 1s17.667 1 23 1v-176h-63c-68 0 -123.167 4 -165.5 12s-77.833 20.333 -106.5 37
c-38 22.667 -64.667 54.667 -80 96s-23 109 -23 203v248c0 96 -17.5 163.667 -52.5 203s-94.5 59 -178.5 59c-4.66699 0 -11.834 -0.333008 -21.501 -1s-16.834 -1 -21.501 -1v179c4.66699 0 11.834 -0.5 21.501 -1.5s16.834 -1.5 21.501 -1.5c84 0 143.5 19.667 178.5 59
s52.5 106.666 52.5 201.999v247c0 96.667 7.66699 165.5 23 206.5s42 72.5 80 94.5c29.333 18 65.666 30.833 108.999 38.5s103.666 11.5 180.999 11.5h45z" />
    <glyph glyph-name="bar" unicode="|" 
d="M424 1565h178v-2048h-178v2048z" />
    <glyph glyph-name="braceright" unicode="}" 
d="M152 1477h45.001c76.667 0 136.5 -3.83301 179.5 -11.5s79.167 -20.5 108.5 -38.5c38 -22 64.667 -53.667 80 -95s23 -110 23 -206v-247c0 -96 17.333 -163.5 52 -202.5s94.334 -58.5 179.001 -58.5c4 0 11 0.5 21 1.5s17.333 1.5 22 1.5v-179
c-4.66699 0 -11.834 0.333008 -21.501 1s-16.834 1 -21.501 1c-84 0 -143.5 -19.667 -178.5 -59s-52.5 -107 -52.5 -203v-248c0 -95.333 -7.66699 -163.333 -23 -204s-42 -72.334 -80 -95.001c-28.667 -17.333 -64.667 -29.833 -108 -37.5s-103.333 -11.5 -180 -11.5h-45
v176c5.33301 0 13 -0.333008 23 -1s17.333 -1 22 -1c72.667 0 121.834 14 147.501 42s38.5 86.333 38.5 175v240c0 102 15 175 45 219s83.333 75.333 160 94c-76.667 18.667 -130 49.834 -160 93.501s-45 117.167 -45 220.5v241c0 88 -12.667 145.833 -38 173.5
s-74 41.5 -146 41.5c-4.66699 0 -12.334 -0.333008 -23.001 -1s-18.667 -1 -24 -1v179z" />
    <glyph glyph-name="asciitilde" unicode="~" horiz-adv-x="1706" 
d="M1530 784l-0.000976562 -184.002c-68.667 -47.333 -134.5 -82.666 -197.5 -105.999s-124.167 -35 -183.5 -35c-29.333 0 -60.166 2.83301 -92.499 8.5s-65.166 14.5 -98.499 26.5c-16.667 5.33301 -42 14 -76 26c-141.333 49.333 -247.666 74 -318.999 74
c-54.667 0 -112.667 -12.667 -174 -38s-131.666 -66 -210.999 -122v187c70.667 48 138 83.833 202 107.5s125.667 35.5 185 35.5c41.333 0 83.166 -4 125.499 -12s98.5 -24 168.5 -48c8.66699 -2.66699 22.667 -7.66699 42 -15c109.333 -38.667 192.666 -58 249.999 -58
c56.667 0 115.667 12.333 177 37s128.666 63.334 201.999 116.001z" />
    <glyph glyph-name="Euro" horiz-adv-x="1280" 
d="M778 526c0 -10 -2.16797 -16.833 -6.50098 -20.5s-13.833 -5.5 -28.5 -5.5h-344c6.66699 -135.333 27.667 -234 63 -296s88.333 -93 159 -93c49.333 0 99.5 17.167 150.5 51.5s104.5 87.5 160.5 159.5c18 22.667 35.667 50.667 53 84c20 38 44 57 72 57h121
c17.333 0 30.166 -3.16699 38.499 -9.5s12.5 -16.166 12.5 -29.499c0 -35.333 -18.167 -85.166 -54.5 -149.499s-84.5 -130.5 -144.5 -198.5c-38 -43.333 -79.5 -74.666 -124.5 -93.999s-99.167 -29 -162.5 -29c-198 0 -350.5 45.333 -457.5 136s-169.5 227.667 -187.5 411
h-110c-6 0 -11.333 3.33301 -16 10s-7 15 -7 25v32c0 10 2.66699 17 8 21s15 6 29 6h92v10c0 20.667 0.666992 43.167 2 67.5s3.33301 55.833 6 94.5h-110c-6 0 -11.333 3.33301 -16 10s-7 15 -7 25v33c0 9.33301 2.66699 16 8 20s15 6 29 6h109
c28.667 173.333 82.834 313.666 162.501 420.999s168.834 161 267.501 161c109.333 0 213 -12.833 311 -38.5s165 -56.5 201 -92.5c39.333 -38.667 74 -103.334 104 -194.001s45 -183.667 45 -279c0 -25.333 -5.33301 -44.333 -16 -57s-27 -19.667 -49 -21l-97 -4h-16
c-30.667 0 -50 31 -58 93c-2.66699 22 -5 40 -7 54c-16.667 108.667 -48.667 196 -96 262s-100.666 99 -159.999 99c-58.667 0 -114.5 -37.5 -167.5 -112.5s-91.5 -172.167 -115.5 -291.5h377c6 0 12 -3.5 18 -10.5s9.33301 -14.833 10 -23.5l2 -25v-8
c0 -11.333 -2.16699 -18.666 -6.5 -21.999s-13.5 -5 -27.5 -5h-389c-4 -28.667 -6.83301 -56.834 -8.5 -84.501s-2.5 -54.834 -2.5 -81.501v-6h351c5.33301 0 11.166 -3.66699 17.499 -11s9.83301 -15 10.5 -23l2 -25v-9z" />
    <glyph glyph-name="Euro" unicode="&#x20ac;" horiz-adv-x="1280" 
d="M778 526c0 -10 -2.16797 -16.833 -6.50098 -20.5s-13.833 -5.5 -28.5 -5.5h-344c6.66699 -135.333 27.667 -234 63 -296s88.333 -93 159 -93c49.333 0 99.5 17.167 150.5 51.5s104.5 87.5 160.5 159.5c18 22.667 35.667 50.667 53 84c20 38 44 57 72 57h121
c17.333 0 30.166 -3.16699 38.499 -9.5s12.5 -16.166 12.5 -29.499c0 -35.333 -18.167 -85.166 -54.5 -149.499s-84.5 -130.5 -144.5 -198.5c-38 -43.333 -79.5 -74.666 -124.5 -93.999s-99.167 -29 -162.5 -29c-198 0 -350.5 45.333 -457.5 136s-169.5 227.667 -187.5 411
h-110c-6 0 -11.333 3.33301 -16 10s-7 15 -7 25v32c0 10 2.66699 17 8 21s15 6 29 6h92v10c0 20.667 0.666992 43.167 2 67.5s3.33301 55.833 6 94.5h-110c-6 0 -11.333 3.33301 -16 10s-7 15 -7 25v33c0 9.33301 2.66699 16 8 20s15 6 29 6h109
c28.667 173.333 82.834 313.666 162.501 420.999s168.834 161 267.501 161c109.333 0 213 -12.833 311 -38.5s165 -56.5 201 -92.5c39.333 -38.667 74 -103.334 104 -194.001s45 -183.667 45 -279c0 -25.333 -5.33301 -44.333 -16 -57s-27 -19.667 -49 -21l-97 -4h-16
c-30.667 0 -50 31 -58 93c-2.66699 22 -5 40 -7 54c-16.667 108.667 -48.667 196 -96 262s-100.666 99 -159.999 99c-58.667 0 -114.5 -37.5 -167.5 -112.5s-91.5 -172.167 -115.5 -291.5h377c6 0 12 -3.5 18 -10.5s9.33301 -14.833 10 -23.5l2 -25v-8
c0 -11.333 -2.16699 -18.666 -6.5 -21.999s-13.5 -5 -27.5 -5h-389c-4 -28.667 -6.83301 -56.834 -8.5 -84.501s-2.5 -54.834 -2.5 -81.501v-6h351c5.33301 0 11.166 -3.66699 17.499 -11s9.83301 -15 10.5 -23l2 -25v-9z" />
    <glyph glyph-name="nonbreakingspace" unicode="&#xa0;" horiz-adv-x="1319" 
 />
    <glyph glyph-name="exclamdown" unicode="&#xa1;" horiz-adv-x="688" 
d="M330 1436c54 0 100.499 -15.999 139.499 -47.999s58.5 -71.333 58.5 -118c0 -54.667 -17.667 -100.834 -53 -138.501s-80.333 -56.5 -135 -56.5c-55.333 0 -100.166 15.333 -134.499 46s-51.5 70 -51.5 118c0 49.333 18.5 94.5 55.5 135.5s77.167 61.5 120.5 61.5z
M470.999 922.001l54.999 -911.999v-4c0 -14.667 -4.5 -25.5 -13.5 -32.5s-23.5 -10.5 -43.5 -10.5h-236c-12.667 0 -22.5 3.16699 -29.5 9.5s-10.5 14.833 -10.5 25.5c0 7.33301 2 30.666 6 69.999c30 256 45 512.667 45 770c0 20.667 -0.333008 42.167 -1 64.5
s-1 34.166 -1 35.499c0 22.667 2.33301 37.834 7 45.501s12.334 11.5 23.001 11.5l160 4h4c20 0 31.333 -19.333 34 -58c0 -8 0.333008 -14.333 1 -19z" />
    <glyph glyph-name="cent" unicode="&#xa2;" horiz-adv-x="858" 
d="M377 340c-96 18.667 -168.499 57.498 -217.499 116.498s-73.5 136.833 -73.5 233.5s25.833 176.167 77.5 238.5s117.167 93.5 196.5 93.5h17l6 145c1.33301 19.333 8.16602 31.666 20.499 36.999s36.833 8 73.5 8c38.667 0 58.334 -13 59.001 -39
c0 -4 0.333008 -7.33301 1 -10l8 -172c61.333 -9.33301 107.666 -33.666 138.999 -72.999s47 -92.666 47 -159.999c0 -11.333 -5.83301 -19.333 -17.5 -24s-36.5 -7 -74.5 -7c-30 0 -49.667 3.66699 -59 11s-17 23.333 -23 48c-10 44.667 -23.167 73.334 -39.5 86.001
s-40.833 19 -73.5 19c-48 0 -84.5 -21 -109.5 -63s-37.5 -103.667 -37.5 -185c0 -62 12.5 -109.5 37.5 -142.5s60.833 -49.5 107.5 -49.5c24.667 0 47.834 6 69.501 18s38.834 28.333 51.501 49c6.66699 11.333 14 25.333 22 42c11.333 24 26.666 36 45.999 36l106 -2
c10 0 17.667 -2.5 23 -7.5s8 -12.167 8 -21.5c0 -32 -22.5 -73.167 -67.5 -123.5s-94.833 -82.833 -149.5 -97.5l-10 -137c-0.666992 -3.33301 -1 -8 -1 -14c-2.66699 -44 -28.334 -66 -77.001 -66c-25.333 0 -45 3 -59 9s-21 14.667 -21 26v39z" />
    <glyph glyph-name="sterling" unicode="&#xa3;" horiz-adv-x="1313" 
d="M588 754l195.997 1.99707c23.333 0 39.833 -10.333 49.5 -31s14.5 -57.667 14.5 -111c0 -38.667 -6 -64.667 -18 -78s-44.333 -20 -97 -20h-10c-30.667 0 -62.834 0.666992 -96.501 2s-52.167 2 -55.5 2c-22 0 -35 -12.667 -39 -38
c-0.666992 -3.33301 -1.33398 -6.33301 -2.00098 -9c-9.33301 -57.333 -29 -111.666 -59 -162.999c-8 -14.667 -12 -23.667 -12 -27c0 -18.667 6.33301 -32 19 -40s34.334 -12 65.001 -12l557 7c39.333 0 67.5 -8.33301 84.5 -25s25.5 -44.667 25.5 -84
c0 -58.667 -6.33301 -97.5 -19 -116.5s-35 -28.5 -67 -28.5c-2 0 -9.66699 0.666992 -23 2c-116.667 12 -246.667 18 -390 18l-537 -2h-14c-41.333 0 -67.333 7.33301 -78 22s-16 41.334 -16 80.001c0 92 26 140.667 78 146c11.333 1.33301 20 2.66602 26 3.99902
c30.667 7.33301 53.167 30.333 67.5 69s22.5 99.334 24.5 182.001l-106 1c-16 0 -27.5 2.16699 -34.5 6.5s-10.5 10.833 -10.5 19.5v7l20 145c4.66699 27.333 13.334 45.5 26.001 54.5s35.334 13.5 68.001 13.5c42.667 0 65 27.667 67 83
c1.33301 43.333 3.66602 82 6.99902 116c15.333 147.333 56.333 261.5 123 342.5s153.334 121.5 260.001 121.5c100 0 193.5 -12.5 280.5 -37.5s145.833 -55.5 176.5 -91.5c11.333 -13.333 21.833 -31.5 31.5 -54.5s18.834 -51.833 27.501 -86.5
c11.333 -46.667 20.333 -89.667 27 -129s10 -66 10 -80c0 -38 -11.667 -65.667 -35 -83s-61 -26 -113 -26c-44 0 -74.333 4.83301 -91 14.5s-25 34.167 -25 73.5v7c0 92.667 -17.667 165 -53 217s-84.666 78 -147.999 78c-37.333 0 -70.666 -10.5 -99.999 -31.5
s-51.333 -50.167 -66 -87.5c-12.667 -34.667 -22 -80 -28 -136c0 -2.66699 -0.333008 -4.66699 -1 -6c-2 -23.333 -5.83301 -53.5 -11.5 -90.5s-8.5 -61.167 -8.5 -72.5c0 -9.33301 3.66699 -18.166 11 -26.499s14.666 -12.5 21.999 -12.5z" />
    <glyph glyph-name="currency" unicode="&#xa4;" horiz-adv-x="1280" 
d="M778 526c0 -10 -2.16797 -16.833 -6.50098 -20.5s-13.833 -5.5 -28.5 -5.5h-344c6.66699 -135.333 27.667 -234 63 -296s88.333 -93 159 -93c49.333 0 99.5 17.167 150.5 51.5s104.5 87.5 160.5 159.5c18 22.667 35.667 50.667 53 84c20 38 44 57 72 57h121
c17.333 0 30.166 -3.16699 38.499 -9.5s12.5 -16.166 12.5 -29.499c0 -35.333 -18.167 -85.166 -54.5 -149.499s-84.5 -130.5 -144.5 -198.5c-38 -43.333 -79.5 -74.666 -124.5 -93.999s-99.167 -29 -162.5 -29c-198 0 -350.5 45.333 -457.5 136s-169.5 227.667 -187.5 411
h-110c-6 0 -11.333 3.33301 -16 10s-7 15 -7 25v32c0 10 2.66699 17 8 21s15 6 29 6h92v10c0 20.667 0.666992 43.167 2 67.5s3.33301 55.833 6 94.5h-110c-6 0 -11.333 3.33301 -16 10s-7 15 -7 25v33c0 9.33301 2.66699 16 8 20s15 6 29 6h109
c28.667 173.333 82.834 313.666 162.501 420.999s168.834 161 267.501 161c109.333 0 213 -12.833 311 -38.5s165 -56.5 201 -92.5c39.333 -38.667 74 -103.334 104 -194.001s45 -183.667 45 -279c0 -25.333 -5.33301 -44.333 -16 -57s-27 -19.667 -49 -21l-97 -4h-16
c-30.667 0 -50 31 -58 93c-2.66699 22 -5 40 -7 54c-16.667 108.667 -48.667 196 -96 262s-100.666 99 -159.999 99c-58.667 0 -114.5 -37.5 -167.5 -112.5s-91.5 -172.167 -115.5 -291.5h377c6 0 12 -3.5 18 -10.5s9.33301 -14.833 10 -23.5l2 -25v-8
c0 -11.333 -2.16699 -18.666 -6.5 -21.999s-13.5 -5 -27.5 -5h-389c-4 -28.667 -6.83301 -56.834 -8.5 -84.501s-2.5 -54.834 -2.5 -81.501v-6h351c5.33301 0 11.166 -3.66699 17.499 -11s9.83301 -15 10.5 -23l2 -25v-9z" />
    <glyph glyph-name="yen" unicode="&#xa5;" horiz-adv-x="1280" 
d="M518 51l4.00098 434c0 22 -1.66699 41.667 -5 59s-8.33301 34 -15 50h-410c-6 0 -11.167 3.33301 -15.5 10s-6.5 15 -6.5 25v33c0 10 2.5 16.833 7.5 20.5s14.5 5.5 28.5 5.5h336l-110 172h-238c-5.33301 0 -10.666 3.33301 -15.999 10s-8 14.334 -8 23.001v6l4 25
c0 2 0.333008 5 1 9c2 14 11 21 27 21h174l-249 391c-4 6 -7.16699 11.833 -9.5 17.5s-3.5 10.167 -3.5 13.5c0 10.667 16 19.167 48 25.5s74.667 9.5 128 9.5c49.333 0 85.666 -17.333 108.999 -52l2 -3l334 -514l264 499c11.333 22.667 21.5 36.667 30.5 42
s22.167 8.66602 39.5 9.99902l221 8c6.66699 0 13.167 -2.83301 19.5 -8.5s9.5 -11.167 9.5 -16.5c-0.666992 -3.33301 -2.5 -8.66602 -5.5 -15.999s-6.83301 -15 -11.5 -23l-219 -383h178c20 0 31.333 -8.66699 34 -26c0.666992 -2.66699 1 -4.66699 1 -6l4 -27v-4
c0 -8.66699 -2.33301 -16 -7 -22s-10.334 -9 -17.001 -9h-242l-103 -172h338c6 0 12 -3.33301 18 -10s9.66699 -14.667 11 -24l2 -25v-8c0 -10.667 -2.33301 -17.834 -7 -21.501s-14 -5.5 -28 -5.5l-381 -1c-3.33301 -8 -5.83301 -16.333 -7.5 -25s-2.5 -19.667 -2.5 -33
l-2 -461c0 -40 -8.5 -64.333 -25.5 -73s-61.833 -13 -134.5 -13c-35.333 0 -59.833 4.5 -73.5 13.5s-20.5 25.5 -20.5 49.5z" />
    <glyph glyph-name="brokenbar" unicode="&#xa6;" 
d="M424 408h178v-758h-178v758zM424 1432h178v-758h-178v758z" />
    <glyph glyph-name="section" unicode="&#xa7;" 
d="M432 748c-58.667 -37.333 -100.666 -72.168 -125.999 -104.501s-38 -67.166 -38 -104.499c0 -34.667 9.5 -67.5 28.5 -98.5s45.833 -57.833 80.5 -80.5l176 -114c67.333 24.667 117 54.5 149 89.5s48 76.833 48 125.5c0 27.333 -10.833 54.833 -32.5 82.5
s-53.834 55.5 -96.501 83.5zM664.001 169.998c78.667 -50 135.501 -100.507 170.501 -151.507s52.5 -109.167 52.5 -174.5c0 -102 -36.667 -183.833 -110 -245.5s-172 -92.5 -296 -92.5c-113.333 0 -204.5 28.667 -273.5 86s-103.5 132 -103.5 224c0 36 10 60.333 30 73
s55.333 19 106 19c35.333 0 61.333 -6.33301 78 -19s28 -35 34 -67c14 -75.333 34.167 -127 60.5 -155s63.5 -42 111.5 -42c56.667 0 102 14.833 136 44.5s51 68.834 51 117.501c0 68 -52.667 133.667 -158 197l-57 36l-271 185c-52.667 35.333 -93.5 77 -122.5 125
s-43.5 97.667 -43.5 149c0 68.667 22.833 131.167 68.5 187.5s113.167 105.833 202.5 148.5c-66.667 43.333 -115.5 89 -146.5 137s-46.5 101.333 -46.5 160c0 96.667 37.167 175.834 111.5 237.501s171.166 92.5 290.499 92.5c105.333 0 192.666 -30 261.999 -90
s104 -134.667 104 -224c0 -33.333 -9.83301 -55.666 -29.5 -66.999s-58.167 -17 -115.5 -17c-29.333 0 -51.666 5.5 -66.999 16.5s-23 26.833 -23 47.5c0 8.66699 1 21.334 3 38.001s3 28.667 3 36c0 42.667 -15.833 76.834 -47.5 102.501s-73.167 38.5 -124.5 38.5
c-57.333 0 -104.166 -15 -140.499 -45s-54.5 -68.333 -54.5 -115c0 -38.667 13.333 -73.167 40 -103.5s81 -68.166 163 -113.499l199 -108c85.333 -48 145.833 -97.167 181.5 -147.5s53.5 -111.833 53.5 -184.5c0 -70 -22.833 -132.167 -68.5 -186.5
s-116.834 -104.166 -213.501 -149.499z" />
    <glyph glyph-name="dieresis" unicode="&#xa8;" 
d="M573 1225c0 32 12 59.667 36 83s52.333 35 85 35s60.667 -11.5 84 -34.5s35 -50.833 35 -83.5c0 -36 -11.167 -65.5 -33.5 -88.5s-50.833 -34.5 -85.5 -34.5c-33.333 0 -61.833 12 -85.5 36s-35.5 53 -35.5 87zM209 1225c0 32 12 59.667 36 83s52.333 35 85 35
s60.667 -11.5 84 -34.5s35 -50.833 35 -83.5c0 -36 -11.167 -65.5 -33.5 -88.5s-50.833 -34.5 -85.5 -34.5c-34 0 -62.667 12 -86 36s-35 53 -35 87z" />
    <glyph glyph-name="copyright" unicode="&#xa9;" horiz-adv-x="1706" 
d="M1206 903h-166.001c-6.66699 49.333 -26.667 87.333 -60 114s-76.666 40 -129.999 40c-66 0 -117.667 -28.833 -155 -86.5s-56 -137.5 -56 -239.5c0 -101.333 19.167 -179.5 57.5 -234.5s92.833 -82.5 163.5 -82.5c53.333 0 96.333 14.5 129 43.5s52.667 70.5 60 124.5
h165c-4.66699 -90 -40.167 -162.333 -106.5 -217s-150.833 -82 -253.5 -82c-122 0 -218.667 39.667 -290 119s-107 187 -107 323c0 138.667 36.5 249.167 109.5 331.5s170.167 123.5 291.5 123.5c98 0 179 -25.667 243 -77s99 -118 105 -200zM853.999 1362
c-86.667 0 -167.667 -15.5 -243 -46.5s-142.333 -76.167 -201 -135.5c-60 -61.333 -106.167 -130.666 -138.5 -207.999s-48.5 -157.666 -48.5 -240.999c0 -84 16 -164 48 -240s78.333 -144 139 -204c60 -60.667 128.167 -107 204.5 -139s156.166 -48 239.499 -48
s163.333 16.167 240 48.5s146.334 79.166 209.001 140.499c59.333 58.667 104.5 125.5 135.5 200.5s46.5 155.5 46.5 241.5s-15.667 167.167 -47 243.5s-76.333 144.166 -135 203.499c-60.667 60 -129 105.667 -205 137s-157.333 47 -244 47zM851.999 1470
c101.333 0 196.664 -18.335 285.997 -55.002s169.333 -90.667 240 -162c70 -70 123.333 -149.5 160 -238.5s55 -183.5 55 -283.5c0 -102 -18.167 -197.333 -54.5 -286s-89.166 -166.667 -158.499 -234c-72 -71.333 -153.5 -126 -244.5 -164s-185.5 -57 -283.5 -57
c-97.333 0 -190.666 18.833 -279.999 56.5s-169.333 91.834 -240 162.501c-71.333 70.667 -125.666 150.834 -162.999 240.501s-56 183.5 -56 281.5c0 96.667 19 190.167 57 280.5s92.667 171.5 164 243.5c70 71.333 148.5 125 235.5 161s181.167 54 282.5 54z" />
    <glyph glyph-name="ordfeminine" unicode="&#xaa;" horiz-adv-x="739" 
d="M664 1087v-194c0 -34 1 -66.333 3 -97c0.666992 -5.33301 1 -8.66602 1 -9.99902c0 -14 -8.16699 -23.5 -24.5 -28.5s-51.833 -7.5 -106.5 -7.5l-45 43c-4 3.33301 -7.5 5.83301 -10.5 7.5s-5.83301 2.5 -8.5 2.5c-1.33301 0 -5.33301 -2 -12 -6
c-45.333 -27.333 -99.333 -41 -162 -41c-76 0 -137.667 17.833 -185 53.5s-71 81.834 -71 138.501c0 57.333 26 103.666 78 138.999s125 56 219 62l118 8c16.667 1.33301 27.167 6.16602 31.5 14.499s6.5 31.5 6.5 69.5c0 42 -8.33301 74.667 -25 98s-39.334 35 -68.001 35
c-26.667 0 -52.667 -12 -78 -36s-46.333 -56.333 -63 -97c-2 -5.33301 -4.33301 -12 -7 -20c-13.333 -38.667 -32.666 -58 -57.999 -58c-53.333 0 -90 3 -110 9s-30 16.667 -30 32c0 8 6 23.333 18 46c6 10 10.333 18 13 24l7 17c14.667 37.333 30.667 66.333 48 87
c22.667 28.667 48.667 49.5 78 62.5s64.333 19.5 105 19.5c56 0 109 -6.16699 159 -18.5s88.333 -28.5 115 -48.5c23.333 -19.333 39.833 -44 49.5 -74s14.5 -78.333 14.5 -145v-87zM483 1020c0 20 -1.66699 34.5 -5 43.5s-8.33301 13.5 -15 13.5
c-58 0 -112.833 -18.5 -164.5 -55.5s-77.5 -78.5 -77.5 -124.5c0 -17.333 5.5 -30.5 16.5 -39.5s27.5 -13.5 49.5 -13.5c48.667 0 93.5 17 134.5 51s61.5 75.667 61.5 125z" />
    <glyph glyph-name="guillemotleft" unicode="&#xab;" horiz-adv-x="938" 
d="M843 675l-143 -159c-10.667 -11.333 -17.334 -19.166 -20.001 -23.499s-4 -8.83301 -4 -13.5c0 -4 1 -8.33301 3 -13s5 -9.66699 9 -15l133 -139c2.66699 -3.33301 7 -7.33301 13 -12c17.333 -14.667 26 -29.334 26 -44.001c0 -11.333 -12.333 -28.5 -37 -51.5
s-45 -34.5 -61 -34.5c-10 0 -19.333 2.16699 -28 6.5s-17 11.166 -25 20.499l-203 221c-8 7.33301 -13.833 16.5 -17.5 27.5s-5.5 23.5 -5.5 37.5s2.66699 27.833 8 41.5s13 25.834 23 36.501l195 213c11.333 12.667 21.833 21.667 31.5 27s20.167 8 31.5 8
c18.667 0 38.334 -11 59.001 -33s31 -42.333 31 -61c0 -6 -1.5 -12.167 -4.5 -18.5s-7.83301 -13.5 -14.5 -21.5zM444 676l-142.999 -159.999c-11.333 -11.333 -18.333 -19.166 -21 -23.499s-4 -8.83301 -4 -13.5c0 -4 1 -8.33301 3 -13s5.33301 -9.66699 10 -15l133 -140
c2.66699 -2.66699 6.66699 -6.33398 12 -11.001c18 -14.667 27 -29.334 27 -44.001c0 -11.333 -12.333 -28.5 -37 -51.5s-45.334 -34.5 -62.001 -34.5c-10 0 -19.167 2.16699 -27.5 6.5s-16.833 11.166 -25.5 20.499l-203 221c-7.33301 7.33301 -12.833 16.5 -16.5 27.5
s-5.5 23.5 -5.5 37.5s2.66699 27.833 8 41.5s13 25.834 23 36.501l194 213c11.333 12.667 22 21.667 32 27s20.667 8 32 8c18.667 0 38.667 -11 60 -33s32 -42.333 32 -61c0 -5.33301 -1.5 -11 -4.5 -17s-8.5 -13.333 -16.5 -22z" />
    <glyph glyph-name="logicalnot" unicode="&#xac;" horiz-adv-x="1706" 
d="M254 862h1198v-502h-166v336h-1032v166z" />
    <glyph glyph-name="sfthyphen" unicode="&#xad;" horiz-adv-x="815" 
d="M156 391c-19.333 1.33301 -32.501 5.5 -39.501 12.5s-10.5 19.167 -10.5 36.5l3 123c0 12.667 3.66699 21.667 11 27s23.333 8 48 8l487 -4c16.667 0 29.834 -4.5 39.501 -13.5s14.5 -21.5 14.5 -37.5l2 -101c0 -25.333 -3.66699 -42.5 -11 -51.5
s-19.333 -13.5 -36 -13.5h-5z" />
    <glyph glyph-name="registered" unicode="&#xae;" horiz-adv-x="1706" 
d="M729 1047l-0.000976562 -261h117c66.667 0 115.334 10.167 146.001 30.5s46 52.5 46 96.5c0 46 -16 79.833 -48 101.5s-82.667 32.5 -152 32.5h-109zM550.999 1159l319.001 0.00195312c115.333 0 202.666 -19 261.999 -57s89 -94 89 -168
c0 -60.667 -16 -110.834 -48 -150.501s-77.667 -65.834 -137 -78.501l185 -375h-199l-164 346h-129v-346h-178v829zM854 1362c-86 0 -166.001 -15.168 -240.001 -45.501s-140.667 -75.166 -200 -134.499c-61.333 -62.667 -108.5 -132.667 -141.5 -210
s-49.5 -157.666 -49.5 -240.999s15.667 -162.833 47 -238.5s76.666 -143.5 135.999 -203.5c60 -60.667 128 -107.334 204 -140.001s154 -49 234 -49c86.667 0 168.834 15.667 246.501 47s147.5 77.333 209.5 138c59.333 57.333 105 123.5 137 198.5s48 154.167 48 237.5
c0 88.667 -15.167 171.167 -45.5 247.5s-75.166 144.833 -134.499 205.5c-62 61.333 -131.167 108 -207.5 140s-157.5 48 -243.5 48zM851.999 1470c102 0 198.167 -18.6689 288.5 -56.002s170.833 -92.333 241.5 -165c68.667 -69.333 121 -148.166 157 -236.499
s54 -182.166 54 -281.499c0 -102 -18.5 -197.667 -55.5 -287s-90.833 -168.333 -161.5 -237c-72 -70 -153 -123.667 -243 -161s-183.667 -56 -281 -56c-98 0 -192.167 19.167 -282.5 57.5s-170.833 93.5 -241.5 165.5c-70 70.667 -123.333 150.334 -160 239.001
s-55 181.667 -55 279c0 98 19.167 192.667 57.5 284s93.5 173 165.5 245c69.333 69.333 147.5 121.666 234.5 156.999s180.833 53 281.5 53z" />
    <glyph glyph-name="macron" unicode="&#xaf;" 
d="M236 1149v147h552v-147h-552z" />
    <glyph glyph-name="degree" unicode="&#xb0;" horiz-adv-x="674" 
d="M338 1350c-51.333 0 -95.166 -17.998 -131.499 -53.998s-54.5 -79.667 -54.5 -131c0 -50.667 18.167 -94.334 54.5 -131.001s80.166 -55 131.499 -55s94.833 18.167 130.5 54.5s53.5 80.166 53.5 131.499s-17.833 95 -53.5 131s-79.167 54 -130.5 54zM338 1460
c80.667 0 150 -28.999 208 -86.999s87 -128 87 -210c0 -80.667 -29 -150 -87 -208s-128 -87 -210 -87s-151.333 28.5 -208 85.5s-85 126.833 -85 209.5c0 83.333 28.667 153.666 86 210.999s127 86 209 86z" />
    <glyph glyph-name="plusminus" unicode="&#xb1;" horiz-adv-x="1706" 
d="M254 182h1198v-168h-1198v168zM768 1206h170v-334h514v-165h-514v-334h-170v334h-514v165h514v334z" />
    <glyph glyph-name="twosuperior" unicode="&#xb2;" horiz-adv-x="823" 
d="M449 705l313.003 -14.999c14 -0.666992 23.167 -3.83398 27.5 -9.50098s6.83301 -18.834 7.5 -39.501c0 -32 -5 -54.667 -15 -68s-27.667 -20 -53 -20h-59h-142h-92c-64 0 -131.5 -2.66699 -202.5 -8s-109.833 -8 -116.5 -8c-20.667 0 -34.334 5.16699 -41.001 15.5
s-10 30.166 -10 59.499c0 15.333 1.83301 26.833 5.5 34.5s10.167 14.167 19.5 19.5c0.666992 0.666992 7.66699 4 21 10c57.333 24.667 112 52 164 82c40.667 22 78 48.333 112 79s64.333 65 91 103c35.333 50 62.333 96.333 81 139s28 79 28 109
c0 34 -11.833 61.667 -35.5 83s-54.834 32 -93.501 32c-54.667 0 -101.667 -21 -141 -63s-73 -107.333 -101 -196c-4 -11.333 -7.33301 -27.333 -10 -48c-6.66699 -44 -33.334 -66 -80.001 -66c-29.333 0 -49.666 3.33301 -60.999 10s-17 19 -17 37
c0 37.333 5.16699 76.333 15.5 117s25.833 82.334 46.5 125.001c35.333 76.667 74.666 129.5 117.999 158.5s102.333 43.5 177 43.5c120 0 213 -19.667 279 -59s99 -95.333 99 -168c0 -70 -28.667 -146.667 -86 -230s-140.333 -169.666 -249 -258.999z" />
    <glyph glyph-name="threesuperior" unicode="&#xb3;" horiz-adv-x="852" 
d="M633 961c52 -13.333 92.332 -35.3311 120.999 -65.998s43 -67 43 -109c0 -72.667 -35.833 -134.167 -107.5 -184.5s-160.834 -75.5 -267.501 -75.5c-104.667 0 -194.334 28.167 -269.001 84.5s-112 121.833 -112 196.5c0 24 6.33301 39.5 19 46.5s39.667 10.5 81 10.5
c30.667 0 52.334 -3 65.001 -9s19 -16.667 19 -32v-14c0 -52.667 14.5 -95.834 43.5 -129.501s65.833 -50.5 110.5 -50.5c46.667 0 94.167 19.5 142.5 58.5s72.5 76.167 72.5 111.5c0 21.333 -13.5 38.5 -40.5 51.5s-65.833 20.833 -116.5 23.5
c-5.33301 0.666992 -12.666 1.33398 -21.999 2.00098c-44.667 3.33301 -67 26.666 -67 69.999c0 13.333 16 25.666 48 36.999c18.667 7.33301 33.334 13.333 44.001 18c52.667 26 96 60.167 130 102.5s51 80.833 51 115.5c0 28 -8.66699 50 -26 66s-41.666 24 -72.999 24
c-48 0 -93.5 -14.667 -136.5 -44s-84.833 -74.333 -125.5 -135c-6 -8.66699 -13 -22 -21 -40c-14.667 -33.333 -32.334 -50 -53.001 -50c-44.667 0 -76.667 3.33301 -96 10s-29 17.667 -29 33c0 5.33301 4.33301 18.666 13 39.999l14 38
c12.667 34.667 25.667 64.334 39 89.001s28.333 47 45 67c29.333 36 62.5 62.667 99.5 80s79.5 26 127.5 26c125.333 0 227.333 -21.333 306 -64s118 -98.334 118 -167.001c0 -43.333 -15.333 -83.666 -46 -120.999s-78.667 -74 -144 -110z" />
    <glyph glyph-name="acute" unicode="&#xb4;" 
d="M317 1061l272.999 280c28 29.333 52.5 50.333 73.5 63s41.5 19 61.5 19c26.667 0 48.334 -8.33301 65.001 -25s25 -38.334 25 -65.001c0 -21.333 -6.33301 -39.666 -19 -54.999s-37.667 -33 -75 -53l-313 -164h-91z" />
    <glyph glyph-name="mu" unicode="&#xb5;" horiz-adv-x="1208" 
d="M205 1081h228.999l-125 -635c-4 -19.333 -7 -37.666 -9 -54.999s-3 -33.666 -3 -48.999c0 -64 15.5 -112.833 46.5 -146.5s76.167 -50.5 135.5 -50.5c81.333 0 145.833 29.5 193.5 88.5s84.834 156.5 111.501 292.5l109 555h225l-145 -739
c-6.66699 -32.667 -11.5 -59.834 -14.5 -81.501s-4.5 -38.834 -4.5 -51.501c0 -24 5.16699 -41 15.5 -51s27.833 -15 52.5 -15c8.66699 0 15.5 0.166992 20.5 0.5s9.5 0.833008 13.5 1.5l-32 -159c-21.333 -6 -44.166 -10.333 -68.499 -13s-51.5 -4 -81.5 -4
c-49.333 0 -86.5 10.5 -111.5 31.5s-37.5 52.167 -37.5 93.5v15c-27.333 -44.667 -63.333 -79.5 -108 -104.5s-93.334 -37.5 -146.001 -37.5c-54 0 -99.833 8.66699 -137.5 26s-70.167 45 -97.5 83l-99 -506h-229z" />
    <glyph glyph-name="paragraph" unicode="&#xb6;" 
d="M969 1479v-99h-117v-1380h-129v1380h-168v-1380h-131v784c-112 4 -201.5 37.667 -268.5 101s-100.5 145 -100.5 245c0 105.333 35.667 189.833 107 253.5s166 95.5 284 95.5h523z" />
    <glyph glyph-name="periodcentered" unicode="&#xb7;" horiz-adv-x="639" 
d="M139 686c0 52 19.5 95.667 58.5 131s86.5 53 142.5 53c48 0 87 -15.167 117 -45.5s45 -69.5 45 -117.5c0 -50.667 -18.333 -92.5 -55 -125.5s-83.334 -49.5 -140.001 -49.5c-49.333 0 -89.666 14.5 -120.999 43.5s-47 65.833 -47 110.5z" />
    <glyph glyph-name="cedilla" unicode="&#xb8;" 
d="M262 -375l40.998 87.999c52 -28 96.5 -47.167 133.5 -57.5s75.167 -15.5 114.5 -15.5c26 0 46.833 7.33301 62.5 22s23.5 34.334 23.5 59.001c0 28.667 -8.66699 50.167 -26 64.5s-43.666 21.5 -78.999 21.5c-9.33301 0 -18.666 -0.5 -27.999 -1.5s-19 -2.16699 -29 -3.5
v198h70v-112l42.5 3.5l30.5 2.5c53.333 0 96.5 -15.667 129.5 -47s49.5 -72.333 49.5 -123c0 -56.667 -20.167 -101 -60.5 -133s-96.833 -48 -169.5 -48c-36 0 -76 5.66699 -120 17s-105.667 33 -185 65z" />
    <glyph glyph-name="onesuperior" unicode="&#xb9;" horiz-adv-x="436" 
d="M147 602l-10.002 617c0 10 -2 17.5 -6 22.5s-11.333 9.5 -22 13.5l-39 13c-11.333 4 -19.666 11 -24.999 21s-8 22.667 -8 38c0 16 4.16699 26.833 12.5 32.5s25.833 11.167 52.5 16.5l195 33c1.33301 0 3 0.333008 5 1l3 1c10.667 0 19.834 -3.83301 27.501 -11.5
s11.5 -16.834 11.5 -27.501v-3c-1.33301 -9.33301 -2 -17 -2 -23v-6c-1.33301 -12 -2 -23 -2 -33l-6 -106c-2 -31.333 -3.5 -64.666 -4.5 -99.999s-1.5 -74 -1.5 -116c0 -36 0.333008 -72 1 -108s1.66699 -73.667 3 -113l6 -160v-6c0 -14 -3.16699 -24 -9.5 -30
s-16.833 -9 -31.5 -9h-102c-19.333 0 -32 2.83301 -38 8.5s-9.33301 17.167 -10 34.5z" />
    <glyph glyph-name="ordmasculine" unicode="&#xba;" horiz-adv-x="815" 
d="M428 1368c-53.333 0 -96 -26.168 -128 -78.501s-48 -123.166 -48 -212.499c0 -76 12 -134.167 36 -174.5s58.333 -60.5 103 -60.5c54.667 0 100.167 25.167 136.5 75.5s54.5 114.5 54.5 192.5s-14.167 140.5 -42.5 187.5s-65.5 70.5 -111.5 70.5zM43 1118
c0 104.667 25.667 188.499 77 251.499s119.333 94.5 204 94.5c45.333 0 97.5 -7.16699 156.5 -21.5s108.5 -32.166 148.5 -53.499c52 -27.333 88.833 -61.166 110.5 -101.499s32.5 -97.5 32.5 -171.5c0 -116 -29.667 -204.667 -89 -266s-145 -92 -257 -92
c-116 0 -208.833 32.667 -278.5 98s-104.5 152.666 -104.5 261.999z" />
    <glyph glyph-name="guillemotright" unicode="&#xbb;" horiz-adv-x="938" 
d="M512 676c-7.33301 8.66699 -12.499 15.998 -15.499 21.998s-4.5 11.667 -4.5 17c0 18.667 10.5 39 31.5 61s41.167 33 60.5 33c11.333 0 21.833 -2.66699 31.5 -8s20.167 -14.333 31.5 -27l195 -213c9.33301 -10.667 16.666 -22.834 21.999 -36.501s8 -27.5 8 -41.5
s-1.83301 -26.5 -5.5 -37.5s-9.16699 -20.167 -16.5 -27.5l-203 -221c-8 -9.33301 -16.333 -16.166 -25 -20.499s-18 -6.5 -28 -6.5c-16 0 -36.333 11.5 -61 34.5s-37 40.167 -37 51.5c0 14.667 8.66699 29.334 26 44.001c6 4.66699 10.333 8.66699 13 12l133 139
c3.33301 4.66699 5.83301 9.33398 7.5 14.001s2.5 9.33398 2.5 14.001s-1.33301 9.16699 -4 13.5s-9.66699 12.166 -21 23.499zM113.001 674.998c-6 7.33301 -10.667 14.332 -14 20.999s-5 13 -5 19c0 18.667 10.667 39 32 61s41.333 33 60 33c11.333 0 21.5 -2.5 30.5 -7.5
s19.5 -14.167 31.5 -27.5l194 -213c10 -10.667 17.667 -22.834 23 -36.501s8 -27.5 8 -41.5s-1.83301 -26.5 -5.5 -37.5s-9.16699 -20.167 -16.5 -27.5l-203 -221c-8 -9.33301 -16.333 -16.166 -25 -20.499s-18 -6.5 -28 -6.5c-16 0 -36.5 11.5 -61.5 34.5
s-37.5 40.167 -37.5 51.5c0 14.667 9 29.334 27 44.001c5.33301 4.66699 9.33301 8.33398 12 11.001l133 140c4.66699 5.33301 8 10.333 10 15s3 9 3 13c0 4.66699 -1.33301 9.16699 -4 13.5s-9.66699 12.166 -21 23.499z" />
    <glyph glyph-name="onequarter" unicode="&#xbc;" horiz-adv-x="1546" 
d="M1397 25c0 -19.333 -3.83203 -31.6641 -11.499 -36.9971s-20.834 -8 -39.501 -8h-29c-40 0 -64.333 2 -73 6s-13 13.333 -13 28v125c0 9.33301 -1.83301 15.166 -5.5 17.499s-11.5 3.5 -23.5 3.5l-366 -2c-26.667 0 -45 5.66699 -55 17s-15 30.666 -15 57.999
c0 29.333 84.333 146.333 253 351l42 51l23 27c64 76.667 102.333 118.334 115 125.001c8 2.66699 27 5 57 7s64.667 3 104 3c20 -0.666992 34.167 -3.83398 42.5 -9.50098s12.5 -15.5 12.5 -29.5c0 -3.33301 -0.666992 -9.5 -2 -18.5s-2 -16.5 -2 -22.5v-406
c0 -9.33301 2.16699 -16.333 6.5 -21s11.166 -7 20.499 -7h69c8 0 15.167 -3.16699 21.5 -9.5s9.5 -13.5 9.5 -21.5l-2 -49c-1.33301 -14.667 -4.66602 -24.834 -9.99902 -30.501s-14.333 -8.5 -27 -8.5h-86c-6 0 -10.167 -1.5 -12.5 -4.5s-3.5 -9.16699 -3.5 -18.5v-116z
M1245 283.002l-6.00098 366.001c-78.667 -89.333 -142 -166.833 -190 -232.5s-72 -106.834 -72 -123.501c0 -3.33301 2.33301 -5.83301 7 -7.5s10.334 -2.5 17.001 -2.5h244zM952 1390c2.66699 4.66699 7.5 8.33301 14.5 11s15.167 4 24.5 4
c15.333 0 36.666 -8.33301 63.999 -25s41 -32.334 41 -47.001c0 -5.33301 -1 -11 -3 -17s-4.66699 -11.333 -8 -16l-864 -1325c-2 -4 -6.66699 -7.33301 -14 -10s-15.666 -4 -24.999 -4c-15.333 0 -36.833 8.33301 -64.5 25s-41.5 32.334 -41.5 47.001c0 4 1 8.5 3 13.5
s5 10.5 9 16.5zM141 655.002l-9.99902 574c0 10 -2 17.5 -6 22.5s-11 9.16699 -21 12.5l-36 12c-10.667 4 -18.5 10.5 -23.5 19.5s-7.5 20.833 -7.5 35.5c0 15.333 3.66699 25.5 11 30.5s23.333 9.83301 48 14.5l189 33h6c10.667 0 19.5 -3.33301 26.5 -10
s10.5 -15 10.5 -25c0 -0.666992 -0.333008 -3.83398 -1 -9.50098s-1 -11.167 -1 -16.5s-0.166992 -10.833 -0.5 -16.5s-0.833008 -11.834 -1.5 -18.501l-5 -99c-2.66699 -41.333 -4.66699 -77.666 -6 -108.999s-2 -61.666 -2 -90.999c0 -31.333 0.666992 -70 2 -116
s2 -76.333 2 -91l9 -152v-4c0 -13.333 -3 -22.833 -9 -28.5s-16 -8.5 -30 -8.5h-99c-18.667 0 -30.834 2.83301 -36.501 8.5s-8.5 16.5 -8.5 32.5z" />
    <glyph glyph-name="onehalf" unicode="&#xbd;" horiz-adv-x="1544" 
d="M1186 131l298.004 -12.001c15.333 -1.33301 25.166 -4.66602 29.499 -9.99902s6.5 -17.666 6.5 -36.999c0 -29.333 -5 -50.333 -15 -63s-27 -19 -51 -19c-4 0 -12.333 0.333008 -25 1s-23.334 1 -32.001 1l-135 -2c-10.667 0 -25.667 0.333008 -45 1s-33.666 1 -42.999 1
c-61.333 0 -125.833 -2.83301 -193.5 -8.5s-104.5 -8.5 -110.5 -8.5c-19.333 0 -32.333 5 -39 15s-10 28.333 -10 55c0 15.333 1.66699 26.333 5 33s9 12.667 17 18c2 1.33301 9.66699 4.66602 23 9.99902c54.667 23.333 106.667 48.666 156 75.999
c37.333 20.667 72.166 45.167 104.499 73.5s61.5 60.5 87.5 96.5c34 46 60 88.833 78 128.5s27 73.5 27 101.5c0 32 -11.333 58 -34 78s-52.334 30 -89.001 30c-51.333 0 -96 -19.667 -134 -59s-70.333 -100 -97 -182c-4 -11.333 -7.33301 -26.333 -10 -45
c-6 -41.333 -31.333 -62 -76 -62c-28.667 0 -48.167 3 -58.5 9s-15.5 17.333 -15.5 34c0 34 5 70 15 108s24.667 77 44 117c34.667 72.667 72.667 122.667 114 150s97 41 167 41c115.333 0 204.166 -18.333 266.499 -55s93.5 -88.667 93.5 -156
c0 -66 -27.167 -138.167 -81.5 -216.5s-133.5 -159.166 -237.5 -242.499zM952.004 1390c2.66699 4.66699 7.5 8.33301 14.5 11s15.167 4 24.5 4c15.333 0 36.666 -8.33301 63.999 -25s41 -32.334 41 -47.001c0 -5.33301 -1 -11 -3 -17s-4.66699 -11.333 -8 -16l-864 -1325
c-2 -4 -6.66699 -7.33301 -14 -10s-15.666 -4 -24.999 -4c-15.333 0 -36.833 8.33301 -64.5 25s-41.5 32.334 -41.5 47.001c0 4 1 8.5 3 13.5s5 10.5 9 16.5zM141.004 654.998l-9.99902 574c0 10 -2 17.5 -6 22.5s-11 9.16699 -21 12.5l-36 12
c-10.667 4 -18.5 10.5 -23.5 19.5s-7.5 20.833 -7.5 35.5c0 15.333 3.66699 25.5 11 30.5s23.333 9.83301 48 14.5l189 33h6c10.667 0 19.5 -3.33301 26.5 -10s10.5 -15 10.5 -25c0 -0.666992 -0.333008 -3.83398 -1 -9.50098s-1 -11.167 -1 -16.5
s-0.166992 -10.833 -0.5 -16.5s-0.833008 -11.834 -1.5 -18.501l-5 -99c-2.66699 -41.333 -4.66699 -77.666 -6 -108.999s-2 -61.666 -2 -90.999c0 -31.333 0.666992 -70 2 -116s2 -76.333 2 -91l9 -152v-4c0 -13.333 -3 -22.833 -9 -28.5s-16 -8.5 -30 -8.5h-99
c-18.667 0 -30.834 2.83301 -36.501 8.5s-8.5 16.5 -8.5 32.5z" />
    <glyph glyph-name="threequarters" unicode="&#xbe;" horiz-adv-x="1944" 
d="M1794 25c0 -19.333 -3.83008 -31.6641 -11.4971 -36.9971s-20.834 -8 -39.501 -8h-29c-39.333 0 -63.5 2 -72.5 6s-13.5 13.333 -13.5 28v125c0 9.33301 -1.83301 15.166 -5.5 17.499s-11.5 3.5 -23.5 3.5l-366 -2c-26 0 -44.167 5.66699 -54.5 17
s-15.5 30.666 -15.5 57.999c0 29.333 84.333 146.333 253 351l42 51l23 27c64 76.667 102 118 114 124c8.66699 3.33301 28 6 58 8s64.667 3 104 3c19.333 0 33.333 -2.83301 42 -8.5s13 -15.834 13 -30.501c0 -3.33301 -0.666992 -9.5 -2 -18.5s-2 -16.5 -2 -22.5v-406
c0 -9.33301 2.33301 -16.333 7 -21s11.334 -7 20.001 -7h70c7.33301 0 14.166 -3.16699 20.499 -9.5s9.5 -13.5 9.5 -21.5l-2 -50c-0.666992 -13.333 -3.83398 -23 -9.50098 -29s-14.834 -9 -27.501 -9h-86c-6 0 -10.167 -1.5 -12.5 -4.5s-3.5 -9.16699 -3.5 -18.5v-116z
M1642 283.002l-6 366.001c-78.667 -89.333 -142 -166.833 -190 -232.5s-72 -106.834 -72 -123.501c0 -3.33301 2.33301 -5.83301 7 -7.5s10.667 -2.5 18 -2.5h243zM1350 1391c2 4 6.66797 7.33398 14.001 10.001s15.666 4 24.999 4c14.667 0 35.667 -8.33301 63 -25
s41 -32.334 41 -47.001c0 -5.33301 -1 -11 -3 -17s-4.33301 -11 -7 -15l-864 -1325c-2.66699 -4.66699 -7.66699 -8.33398 -15 -11.001s-15.333 -4 -24 -4c-16 0 -37.833 8.33301 -65.5 25s-41.5 32.334 -41.5 47.001c0 4 1 8.5 3 13.5s5 10.5 9 16.5zM604.004 989.004
c50 -12 88.835 -32.3398 116.502 -61.0068s41.5 -63 41.5 -103c0 -67.333 -34.167 -124.333 -102.5 -171s-153.833 -70 -256.5 -70c-99.333 0 -184.833 26.333 -256.5 79s-107.5 113.667 -107.5 183c0 22 5.83301 36.333 17.5 43s37.834 10 78.501 10
c30 0 50.833 -2.83301 62.5 -8.5s17.5 -15.834 17.5 -30.501v-12c0 -49.333 13.667 -89.666 41 -120.999s62 -47 104 -47c46 0 92 18 138 54s69 70.667 69 104c0 20 -12.833 36.167 -38.5 48.5s-63.167 19.833 -112.5 22.5c-4.66699 0.666992 -10.667 1 -18 1
c-44 2.66699 -66 24.334 -66 65.001c0 12.667 15.333 24.334 46 35.001c18 6 32 11.333 42 16c49.333 24.667 90.333 57.167 123 97.5s49 76.166 49 107.499c0 26 -8.16699 46.5 -24.5 61.5s-38.833 22.5 -67.5 22.5c-46 0 -89.5 -13.667 -130.5 -41
s-81.5 -69.666 -121.5 -126.999c-6 -8 -12.667 -20.333 -20 -37c-14 -30 -30.667 -45 -50 -45c-44 0 -74.833 2.83301 -92.5 8.5s-26.5 15.834 -26.5 30.501c0 6.66699 5.66699 23.667 17 51c3.33301 8.66699 6 15.334 8 20.001c13.333 34.667 26.166 63.334 38.499 86.001
s26.166 43.334 41.499 62.001c28 33.333 59.833 58 95.5 74s76.167 24 121.5 24c119.333 0 216.666 -20 291.999 -60s113 -91.667 113 -155c0 -40.667 -14.667 -78.667 -44 -114s-75.333 -69.666 -138 -102.999z" />
    <glyph glyph-name="questiondown" unicode="&#xbf;" horiz-adv-x="1229" 
d="M461 1049l149.003 -5.00098c8.66699 0 15.667 -2.83301 21 -8.5s8 -12.834 8 -21.501c0 -4.66699 -0.333008 -8.5 -1 -11.5s-1.66699 -6.16699 -3 -9.5l-127 -284c-8 -18.667 -20 -45 -36 -79c-67.333 -142.667 -101 -246.334 -101 -311.001
c0 -56 11.667 -99.333 35 -130s56.666 -46 99.999 -46c42 0 86.833 17.333 134.5 52s94.834 84.334 141.501 149.001c43.333 61.333 74.666 118 93.999 170c0 0.666992 0.333008 1.33398 1 2.00098c8 20 16.667 32.5 26 37.5s25 7.5 47 7.5h152c11.333 0 20.333 -2 27 -6
s10 -8.66699 10 -14c0 -25.333 -15.667 -71.166 -47 -137.499s-71 -136.5 -119 -210.5c-49.333 -75.333 -105.833 -134.166 -169.5 -176.499s-126.834 -63.5 -189.501 -63.5c-52.667 0 -118.5 11 -197.5 33s-149.5 50 -211.5 84c-46.667 25.333 -83.667 62.5 -111 111.5
s-41 102.5 -41 160.5c0 81.333 54 198.666 162 351.999c50.667 71.333 89 128 115 170c20.667 34 39.667 73.667 57 119c17.333 44 40.666 66 69.999 66h4zM559.003 1126c-44 0 -79.833 15.332 -107.5 45.999s-41.5 70.667 -41.5 120c0 48 16.167 89 48.5 123
s72.166 51 119.499 51c52.667 0 94.834 -13.833 126.501 -41.5s47.5 -64.167 47.5 -109.5c0 -51.333 -19.333 -95.666 -58 -132.999s-83.667 -56 -135 -56z" />
    <glyph glyph-name="Agrave" unicode="&#xc0;" horiz-adv-x="1155" 
d="M442 518l258.001 -4.00098c7.33301 0 14 2.5 20 7.5s9 10.833 9 17.5c0 2.66699 -1 9 -3 19c-0.666992 2.66699 -1 4.33398 -1 5.00098l-145 582l-168 -546c-2.66699 -9.33301 -4.83398 -18.166 -6.50098 -26.499s-2.5 -15.5 -2.5 -21.5c0 -8.66699 4 -16.334 12 -23.001
s17 -10 27 -10zM51.001 -20.001c-18 0 -31.002 2.50098 -39.002 7.50098s-12 13.167 -12 24.5c0 4 0.5 8.66699 1.5 14s2.5 11.666 4.5 18.999l406 1346c7.33301 24 16.5 40.5 27.5 49.5s26.833 13.5 47.5 13.5l242 -6c32 -1.33301 51.5 -5 58.5 -11s14.167 -25 21.5 -57
l317 -1326c2 -9.33301 3.16699 -15.833 3.5 -19.5s0.5 -6.83398 0.5 -9.50098c0 -13.333 -2.83301 -23.5 -8.5 -30.5s-14.167 -10.5 -25.5 -10.5l-195 2c-15.333 0 -27 3.16699 -35 9.5s-14 17.5 -18 33.5l-53 196c-9.33301 30.667 -24.666 52.667 -45.999 66
s-52.666 20 -93.999 20h-10l-236 -6c-32 -1.33301 -55.5 -7.16602 -70.5 -17.499s-26.833 -28.5 -35.5 -54.5l-65 -194c-2 -4.66699 -4 -10.667 -6 -18c-8.66699 -27.333 -24.667 -41 -48 -41h-133zM800.999 1512h-91.001l-313 164c-37.333 20 -62.333 37.667 -75 53
s-19 33.666 -19 54.999c0 26.667 8.33301 48.334 25 65.001s38.334 25 65.001 25c20 0 40.5 -6.33301 61.5 -19s45.5 -33.667 73.5 -63z" />
    <glyph glyph-name="Aacute" unicode="&#xc1;" horiz-adv-x="1155" 
d="M442 518l258.001 -4.00098c7.33301 0 14 2.5 20 7.5s9 10.833 9 17.5c0 2.66699 -1 9 -3 19c-0.666992 2.66699 -1 4.33398 -1 5.00098l-145 582l-168 -546c-2.66699 -9.33301 -4.83398 -18.166 -6.50098 -26.499s-2.5 -15.5 -2.5 -21.5c0 -8.66699 4 -16.334 12 -23.001
s17 -10 27 -10zM51.001 -20.001c-18 0 -31.002 2.50098 -39.002 7.50098s-12 13.167 -12 24.5c0 4 0.5 8.66699 1.5 14s2.5 11.666 4.5 18.999l406 1346c7.33301 24 16.5 40.5 27.5 49.5s26.833 13.5 47.5 13.5l242 -6c32 -1.33301 51.5 -5 58.5 -11s14.167 -25 21.5 -57
l317 -1326c2 -9.33301 3.16699 -15.833 3.5 -19.5s0.5 -6.83398 0.5 -9.50098c0 -13.333 -2.83301 -23.5 -8.5 -30.5s-14.167 -10.5 -25.5 -10.5l-195 2c-15.333 0 -27 3.16699 -35 9.5s-14 17.5 -18 33.5l-53 196c-9.33301 30.667 -24.666 52.667 -45.999 66
s-52.666 20 -93.999 20h-10l-236 -6c-32 -1.33301 -55.5 -7.16602 -70.5 -17.499s-26.833 -28.5 -35.5 -54.5l-65 -194c-2 -4.66699 -4 -10.667 -6 -18c-8.66699 -27.333 -24.667 -41 -48 -41h-133zM410.999 1512l272.999 280c28 29.333 52.5 50.333 73.5 63
s41.5 19 61.5 19c26.667 0 48.334 -8.33301 65.001 -25s25 -38.334 25 -65.001c0 -21.333 -6.33301 -39.666 -19 -54.999s-37.667 -33 -75 -53l-313 -164h-91z" />
    <glyph glyph-name="Acircumflex" unicode="&#xc2;" horiz-adv-x="1155" 
d="M442 518l258.001 -4.00098c7.33301 0 14 2.5 20 7.5s9 10.833 9 17.5c0 2.66699 -1 9 -3 19c-0.666992 2.66699 -1 4.33398 -1 5.00098l-145 582l-168 -546c-2.66699 -9.33301 -4.83398 -18.166 -6.50098 -26.499s-2.5 -15.5 -2.5 -21.5c0 -8.66699 4 -16.334 12 -23.001
s17 -10 27 -10zM51.001 -20.001c-18 0 -31.002 2.50098 -39.002 7.50098s-12 13.167 -12 24.5c0 4 0.5 8.66699 1.5 14s2.5 11.666 4.5 18.999l406 1346c7.33301 24 16.5 40.5 27.5 49.5s26.833 13.5 47.5 13.5l242 -6c32 -1.33301 51.5 -5 58.5 -11s14.167 -25 21.5 -57
l317 -1326c2 -9.33301 3.16699 -15.833 3.5 -19.5s0.5 -6.83398 0.5 -9.50098c0 -13.333 -2.83301 -23.5 -8.5 -30.5s-14.167 -10.5 -25.5 -10.5l-195 2c-15.333 0 -27 3.16699 -35 9.5s-14 17.5 -18 33.5l-53 196c-9.33301 30.667 -24.666 52.667 -45.999 66
s-52.666 20 -93.999 20h-10l-236 -6c-32 -1.33301 -55.5 -7.16602 -70.5 -17.499s-26.833 -28.5 -35.5 -54.5l-65 -194c-2 -4.66699 -4 -10.667 -6 -18c-8.66699 -27.333 -24.667 -41 -48 -41h-133zM306.999 1512l225 348h148l225 -348h-84l-215 178l-215 -178h-84z" />
    <glyph glyph-name="Atilde" unicode="&#xc3;" horiz-adv-x="1155" 
d="M442 518l258.001 -4.00098c7.33301 0 14 2.5 20 7.5s9 10.833 9 17.5c0 2.66699 -1 9 -3 19c-0.666992 2.66699 -1 4.33398 -1 5.00098l-145 582l-168 -546c-2.66699 -9.33301 -4.83398 -18.166 -6.50098 -26.499s-2.5 -15.5 -2.5 -21.5c0 -8.66699 4 -16.334 12 -23.001
s17 -10 27 -10zM51.001 -20.001c-18 0 -31.002 2.50098 -39.002 7.50098s-12 13.167 -12 24.5c0 4 0.5 8.66699 1.5 14s2.5 11.666 4.5 18.999l406 1346c7.33301 24 16.5 40.5 27.5 49.5s26.833 13.5 47.5 13.5l242 -6c32 -1.33301 51.5 -5 58.5 -11s14.167 -25 21.5 -57
l317 -1326c2 -9.33301 3.16699 -15.833 3.5 -19.5s0.5 -6.83398 0.5 -9.50098c0 -13.333 -2.83301 -23.5 -8.5 -30.5s-14.167 -10.5 -25.5 -10.5l-195 2c-15.333 0 -27 3.16699 -35 9.5s-14 17.5 -18 33.5l-53 196c-9.33301 30.667 -24.666 52.667 -45.999 66
s-52.666 20 -93.999 20h-10l-236 -6c-32 -1.33301 -55.5 -7.16602 -70.5 -17.499s-26.833 -28.5 -35.5 -54.5l-65 -194c-2 -4.66699 -4 -10.667 -6 -18c-8.66699 -27.333 -24.667 -41 -48 -41h-133zM894.999 1833c-11.333 -82 -34.665 -143.333 -69.998 -184
s-83 -61 -143 -61c-8.66699 0 -17.167 0.5 -25.5 1.5s-16.5 2.5 -24.5 4.5l-103 28c-9.33301 2.66699 -18.166 4.5 -26.499 5.5s-18.833 1.5 -31.5 1.5c-22 0 -40 -6.83301 -54 -20.5s-26 -35.5 -36 -65.5h-66c11.333 82 34.5 143.333 69.5 184s82.167 61 141.5 61
c11.333 0 22.166 -0.666992 32.499 -2s20.833 -3.33301 31.5 -6l109 -27c7.33301 -2 14.166 -3.5 20.499 -4.5s12.166 -1.5 17.499 -1.5c22 0 40.333 6.83301 55 20.5s27 35.5 37 65.5h66z" />
    <glyph glyph-name="Adieresis" unicode="&#xc4;" horiz-adv-x="1155" 
d="M442 518l258.001 -4.00098c7.33301 0 14 2.5 20 7.5s9 10.833 9 17.5c0 2.66699 -1 9 -3 19c-0.666992 2.66699 -1 4.33398 -1 5.00098l-145 582l-168 -546c-2.66699 -9.33301 -4.83398 -18.166 -6.50098 -26.499s-2.5 -15.5 -2.5 -21.5c0 -8.66699 4 -16.334 12 -23.001
s17 -10 27 -10zM51.001 -20.001c-18 0 -31.002 2.50098 -39.002 7.50098s-12 13.167 -12 24.5c0 4 0.5 8.66699 1.5 14s2.5 11.666 4.5 18.999l406 1346c7.33301 24 16.5 40.5 27.5 49.5s26.833 13.5 47.5 13.5l242 -6c32 -1.33301 51.5 -5 58.5 -11s14.167 -25 21.5 -57
l317 -1326c2 -9.33301 3.16699 -15.833 3.5 -19.5s0.5 -6.83398 0.5 -9.50098c0 -13.333 -2.83301 -23.5 -8.5 -30.5s-14.167 -10.5 -25.5 -10.5l-195 2c-15.333 0 -27 3.16699 -35 9.5s-14 17.5 -18 33.5l-53 196c-9.33301 30.667 -24.666 52.667 -45.999 66
s-52.666 20 -93.999 20h-10l-236 -6c-32 -1.33301 -55.5 -7.16602 -70.5 -17.499s-26.833 -28.5 -35.5 -54.5l-65 -194c-2 -4.66699 -4 -10.667 -6 -18c-8.66699 -27.333 -24.667 -41 -48 -41h-133zM666.999 1676c0 32 12 59.667 36 83s52.333 35 85 35
s60.667 -11.5 84 -34.5s35 -50.833 35 -83.5c0 -36 -11.167 -65.5 -33.5 -88.5s-50.833 -34.5 -85.5 -34.5c-33.333 0 -61.833 12 -85.5 36s-35.5 53 -35.5 87zM302.999 1676c0 32 12 59.667 36 83s52.333 35 85 35s60.667 -11.5 84 -34.5s35 -50.833 35 -83.5
c0 -36 -11.167 -65.5 -33.5 -88.5s-50.833 -34.5 -85.5 -34.5c-34 0 -62.667 12 -86 36s-35 53 -35 87z" />
    <glyph glyph-name="Aring" unicode="&#xc5;" horiz-adv-x="1155" 
d="M397 1718c0 65.333 23.1689 119.333 69.502 162s105.833 64 178.5 64c63.333 0 114.666 -21.167 153.999 -63.5s59 -97.166 59 -164.499c0 -66 -21 -118.667 -63 -158s-98.667 -59 -170 -59c-66.667 0 -121.334 20.667 -164.001 62s-64 93.666 -64 156.999zM692.002 1841
h-18c-48 0 -87.333 -13.667 -118 -41s-46 -62 -46 -104c0 -26.667 9.16699 -48.667 27.5 -66s41.833 -26 70.5 -26c38.667 0 69.167 11.667 91.5 35s33.5 55.333 33.5 96c0 18 -3.16699 35.5 -9.5 52.5s-16.833 34.833 -31.5 53.5zM6.00195 45l405.998 1346
c8 24.667 17 41.334 27 50.001s24 13 42 13h6l242 -6c32 -1.33301 51.5 -5 58.5 -11s14.167 -25 21.5 -57l317 -1326c2 -10.667 3.16699 -18.667 3.5 -24s0.5 -10.666 0.5 -15.999c0 -6.66699 -3.66699 -13.334 -11 -20.001s-15 -10 -23 -10l-195 2
c-15.333 0 -27 3.16699 -35 9.5s-14 17.5 -18 33.5l-53 196c-9.33301 30.667 -24.666 52.667 -45.999 66s-52.666 20 -93.999 20h-10l-236 -6c-32 -1.33301 -55.5 -7.16602 -70.5 -17.499s-26.833 -28.5 -35.5 -54.5l-65 -194c-2 -4.66699 -4 -10.667 -6 -18
c-8.66699 -27.333 -24.667 -41 -48 -41h-133c-18 0 -31 2.5 -39 7.5s-12 13.167 -12 24.5c0 4 0.5 8.66699 1.5 14s2.5 11.666 4.5 18.999zM412 598.999c-3.33301 -11.333 -6 -21.334 -8 -30.001s-3 -14.667 -3 -18c0 -8 4.33301 -15.5 13 -22.5s18 -10.5 28 -10.5l258 -4
c7.33301 0 14 2.5 20 7.5s9 10.833 9 17.5c0 2.66699 -1 9 -3 19c-0.666992 2.66699 -1 4.33398 -1 5.00098l-145 582z" />
    <glyph glyph-name="AE" unicode="&#xc6;" horiz-adv-x="1792" 
d="M891 778l-6 337.999c0 17.333 -3.83301 31.333 -11.5 42s-17.5 16 -29.5 16h-56c-49.333 -73.333 -101.833 -166.666 -157.5 -279.999s-89.834 -181.333 -102.501 -204c70 30.667 134.333 53 193 67s115.334 21 170.001 21zM885 546.999
c-158 -8 -278.505 -33.5 -361.505 -76.5s-152.5 -114.5 -208.5 -214.5c-25.333 -45.333 -50.666 -102.666 -75.999 -171.999s-50.333 -104 -75 -104c-11.333 0 -29.833 1.66699 -55.5 5s-46.167 5 -61.5 5c-6 0 -21.5 -1.33301 -46.5 -4s-47.167 -4 -66.5 -4
c-8 0 -15.333 3.83301 -22 11.5s-10 15.834 -10 24.501c0 7.33301 17.833 36.166 53.5 86.499s67.5 100.166 95.5 149.499c47.333 81.333 103.833 185.166 169.5 311.499l211.5 419.5l73 154c66.667 144.667 117 227.334 151 248.001c10.667 6 26.667 10.167 48 12.5
s66 3.5 134 3.5c11.333 0 65 -1.33301 161 -4s186.333 -4 271 -4h67l344 4h21c38.667 0 64.334 -3.66699 77.001 -11s19 -23 19 -47c0 -64.667 -8.66699 -104.5 -26 -119.5s-52.333 -23.5 -105 -25.5l-424 -14c-5.33301 -0.666992 -12.666 -1 -21.999 -1
c-37.333 0 -56 -22.333 -56 -67l-4 -278c0 -21.333 2.33301 -35.333 7 -42s15.334 -10 32.001 -10h31l403 9c22 0 37.833 -4.16699 47.5 -12.5s14.5 -22.166 14.5 -41.499c0 -72 -4.66699 -119.333 -14 -142s-37.666 -35.334 -84.999 -38.001l-408 -27
c-14.667 -0.666992 -25 -6 -31 -16s-9 -32.333 -9 -67v-222c0 -12 4.16699 -20.667 12.5 -26s22.5 -8 42.5 -8l438 4c16 0 30.333 -4.33301 43 -13s19 -18 19 -28c0 -11.333 -4.16699 -32.833 -12.5 -64.5s-16.5 -54.5 -24.5 -68.5c-8.66699 -15.333 -25 -26.333 -49 -33
s-60.333 -10 -109 -10l-555 -3c-30.667 0 -54 9.33301 -70 28s-24 45.667 -24 81v14z" />
    <glyph glyph-name="Ccedilla" unicode="&#xc7;" horiz-adv-x="1247" 
d="M1036 463l121.002 -0.000976562c18 0 31 -3.16699 39 -9.5s12 -16.166 12 -29.499c0 -35.333 -18.167 -85.166 -54.5 -149.499s-84.166 -130.5 -143.499 -198.5c-38.667 -43.333 -80.334 -74.666 -125.001 -93.999s-98.667 -29 -162 -29
c-216.667 0 -379 54.167 -487 162.5s-162 271.166 -162 488.499c0 237.333 43.833 436.333 131.5 597s193.834 241 318.501 241c109.333 0 212.666 -12.833 309.999 -38.5s164.666 -56.5 201.999 -92.5c36 -36 67.167 -99.333 93.5 -190s39.5 -185 39.5 -283
c0 -25.333 -5.5 -44.5 -16.5 -57.5s-27.167 -19.833 -48.5 -20.5l-96 -4h-17c-30.667 0 -50 31 -58 93c-2.66699 22 -5 40 -7 54c-17.333 112 -47.333 200.167 -90 264.5s-92.667 96.5 -150 96.5c-80.667 0 -152.334 -64.333 -215.001 -193s-94 -285.667 -94 -471
c0 -172.667 17.667 -297.334 53 -374.001s92 -115 170 -115c49.333 0 99.5 17.167 150.5 51.5s104.5 87.5 160.5 159.5c18 22.667 36 50.667 54 84c19.333 38 43 57 71 57zM375.002 -375.001l40.998 87.999c52 -28 96.5 -47.167 133.5 -57.5s75.167 -15.5 114.5 -15.5
c26 0 46.833 7.33301 62.5 22s23.5 34.334 23.5 59.001c0 28.667 -8.66699 50.167 -26 64.5s-43.666 21.5 -78.999 21.5c-9.33301 0 -18.666 -0.5 -27.999 -1.5s-19 -2.16699 -29 -3.5v198h70v-112l42.5 3.5l30.5 2.5c53.333 0 96.5 -15.667 129.5 -47
s49.5 -72.333 49.5 -123c0 -56.667 -20.167 -101 -60.5 -133s-96.833 -48 -169.5 -48c-36 0 -76 5.66699 -120 17s-105.667 33 -185 65z" />
    <glyph glyph-name="Egrave" unicode="&#xc8;" horiz-adv-x="1090" 
d="M205 -23c-30.667 0 -53 10.6689 -67 32.002s-21 55.333 -21 102c0 20.667 4 105.667 12 255s12 288 12 416c0 191.333 -5.33301 367.666 -16 528.999c-1.33301 18.667 -2 29.334 -2 32.001c0 26.667 6 44.334 18 53.001s34.667 13 68 13c2 0 10.667 -0.333008 26 -1
c143.333 -8.66699 304 -13 482 -13c82 0 160 1 234 3c12 0.666992 19.333 1 22 1c30.667 0 51 -4.83301 61 -14.5s15 -38.5 15 -86.5c0 -65.333 -59.667 -100.333 -179 -105c-16 -0.666992 -28 -1 -36 -1l-305 -10c-54.667 -2.66699 -87.5 -8.16699 -98.5 -16.5
s-16.5 -35.166 -16.5 -80.499v-10l-2 -250v-8c0 -14.667 1.5 -23.334 4.5 -26.001s12.167 -4.33398 27.5 -5.00098h13l370 2c22 0 44.333 0.666992 67 2c5.33301 0.666992 8.33301 1 9 1c24.667 0 39.667 -7.16699 45 -21.5s8 -45.5 8 -93.5
c0 -76.667 -55.667 -117.667 -167 -123c-21.333 -0.666992 -38.666 -1.33398 -51.999 -2.00098l-274 -14c-21.333 -1.33301 -37.333 -6 -48 -14s-16 -20 -16 -36l2 -237c0 -24.667 3.16699 -40.334 9.5 -47.001s23.166 -10 50.499 -10h274c42 0 83 1 123 3
c6.66699 0.666992 10.667 1 12 1c26 0 44.5 -5.16699 55.5 -15.5s16.5 -27.833 16.5 -52.5c0 -66.667 -13.5 -109 -40.5 -127s-94.833 -27 -203.5 -27h-45zM789 1512h-91.001l-313 164c-37.333 20 -62.333 37.667 -75 53s-19 33.666 -19 54.999
c0 26.667 8.33301 48.334 25 65.001s38.334 25 65.001 25c20 0 40.5 -6.33301 61.5 -19s45.5 -33.667 73.5 -63z" />
    <glyph glyph-name="Eacute" unicode="&#xc9;" horiz-adv-x="1090" 
d="M205 -23c-30.667 0 -53 10.6689 -67 32.002s-21 55.333 -21 102c0 20.667 4 105.667 12 255s12 288 12 416c0 191.333 -5.33301 367.666 -16 528.999c-1.33301 18.667 -2 29.334 -2 32.001c0 26.667 6 44.334 18 53.001s34.667 13 68 13c2 0 10.667 -0.333008 26 -1
c143.333 -8.66699 304 -13 482 -13c82 0 160 1 234 3c12 0.666992 19.333 1 22 1c30.667 0 51 -4.83301 61 -14.5s15 -38.5 15 -86.5c0 -65.333 -59.667 -100.333 -179 -105c-16 -0.666992 -28 -1 -36 -1l-305 -10c-54.667 -2.66699 -87.5 -8.16699 -98.5 -16.5
s-16.5 -35.166 -16.5 -80.499v-10l-2 -250v-8c0 -14.667 1.5 -23.334 4.5 -26.001s12.167 -4.33398 27.5 -5.00098h13l370 2c22 0 44.333 0.666992 67 2c5.33301 0.666992 8.33301 1 9 1c24.667 0 39.667 -7.16699 45 -21.5s8 -45.5 8 -93.5
c0 -76.667 -55.667 -117.667 -167 -123c-21.333 -0.666992 -38.666 -1.33398 -51.999 -2.00098l-274 -14c-21.333 -1.33301 -37.333 -6 -48 -14s-16 -20 -16 -36l2 -237c0 -24.667 3.16699 -40.334 9.5 -47.001s23.166 -10 50.499 -10h274c42 0 83 1 123 3
c6.66699 0.666992 10.667 1 12 1c26 0 44.5 -5.16699 55.5 -15.5s16.5 -27.833 16.5 -52.5c0 -66.667 -13.5 -109 -40.5 -127s-94.833 -27 -203.5 -27h-45zM399 1512l272.999 280c28 29.333 52.5 50.333 73.5 63s41.5 19 61.5 19c26.667 0 48.334 -8.33301 65.001 -25
s25 -38.334 25 -65.001c0 -21.333 -6.33301 -39.666 -19 -54.999s-37.667 -33 -75 -53l-313 -164h-91z" />
    <glyph glyph-name="Ecircumflex" unicode="&#xca;" horiz-adv-x="1090" 
d="M205 -23c-30.667 0 -53 10.6689 -67 32.002s-21 55.333 -21 102c0 20.667 4 105.667 12 255s12 288 12 416c0 191.333 -5.33301 367.666 -16 528.999c-1.33301 18.667 -2 29.334 -2 32.001c0 26.667 6 44.334 18 53.001s34.667 13 68 13c2 0 10.667 -0.333008 26 -1
c143.333 -8.66699 304 -13 482 -13c82 0 160 1 234 3c12 0.666992 19.333 1 22 1c30.667 0 51 -4.83301 61 -14.5s15 -38.5 15 -86.5c0 -65.333 -59.667 -100.333 -179 -105c-16 -0.666992 -28 -1 -36 -1l-305 -10c-54.667 -2.66699 -87.5 -8.16699 -98.5 -16.5
s-16.5 -35.166 -16.5 -80.499v-10l-2 -250v-8c0 -14.667 1.5 -23.334 4.5 -26.001s12.167 -4.33398 27.5 -5.00098h13l370 2c22 0 44.333 0.666992 67 2c5.33301 0.666992 8.33301 1 9 1c24.667 0 39.667 -7.16699 45 -21.5s8 -45.5 8 -93.5
c0 -76.667 -55.667 -117.667 -167 -123c-21.333 -0.666992 -38.666 -1.33398 -51.999 -2.00098l-274 -14c-21.333 -1.33301 -37.333 -6 -48 -14s-16 -20 -16 -36l2 -237c0 -24.667 3.16699 -40.334 9.5 -47.001s23.166 -10 50.499 -10h274c42 0 83 1 123 3
c6.66699 0.666992 10.667 1 12 1c26 0 44.5 -5.16699 55.5 -15.5s16.5 -27.833 16.5 -52.5c0 -66.667 -13.5 -109 -40.5 -127s-94.833 -27 -203.5 -27h-45zM295 1512l225 348h148l225 -348h-84l-215 178l-215 -178h-84z" />
    <glyph glyph-name="Edieresis" unicode="&#xcb;" horiz-adv-x="1090" 
d="M205 -23c-30.667 0 -53 10.6689 -67 32.002s-21 55.333 -21 102c0 20.667 4 105.667 12 255s12 288 12 416c0 191.333 -5.33301 367.666 -16 528.999c-1.33301 18.667 -2 29.334 -2 32.001c0 26.667 6 44.334 18 53.001s34.667 13 68 13c2 0 10.667 -0.333008 26 -1
c143.333 -8.66699 304 -13 482 -13c82 0 160 1 234 3c12 0.666992 19.333 1 22 1c30.667 0 51 -4.83301 61 -14.5s15 -38.5 15 -86.5c0 -65.333 -59.667 -100.333 -179 -105c-16 -0.666992 -28 -1 -36 -1l-305 -10c-54.667 -2.66699 -87.5 -8.16699 -98.5 -16.5
s-16.5 -35.166 -16.5 -80.499v-10l-2 -250v-8c0 -14.667 1.5 -23.334 4.5 -26.001s12.167 -4.33398 27.5 -5.00098h13l370 2c22 0 44.333 0.666992 67 2c5.33301 0.666992 8.33301 1 9 1c24.667 0 39.667 -7.16699 45 -21.5s8 -45.5 8 -93.5
c0 -76.667 -55.667 -117.667 -167 -123c-21.333 -0.666992 -38.666 -1.33398 -51.999 -2.00098l-274 -14c-21.333 -1.33301 -37.333 -6 -48 -14s-16 -20 -16 -36l2 -237c0 -24.667 3.16699 -40.334 9.5 -47.001s23.166 -10 50.499 -10h274c42 0 83 1 123 3
c6.66699 0.666992 10.667 1 12 1c26 0 44.5 -5.16699 55.5 -15.5s16.5 -27.833 16.5 -52.5c0 -66.667 -13.5 -109 -40.5 -127s-94.833 -27 -203.5 -27h-45zM655 1676c0 32 12 59.667 36 83s52.333 35 85 35s60.667 -11.5 84 -34.5s35 -50.833 35 -83.5
c0 -36 -11.167 -65.5 -33.5 -88.5s-50.833 -34.5 -85.5 -34.5c-33.333 0 -61.833 12 -85.5 36s-35.5 53 -35.5 87zM291 1676c0 32 12 59.667 36 83s52.333 35 85 35s60.667 -11.5 84 -34.5s35 -50.833 35 -83.5c0 -36 -11.167 -65.5 -33.5 -88.5s-50.833 -34.5 -85.5 -34.5
c-34 0 -62.667 12 -86 36s-35 53 -35 87z" />
    <glyph glyph-name="Igrave" unicode="&#xcc;" horiz-adv-x="616" 
d="M166 446c0 302 -7.33203 580.335 -21.999 835.002c-2 27.333 -3 42.666 -3 45.999c0 33.333 17.667 58 53 74s90 24 164 24c36 0 62.167 -4.66699 78.5 -14s24.5 -24.333 24.5 -45c0 -2.66699 -0.666992 -11.334 -2 -26.001c-11.333 -124.667 -17 -261.334 -17 -410.001
c0 -59.333 1.16699 -150.666 3.5 -273.999s3.5 -217 3.5 -281c0 -21.333 -0.5 -53.333 -1.5 -96s-1.5 -74.334 -1.5 -95.001c0 -33.333 1.66699 -68.666 5 -105.999c1.33301 -10.667 2 -17 2 -19c0 -26 -6.83301 -43.333 -20.5 -52s-43.834 -13 -90.501 -13
c-92 0 -145.667 4.66699 -161 14s-23 38 -23 86c0 22.667 1.33301 73 4 151s4 145 4 201zM504.001 1512h-91.001l-313 164c-37.333 20 -62.333 37.667 -75 53s-19 33.666 -19 54.999c0 26.667 8.33301 48.334 25 65.001s38.334 25 65.001 25c20 0 40.5 -6.33301 61.5 -19
s45.5 -33.667 73.5 -63z" />
    <glyph glyph-name="Iacute" unicode="&#xcd;" horiz-adv-x="616" 
d="M166 446c0 302 -7.33203 580.335 -21.999 835.002c-2 27.333 -3 42.666 -3 45.999c0 33.333 17.667 58 53 74s90 24 164 24c36 0 62.167 -4.66699 78.5 -14s24.5 -24.333 24.5 -45c0 -2.66699 -0.666992 -11.334 -2 -26.001c-11.333 -124.667 -17 -261.334 -17 -410.001
c0 -59.333 1.16699 -150.666 3.5 -273.999s3.5 -217 3.5 -281c0 -21.333 -0.5 -53.333 -1.5 -96s-1.5 -74.334 -1.5 -95.001c0 -33.333 1.66699 -68.666 5 -105.999c1.33301 -10.667 2 -17 2 -19c0 -26 -6.83301 -43.333 -20.5 -52s-43.834 -13 -90.501 -13
c-92 0 -145.667 4.66699 -161 14s-23 38 -23 86c0 22.667 1.33301 73 4 151s4 145 4 201zM114.001 1512l272.999 280c28 29.333 52.5 50.333 73.5 63s41.5 19 61.5 19c26.667 0 48.334 -8.33301 65.001 -25s25 -38.334 25 -65.001c0 -21.333 -6.33301 -39.666 -19 -54.999
s-37.667 -33 -75 -53l-313 -164h-91z" />
    <glyph glyph-name="Icircumflex" unicode="&#xce;" horiz-adv-x="616" 
d="M166 446c0 302 -7.33203 580.335 -21.999 835.002c-2 27.333 -3 42.666 -3 45.999c0 33.333 17.667 58 53 74s90 24 164 24c36 0 62.167 -4.66699 78.5 -14s24.5 -24.333 24.5 -45c0 -2.66699 -0.666992 -11.334 -2 -26.001c-11.333 -124.667 -17 -261.334 -17 -410.001
c0 -59.333 1.16699 -150.666 3.5 -273.999s3.5 -217 3.5 -281c0 -21.333 -0.5 -53.333 -1.5 -96s-1.5 -74.334 -1.5 -95.001c0 -33.333 1.66699 -68.666 5 -105.999c1.33301 -10.667 2 -17 2 -19c0 -26 -6.83301 -43.333 -20.5 -52s-43.834 -13 -90.501 -13
c-92 0 -145.667 4.66699 -161 14s-23 38 -23 86c0 22.667 1.33301 73 4 151s4 145 4 201zM10.001 1512l225 348h148l225 -348h-84l-215 178l-215 -178h-84z" />
    <glyph glyph-name="Idieresis" unicode="&#xcf;" horiz-adv-x="616" 
d="M166 446c0 302 -7.33203 580.335 -21.999 835.002c-2 27.333 -3 42.666 -3 45.999c0 33.333 17.667 58 53 74s90 24 164 24c36 0 62.167 -4.66699 78.5 -14s24.5 -24.333 24.5 -45c0 -2.66699 -0.666992 -11.334 -2 -26.001c-11.333 -124.667 -17 -261.334 -17 -410.001
c0 -59.333 1.16699 -150.666 3.5 -273.999s3.5 -217 3.5 -281c0 -21.333 -0.5 -53.333 -1.5 -96s-1.5 -74.334 -1.5 -95.001c0 -33.333 1.66699 -68.666 5 -105.999c1.33301 -10.667 2 -17 2 -19c0 -26 -6.83301 -43.333 -20.5 -52s-43.834 -13 -90.501 -13
c-92 0 -145.667 4.66699 -161 14s-23 38 -23 86c0 22.667 1.33301 73 4 151s4 145 4 201zM370.001 1676c0 32 12 59.667 36 83s52.333 35 85 35s60.667 -11.5 84 -34.5s35 -50.833 35 -83.5c0 -36 -11.167 -65.5 -33.5 -88.5s-50.833 -34.5 -85.5 -34.5
c-33.333 0 -61.833 12 -85.5 36s-35.5 53 -35.5 87zM6.00098 1676c0 32 12 59.667 36 83s52.333 35 85 35s60.667 -11.5 84 -34.5s35 -50.833 35 -83.5c0 -36 -11.167 -65.5 -33.5 -88.5s-50.833 -34.5 -85.5 -34.5c-34 0 -62.667 12 -86 36s-35 53 -35 87z" />
    <glyph glyph-name="Eth" unicode="&#xd0;" horiz-adv-x="1266" 
d="M139 981c0 104.667 -7.33301 211.666 -22 320.999c-2.66699 21.333 -4 34.333 -4 39c0 36 22.167 61.833 66.5 77.5s119.833 23.5 226.5 23.5c245.333 0 439 -63.333 581 -190s213 -299 213 -517c0 -245.333 -62.333 -442.833 -187 -592.5s-289 -224.5 -493 -224.5
c-64 0 -144 9.33301 -240 28l-51 9c-10 1.33301 -24 3.33301 -42 6c-40 4.66699 -60 12.334 -60 23.001l6 59c4 39.333 6 78.333 6 117l2 450h-106c-8 0 -15.833 4.5 -23.5 13.5s-11.5 18.833 -11.5 29.5v60c0 25.333 2.5 41.5 7.5 48.5s14.167 10.5 27.5 10.5h104v209z
M416 359.999l0.000976562 -143c0 -51.333 4.33301 -85.333 13 -102s25.334 -25 50.001 -25c128 0 237.5 63 328.5 189s136.5 286.333 136.5 481c0 156.667 -30.333 275 -91 355s-150.334 120 -269.001 120c-56.667 0 -97.834 -8 -123.501 -24s-38.5 -42 -38.5 -78
c0 -10.667 -0.833008 -55.5 -2.5 -134.5s-2.83398 -154.5 -3.50098 -226.5h258c12.667 0 22 -4 28 -12s9 -21 9 -39v-59c0 -18 -2.16699 -31.167 -6.5 -39.5s-11.166 -12.5 -20.499 -12.5h-268v-250z" />
    <glyph glyph-name="Ntilde" unicode="&#xd1;" horiz-adv-x="1262" 
d="M106 102l27.001 1250c0 24.667 20.833 42 62.5 52s113.167 15 214.5 15c49.333 0 80.333 -3 93 -9s19 -24 19 -54c0 -92.667 29.333 -208.334 88 -347.001v-1l238 -570c2 -4.66699 5 -8.5 9 -11.5s8.33301 -4.5 13 -4.5c6 0 10.667 3.16699 14 9.5s5 14.833 5 25.5
l10 893c0 33.333 9.33301 54.5 28 63.5s54.334 13.5 107.001 13.5c56 0 90.833 -2.33301 104.5 -7s20.5 -16 20.5 -34c0 -5.33301 -0.666992 -15.5 -2 -30.5s-2 -27.167 -2 -36.5v-23v-18l-14 -266c-8.66699 -148 -14.667 -271.667 -18 -371s-5 -192.333 -5 -279v-331
c0 -29.333 -14.333 -48 -43 -56s-82 -12 -160 -12c-29.333 0 -54.333 1.5 -75 4.5s-39.334 7.83301 -56.001 14.5l-442 956l10 -879c0 -30 -6.83301 -48.333 -20.5 -55s-49.834 -10 -108.501 -10c-52.667 0 -85.667 2.66699 -99 8s-20 17 -20 35c0 0.666992 0.333008 3 1 7
c0.666992 19.333 1 38.666 1 57.999zM920.001 1833c-11.333 -82 -34.665 -143.333 -69.998 -184s-83 -61 -143 -61c-8.66699 0 -17.167 0.5 -25.5 1.5s-16.5 2.5 -24.5 4.5l-103 28c-9.33301 2.66699 -18.166 4.5 -26.499 5.5s-18.833 1.5 -31.5 1.5
c-22 0 -40 -6.83301 -54 -20.5s-26 -35.5 -36 -65.5h-66c11.333 82 34.5 143.333 69.5 184s82.167 61 141.5 61c11.333 0 22.166 -0.666992 32.499 -2s20.833 -3.33301 31.5 -6l109 -27c7.33301 -2 14.166 -3.5 20.499 -4.5s12.166 -1.5 17.499 -1.5
c22 0 40.333 6.83301 55 20.5s27 35.5 37 65.5h66z" />
    <glyph glyph-name="Ograve" unicode="&#xd2;" horiz-adv-x="1360" 
d="M717 1241c-107.333 0 -190.834 -57.668 -250.501 -173.001s-89.5 -278 -89.5 -488c0 -143.333 26 -257.666 78 -342.999s121 -128 207 -128c94.667 0 171.834 56.333 231.501 169s89.5 261 89.5 445c0 158.667 -24.333 284.667 -73 378s-113 140 -193 140z
M60.999 679.999c0 104 13.334 205.332 40.001 303.999s62.667 182.334 108 251.001c45.333 69.333 99 120.5 161 153.5s136.667 49.5 224 49.5c214 0 384.5 -68.833 511.5 -206.5s190.5 -324.167 190.5 -559.5c0 -224.667 -50.833 -399.667 -152.5 -525
s-243.834 -188 -426.501 -188c-200 0 -359.333 64.667 -478 194s-178 305 -178 527zM875 1512h-91.001l-313 164c-37.333 20 -62.333 37.667 -75 53s-19 33.666 -19 54.999c0 26.667 8.33301 48.334 25 65.001s38.334 25 65.001 25c20 0 40.5 -6.33301 61.5 -19
s45.5 -33.667 73.5 -63z" />
    <glyph glyph-name="Oacute" unicode="&#xd3;" horiz-adv-x="1360" 
d="M717 1241c-107.333 0 -190.834 -57.668 -250.501 -173.001s-89.5 -278 -89.5 -488c0 -143.333 26 -257.666 78 -342.999s121 -128 207 -128c94.667 0 171.834 56.333 231.501 169s89.5 261 89.5 445c0 158.667 -24.333 284.667 -73 378s-113 140 -193 140z
M60.999 679.999c0 104 13.334 205.332 40.001 303.999s62.667 182.334 108 251.001c45.333 69.333 99 120.5 161 153.5s136.667 49.5 224 49.5c214 0 384.5 -68.833 511.5 -206.5s190.5 -324.167 190.5 -559.5c0 -224.667 -50.833 -399.667 -152.5 -525
s-243.834 -188 -426.501 -188c-200 0 -359.333 64.667 -478 194s-178 305 -178 527zM485 1512l272.999 280c28 29.333 52.5 50.333 73.5 63s41.5 19 61.5 19c26.667 0 48.334 -8.33301 65.001 -25s25 -38.334 25 -65.001c0 -21.333 -6.33301 -39.666 -19 -54.999
s-37.667 -33 -75 -53l-313 -164h-91z" />
    <glyph glyph-name="Ocircumflex" unicode="&#xd4;" horiz-adv-x="1360" 
d="M717 1241c-107.333 0 -190.834 -57.668 -250.501 -173.001s-89.5 -278 -89.5 -488c0 -143.333 26 -257.666 78 -342.999s121 -128 207 -128c94.667 0 171.834 56.333 231.501 169s89.5 261 89.5 445c0 158.667 -24.333 284.667 -73 378s-113 140 -193 140z
M60.999 679.999c0 104 13.334 205.332 40.001 303.999s62.667 182.334 108 251.001c45.333 69.333 99 120.5 161 153.5s136.667 49.5 224 49.5c214 0 384.5 -68.833 511.5 -206.5s190.5 -324.167 190.5 -559.5c0 -224.667 -50.833 -399.667 -152.5 -525
s-243.834 -188 -426.501 -188c-200 0 -359.333 64.667 -478 194s-178 305 -178 527zM381 1512l225 348h148l225 -348h-84l-215 178l-215 -178h-84z" />
    <glyph glyph-name="Otilde" unicode="&#xd5;" horiz-adv-x="1360" 
d="M717 1241c-107.333 0 -190.834 -57.668 -250.501 -173.001s-89.5 -278 -89.5 -488c0 -143.333 26 -257.666 78 -342.999s121 -128 207 -128c94.667 0 171.834 56.333 231.501 169s89.5 261 89.5 445c0 158.667 -24.333 284.667 -73 378s-113 140 -193 140z
M60.999 679.999c0 104 13.334 205.332 40.001 303.999s62.667 182.334 108 251.001c45.333 69.333 99 120.5 161 153.5s136.667 49.5 224 49.5c214 0 384.5 -68.833 511.5 -206.5s190.5 -324.167 190.5 -559.5c0 -224.667 -50.833 -399.667 -152.5 -525
s-243.834 -188 -426.501 -188c-200 0 -359.333 64.667 -478 194s-178 305 -178 527zM969 1833c-11.333 -82 -34.665 -143.333 -69.998 -184s-83 -61 -143 -61c-8.66699 0 -17.167 0.5 -25.5 1.5s-16.5 2.5 -24.5 4.5l-103 28c-9.33301 2.66699 -18.166 4.5 -26.499 5.5
s-18.833 1.5 -31.5 1.5c-22 0 -40 -6.83301 -54 -20.5s-26 -35.5 -36 -65.5h-66c11.333 82 34.5 143.333 69.5 184s82.167 61 141.5 61c11.333 0 22.166 -0.666992 32.499 -2s20.833 -3.33301 31.5 -6l109 -27c7.33301 -2 14.166 -3.5 20.499 -4.5s12.166 -1.5 17.499 -1.5
c22 0 40.333 6.83301 55 20.5s27 35.5 37 65.5h66z" />
    <glyph glyph-name="Odieresis" unicode="&#xd6;" horiz-adv-x="1360" 
d="M717 1241c-107.333 0 -190.834 -57.668 -250.501 -173.001s-89.5 -278 -89.5 -488c0 -143.333 26 -257.666 78 -342.999s121 -128 207 -128c94.667 0 171.834 56.333 231.501 169s89.5 261 89.5 445c0 158.667 -24.333 284.667 -73 378s-113 140 -193 140z
M60.999 679.999c0 104 13.334 205.332 40.001 303.999s62.667 182.334 108 251.001c45.333 69.333 99 120.5 161 153.5s136.667 49.5 224 49.5c214 0 384.5 -68.833 511.5 -206.5s190.5 -324.167 190.5 -559.5c0 -224.667 -50.833 -399.667 -152.5 -525
s-243.834 -188 -426.501 -188c-200 0 -359.333 64.667 -478 194s-178 305 -178 527zM741 1676c0 32 12 59.667 36 83s52.333 35 85 35s60.667 -11.5 84 -34.5s35 -50.833 35 -83.5c0 -36 -11.167 -65.5 -33.5 -88.5s-50.833 -34.5 -85.5 -34.5
c-33.333 0 -61.833 12 -85.5 36s-35.5 53 -35.5 87zM377 1676c0 32 12 59.667 36 83s52.333 35 85 35s60.667 -11.5 84 -34.5s35 -50.833 35 -83.5c0 -36 -11.167 -65.5 -33.5 -88.5s-50.833 -34.5 -85.5 -34.5c-34 0 -62.667 12 -86 36s-35 53 -35 87z" />
    <glyph glyph-name="multiply" unicode="&#xd7;" horiz-adv-x="1706" 
d="M403 1188l459 -459l461 459l117 -117l-459 -461l459 -458l-117 -119l-461 461l-459 -461l-116 119l458 458l-458 461z" />
    <glyph glyph-name="Oslash" unicode="&#xd8;" horiz-adv-x="1360" 
d="M387 442l236 366.002l231 380c-20 23.333 -43 40.666 -69 51.999s-55 17 -87 17c-104 0 -184.5 -56.333 -241.5 -169s-85.5 -273.334 -85.5 -482.001c0 -22 1.33301 -46.5 4 -73.5s6.66699 -57.167 12 -90.5zM946 1010l-246.002 -405.001l-231 -386
c26.667 -37.333 55.334 -64.666 86.001 -81.999s64.667 -26 102 -26c96 0 174.667 58.5 236 175.5s92 268.5 92 454.5c0 56 -3.16699 105.167 -9.5 147.5s-16.166 82.833 -29.499 121.5zM222.998 156.001c-56.667 60.667 -98.833 132.168 -126.5 214.501
s-41.5 178.5 -41.5 288.5c0 126.667 15 242.667 45 348s73.667 195.666 131 270.999c45.333 59.333 94 101.5 146 126.5s117.333 37.5 196 37.5c85.333 0 158 -7.5 218 -22.5s109 -38.167 147 -69.5l21 28c48.667 66 81.334 99 98.001 99
c21.333 0 49.833 -14.167 85.5 -42.5s53.5 -53.833 53.5 -76.5c0 -19.333 -30.667 -65 -92 -137v0c66.667 -62.667 116.5 -138.167 149.5 -226.5s49.5 -190.5 49.5 -306.5c0 -222.667 -51.333 -399.167 -154 -529.5s-241.334 -195.5 -416.001 -195.5
c-75.333 0 -142.833 6.66699 -202.5 20s-112.167 33.333 -157.5 60l-70 -127c-6.66699 -12 -16.667 -21.833 -30 -29.5s-27.333 -11.5 -42 -11.5c-24.667 0 -52.667 8.66699 -84 26s-47 34.666 -47 51.999c0 8.66699 7.33301 22.334 22 41.001c8 10.667 13.667 18.667 17 24
z" />
    <glyph glyph-name="Ugrave" unicode="&#xd9;" horiz-adv-x="1327" 
d="M903 147c-46.667 -62 -94.8311 -108.169 -144.498 -138.502s-102.5 -45.5 -158.5 -45.5c-70.667 0 -144.167 19.667 -220.5 59s-131.833 87.333 -166.5 144c-31.333 51.333 -53.5 130.166 -66.5 236.499s-19.5 275.833 -19.5 508.5c0 134.667 2.66699 228.667 8 282
s14.333 90 27 110c11.333 18 26.166 30.333 44.499 37s55.166 10 110.499 10c45.333 0 75.166 -6.5 89.499 -19.5s21.5 -37.5 21.5 -73.5c0 -6.66699 -0.666992 -20.167 -2 -40.5s-2 -38.166 -2 -53.499l-4 -456v-60c0 -189.333 12 -322.666 36 -399.999
s64.667 -116 122 -116c46.667 0 92.834 21.167 138.501 63.5s84.834 100.5 117.501 174.5c24.667 57.333 42.334 124.833 53.001 202.5s16 182.834 16 315.501v80l-4 346c0 39.333 7 67.833 21 85.5s36.333 26.5 67 26.5c3.33301 0 8.16602 -0.333008 14.499 -1
s11.166 -1 14.499 -1h106c32 0 53.667 -6.66699 65 -20s17 -38.666 17 -75.999c0 -4 -0.333008 -10.667 -1 -20s-1 -17 -1 -23l-10 -207c-5.33301 -118.667 -9.33301 -233 -12 -343s-4 -212 -4 -306v-225l-2 -158c0 -32.667 -10.5 -53.834 -31.5 -63.501
s-62.5 -14.5 -124.5 -14.5c-36.667 0 -61.5 4 -74.5 12s-20.833 23.333 -23.5 46zM859.003 1512h-91.001l-313 164c-37.333 20 -62.333 37.667 -75 53s-19 33.666 -19 54.999c0 26.667 8.33301 48.334 25 65.001s38.334 25 65.001 25c20 0 40.5 -6.33301 61.5 -19
s45.5 -33.667 73.5 -63z" />
    <glyph glyph-name="Uacute" unicode="&#xda;" horiz-adv-x="1327" 
d="M903 147c-46.667 -62 -94.8311 -108.169 -144.498 -138.502s-102.5 -45.5 -158.5 -45.5c-70.667 0 -144.167 19.667 -220.5 59s-131.833 87.333 -166.5 144c-31.333 51.333 -53.5 130.166 -66.5 236.499s-19.5 275.833 -19.5 508.5c0 134.667 2.66699 228.667 8 282
s14.333 90 27 110c11.333 18 26.166 30.333 44.499 37s55.166 10 110.499 10c45.333 0 75.166 -6.5 89.499 -19.5s21.5 -37.5 21.5 -73.5c0 -6.66699 -0.666992 -20.167 -2 -40.5s-2 -38.166 -2 -53.499l-4 -456v-60c0 -189.333 12 -322.666 36 -399.999
s64.667 -116 122 -116c46.667 0 92.834 21.167 138.501 63.5s84.834 100.5 117.501 174.5c24.667 57.333 42.334 124.833 53.001 202.5s16 182.834 16 315.501v80l-4 346c0 39.333 7 67.833 21 85.5s36.333 26.5 67 26.5c3.33301 0 8.16602 -0.333008 14.499 -1
s11.166 -1 14.499 -1h106c32 0 53.667 -6.66699 65 -20s17 -38.666 17 -75.999c0 -4 -0.333008 -10.667 -1 -20s-1 -17 -1 -23l-10 -207c-5.33301 -118.667 -9.33301 -233 -12 -343s-4 -212 -4 -306v-225l-2 -158c0 -32.667 -10.5 -53.834 -31.5 -63.501
s-62.5 -14.5 -124.5 -14.5c-36.667 0 -61.5 4 -74.5 12s-20.833 23.333 -23.5 46zM469.003 1512l272.999 280c28 29.333 52.5 50.333 73.5 63s41.5 19 61.5 19c26.667 0 48.334 -8.33301 65.001 -25s25 -38.334 25 -65.001c0 -21.333 -6.33301 -39.666 -19 -54.999
s-37.667 -33 -75 -53l-313 -164h-91z" />
    <glyph glyph-name="Ucircumflex" unicode="&#xdb;" horiz-adv-x="1327" 
d="M903 147c-46.667 -62 -94.8311 -108.169 -144.498 -138.502s-102.5 -45.5 -158.5 -45.5c-70.667 0 -144.167 19.667 -220.5 59s-131.833 87.333 -166.5 144c-31.333 51.333 -53.5 130.166 -66.5 236.499s-19.5 275.833 -19.5 508.5c0 134.667 2.66699 228.667 8 282
s14.333 90 27 110c11.333 18 26.166 30.333 44.499 37s55.166 10 110.499 10c45.333 0 75.166 -6.5 89.499 -19.5s21.5 -37.5 21.5 -73.5c0 -6.66699 -0.666992 -20.167 -2 -40.5s-2 -38.166 -2 -53.499l-4 -456v-60c0 -189.333 12 -322.666 36 -399.999
s64.667 -116 122 -116c46.667 0 92.834 21.167 138.501 63.5s84.834 100.5 117.501 174.5c24.667 57.333 42.334 124.833 53.001 202.5s16 182.834 16 315.501v80l-4 346c0 39.333 7 67.833 21 85.5s36.333 26.5 67 26.5c3.33301 0 8.16602 -0.333008 14.499 -1
s11.166 -1 14.499 -1h106c32 0 53.667 -6.66699 65 -20s17 -38.666 17 -75.999c0 -4 -0.333008 -10.667 -1 -20s-1 -17 -1 -23l-10 -207c-5.33301 -118.667 -9.33301 -233 -12 -343s-4 -212 -4 -306v-225l-2 -158c0 -32.667 -10.5 -53.834 -31.5 -63.501
s-62.5 -14.5 -124.5 -14.5c-36.667 0 -61.5 4 -74.5 12s-20.833 23.333 -23.5 46zM365.003 1512l225 348h148l225 -348h-84l-215 178l-215 -178h-84z" />
    <glyph glyph-name="Udieresis" unicode="&#xdc;" horiz-adv-x="1327" 
d="M903 147c-46.667 -62 -94.8311 -108.169 -144.498 -138.502s-102.5 -45.5 -158.5 -45.5c-70.667 0 -144.167 19.667 -220.5 59s-131.833 87.333 -166.5 144c-31.333 51.333 -53.5 130.166 -66.5 236.499s-19.5 275.833 -19.5 508.5c0 134.667 2.66699 228.667 8 282
s14.333 90 27 110c11.333 18 26.166 30.333 44.499 37s55.166 10 110.499 10c45.333 0 75.166 -6.5 89.499 -19.5s21.5 -37.5 21.5 -73.5c0 -6.66699 -0.666992 -20.167 -2 -40.5s-2 -38.166 -2 -53.499l-4 -456v-60c0 -189.333 12 -322.666 36 -399.999
s64.667 -116 122 -116c46.667 0 92.834 21.167 138.501 63.5s84.834 100.5 117.501 174.5c24.667 57.333 42.334 124.833 53.001 202.5s16 182.834 16 315.501v80l-4 346c0 39.333 7 67.833 21 85.5s36.333 26.5 67 26.5c3.33301 0 8.16602 -0.333008 14.499 -1
s11.166 -1 14.499 -1h106c32 0 53.667 -6.66699 65 -20s17 -38.666 17 -75.999c0 -4 -0.333008 -10.667 -1 -20s-1 -17 -1 -23l-10 -207c-5.33301 -118.667 -9.33301 -233 -12 -343s-4 -212 -4 -306v-225l-2 -158c0 -32.667 -10.5 -53.834 -31.5 -63.501
s-62.5 -14.5 -124.5 -14.5c-36.667 0 -61.5 4 -74.5 12s-20.833 23.333 -23.5 46zM725.003 1676c0 32 12 59.667 36 83s52.333 35 85 35s60.667 -11.5 84 -34.5s35 -50.833 35 -83.5c0 -36 -11.167 -65.5 -33.5 -88.5s-50.833 -34.5 -85.5 -34.5
c-33.333 0 -61.833 12 -85.5 36s-35.5 53 -35.5 87zM361.003 1676c0 32 12 59.667 36 83s52.333 35 85 35s60.667 -11.5 84 -34.5s35 -50.833 35 -83.5c0 -36 -11.167 -65.5 -33.5 -88.5s-50.833 -34.5 -85.5 -34.5c-34 0 -62.667 12 -86 36s-35 53 -35 87z" />
    <glyph glyph-name="Yacute" unicode="&#xdd;" horiz-adv-x="1161" 
d="M453 51l4.00098 431.999c0 27.333 -2.83301 50.833 -8.5 70.5s-15.167 39.834 -28.5 60.501l-459 719c-3.33301 5.33301 -6.16602 11 -8.49902 17s-3.5 10.667 -3.5 14c0 10.667 15.667 19.167 47 25.5s73.666 9.5 126.999 9.5c28.667 0 50.5 -3.16699 65.5 -9.5
s30.833 -21.833 47.5 -46.5l333 -507l265 494c0.666992 1.33301 1.66699 3 3 5c16 28.667 38 43.667 66 45l252 9c7.33301 0 14.333 -2.83301 21 -8.5s10 -11.167 10 -16.5c0 -2.66699 -1.5 -7.66699 -4.5 -15s-6.83301 -15 -11.5 -23l-390 -669
c-0.666992 -1.33301 -2.33398 -4.33301 -5.00098 -9c-22.667 -38 -34 -77.333 -34 -118l-4 -456c0 -40 -9 -64 -27 -72s-69 -12 -153 -12c-42 0 -69.833 4 -83.5 12s-20.5 24.333 -20.5 49zM387.001 1512l272.999 280c28 29.333 52.5 50.333 73.5 63s41.5 19 61.5 19
c26.667 0 48.334 -8.33301 65.001 -25s25 -38.334 25 -65.001c0 -21.333 -6.33301 -39.666 -19 -54.999s-37.667 -33 -75 -53l-313 -164h-91z" />
    <glyph glyph-name="Thorn" unicode="&#xde;" horiz-adv-x="1186" 
d="M410 934l-1.99902 -393c0 -39.333 4.5 -63.833 13.5 -73.5s26.833 -14.5 53.5 -14.5c111.333 0 201.666 27.833 270.999 83.5s104 128.167 104 217.5c0 79.333 -23.667 142.5 -71 189.5s-111 70.5 -191 70.5c-56 0 -99.667 -7.16699 -131 -21.5s-47 -33.833 -47 -58.5z
M127.001 831c-2 176.667 -11.667 343.668 -29 501.001c-2.66699 21.333 -4 33.333 -4 36c0 28 10.333 46.667 31 56s67.667 14 141 14c70.667 0 116 -4.66699 136 -14s30 -28 30 -56c0 -10.667 -1.5 -27.667 -4.5 -51s-7.5 -52.666 -13.5 -87.999h37
c218.667 0 393.834 -48.333 525.501 -145s197.5 -222.334 197.5 -377.001c0 -68.667 -15.667 -130.834 -47 -186.501s-77.333 -103.5 -138 -143.5c-56.667 -36.667 -122.5 -66 -197.5 -88s-147.833 -33 -218.5 -33c-4 0 -12.167 0.333008 -24.5 1s-22.5 1 -30.5 1
c-38.667 0 -64.667 -5.66699 -78 -17s-20 -34.333 -20 -69c0 -16 -0.666992 -33 -2 -51v-8v-84c0 -25.333 -10 -41.666 -30 -48.999s-54.333 -11 -103 -11h-39c-9.33301 0 -19.833 -0.333008 -31.5 -1s-18.834 -1 -21.501 -1c-21.333 0 -37.333 4.66699 -48 14
s-16 23.333 -16 42c0 7.33301 1 25.166 3 53.499s3 52.833 3 73.5z" />
    <glyph glyph-name="germandbls" unicode="&#xdf;" horiz-adv-x="1233" 
d="M590 510c-54 24.667 -94.502 56.3281 -121.502 94.9951s-40.5 84.667 -40.5 138c0 43.333 10.667 79.5 32 108.5s60.666 58.5 117.999 88.5c4.66699 2.66699 11.667 6.33398 21 11.001c96 49.333 144 112 144 188c0 66.667 -23.833 121.834 -71.5 165.501
s-108.5 65.5 -182.5 65.5c-99.333 0 -149.666 -82.333 -150.999 -247v-40l-6 -729c0 -52.667 2 -113 6 -181s6 -110 6 -126c0 -30 -7 -50.167 -21 -60.5s-41.667 -15.5 -83 -15.5c-53.333 0 -90 8.33301 -110 25s-30 49.334 -30 98.001c0 9.33301 1.5 30.166 4.5 62.499
s4.5 60.833 4.5 85.5l6 790c1.33301 222.667 25.333 361.334 72 416.001s131.667 82 255 82c158.667 0 284.834 -35 378.501 -105s140.5 -164 140.5 -282c0 -54.667 -10.833 -100.667 -32.5 -138s-66.167 -78 -133.5 -122c-54.667 -35.333 -91.334 -64.5 -110.001 -87.5
s-28 -47.833 -28 -74.5c0 -24 9.5 -44.5 28.5 -61.5s53.167 -34.833 102.5 -53.5l218 -80c62.667 -22.667 108.667 -53 138 -91s44 -86 44 -144c0 -96.667 -36.333 -175.5 -109 -236.5s-167.334 -91.5 -284.001 -91.5c-105.333 0 -193.166 36.167 -263.499 108.5
s-105.5 157.833 -105.5 256.5c0 24.667 11.667 44.834 35 60.501s53.333 23.5 90 23.5c36 0 62.667 -27.333 80 -82l16 -47c24.667 -64 49.334 -109.833 74.001 -137.5s53.334 -41.5 86.001 -41.5c36 0 67.833 18.167 95.5 54.5s41.5 78.5 41.5 126.5
c0 51.333 -36.333 90 -109 116c-20 6.66699 -34.667 12.334 -44 17.001z" />
    <glyph glyph-name="agrave" unicode="&#xe0;" horiz-adv-x="985" 
d="M885 449l-0.00195312 -279.002c0 -47.333 1.66699 -93.666 5 -138.999c0.666992 -8 1 -13 1 -15c0 -19.333 -10.333 -32.666 -31 -39.999s-69 -11 -145 -11l-60 62c-4.66699 4.66699 -9 8.16699 -13 10.5s-7.66699 3.5 -11 3.5c-2.66699 0 -8.66699 -3 -18 -9
c-60.667 -39.333 -132.667 -59 -216 -59c-100.667 0 -182.5 25.667 -245.5 77s-94.5 117.333 -94.5 198c0 82.667 34.5 149.167 103.5 199.5s166.5 80.166 292.5 89.499l158 10c22 2 36 9.33301 42 22s9 45 9 97c0 59.333 -11.167 105.833 -33.5 139.5
s-52.833 50.5 -91.5 50.5c-36 0 -70.833 -17 -104.5 -51s-61.167 -80 -82.5 -138l-9 -26c-18.667 -56 -45 -84 -79 -84c-73.333 0 -122.666 4 -147.999 12s-38 23 -38 45c0 10.667 7 30.334 21 59.001c8.66699 17.333 15.334 31.333 20.001 42l10 26c20 52 41 93 63 123
c30 40 64.5 69.167 103.5 87.5s85.833 27.5 140.5 27.5c76 0 147.167 -9 213.5 -27s116.833 -41 151.5 -69c31.333 -26.667 53.5 -61.167 66.5 -103.5s19.5 -111.833 19.5 -208.5v-122zM644.998 351.998c0 28 -2.33203 48.333 -6.99902 61s-12 19 -22 19
c-76 0 -148.5 -26.333 -217.5 -79s-103.5 -111.667 -103.5 -177c0 -26 7.16699 -45.5 21.5 -58.5s35.833 -19.5 64.5 -19.5c65.333 0 125.666 24.667 180.999 74s83 109.333 83 180zM724.999 1061h-91.001l-313 164c-37.333 20 -62.333 37.667 -75 53s-19 33.666 -19 54.999
c0 26.667 8.33301 48.334 25 65.001s38.334 25 65.001 25c20 0 40.5 -6.33301 61.5 -19s45.5 -33.667 73.5 -63z" />
    <glyph glyph-name="aacute" unicode="&#xe1;" horiz-adv-x="985" 
d="M885 449l-0.00195312 -279.002c0 -47.333 1.66699 -93.666 5 -138.999c0.666992 -8 1 -13 1 -15c0 -19.333 -10.333 -32.666 -31 -39.999s-69 -11 -145 -11l-60 62c-4.66699 4.66699 -9 8.16699 -13 10.5s-7.66699 3.5 -11 3.5c-2.66699 0 -8.66699 -3 -18 -9
c-60.667 -39.333 -132.667 -59 -216 -59c-100.667 0 -182.5 25.667 -245.5 77s-94.5 117.333 -94.5 198c0 82.667 34.5 149.167 103.5 199.5s166.5 80.166 292.5 89.499l158 10c22 2 36 9.33301 42 22s9 45 9 97c0 59.333 -11.167 105.833 -33.5 139.5
s-52.833 50.5 -91.5 50.5c-36 0 -70.833 -17 -104.5 -51s-61.167 -80 -82.5 -138l-9 -26c-18.667 -56 -45 -84 -79 -84c-73.333 0 -122.666 4 -147.999 12s-38 23 -38 45c0 10.667 7 30.334 21 59.001c8.66699 17.333 15.334 31.333 20.001 42l10 26c20 52 41 93 63 123
c30 40 64.5 69.167 103.5 87.5s85.833 27.5 140.5 27.5c76 0 147.167 -9 213.5 -27s116.833 -41 151.5 -69c31.333 -26.667 53.5 -61.167 66.5 -103.5s19.5 -111.833 19.5 -208.5v-122zM644.998 351.998c0 28 -2.33203 48.333 -6.99902 61s-12 19 -22 19
c-76 0 -148.5 -26.333 -217.5 -79s-103.5 -111.667 -103.5 -177c0 -26 7.16699 -45.5 21.5 -58.5s35.833 -19.5 64.5 -19.5c65.333 0 125.666 24.667 180.999 74s83 109.333 83 180zM334.999 1061l272.999 280c28 29.333 52.5 50.333 73.5 63s41.5 19 61.5 19
c26.667 0 48.334 -8.33301 65.001 -25s25 -38.334 25 -65.001c0 -21.333 -6.33301 -39.666 -19 -54.999s-37.667 -33 -75 -53l-313 -164h-91z" />
    <glyph glyph-name="acircumflex" unicode="&#xe2;" horiz-adv-x="985" 
d="M885 449l-0.00195312 -279.002c0 -47.333 1.66699 -93.666 5 -138.999c0.666992 -8 1 -13 1 -15c0 -19.333 -10.333 -32.666 -31 -39.999s-69 -11 -145 -11l-60 62c-4.66699 4.66699 -9 8.16699 -13 10.5s-7.66699 3.5 -11 3.5c-2.66699 0 -8.66699 -3 -18 -9
c-60.667 -39.333 -132.667 -59 -216 -59c-100.667 0 -182.5 25.667 -245.5 77s-94.5 117.333 -94.5 198c0 82.667 34.5 149.167 103.5 199.5s166.5 80.166 292.5 89.499l158 10c22 2 36 9.33301 42 22s9 45 9 97c0 59.333 -11.167 105.833 -33.5 139.5
s-52.833 50.5 -91.5 50.5c-36 0 -70.833 -17 -104.5 -51s-61.167 -80 -82.5 -138l-9 -26c-18.667 -56 -45 -84 -79 -84c-73.333 0 -122.666 4 -147.999 12s-38 23 -38 45c0 10.667 7 30.334 21 59.001c8.66699 17.333 15.334 31.333 20.001 42l10 26c20 52 41 93 63 123
c30 40 64.5 69.167 103.5 87.5s85.833 27.5 140.5 27.5c76 0 147.167 -9 213.5 -27s116.833 -41 151.5 -69c31.333 -26.667 53.5 -61.167 66.5 -103.5s19.5 -111.833 19.5 -208.5v-122zM644.998 351.998c0 28 -2.33203 48.333 -6.99902 61s-12 19 -22 19
c-76 0 -148.5 -26.333 -217.5 -79s-103.5 -111.667 -103.5 -177c0 -26 7.16699 -45.5 21.5 -58.5s35.833 -19.5 64.5 -19.5c65.333 0 125.666 24.667 180.999 74s83 109.333 83 180zM230.999 1061l225 348h148l225 -348h-84l-215 178l-215 -178h-84z" />
    <glyph glyph-name="atilde" unicode="&#xe3;" horiz-adv-x="985" 
d="M885 449l-0.00195312 -279.002c0 -47.333 1.66699 -93.666 5 -138.999c0.666992 -8 1 -13 1 -15c0 -19.333 -10.333 -32.666 -31 -39.999s-69 -11 -145 -11l-60 62c-4.66699 4.66699 -9 8.16699 -13 10.5s-7.66699 3.5 -11 3.5c-2.66699 0 -8.66699 -3 -18 -9
c-60.667 -39.333 -132.667 -59 -216 -59c-100.667 0 -182.5 25.667 -245.5 77s-94.5 117.333 -94.5 198c0 82.667 34.5 149.167 103.5 199.5s166.5 80.166 292.5 89.499l158 10c22 2 36 9.33301 42 22s9 45 9 97c0 59.333 -11.167 105.833 -33.5 139.5
s-52.833 50.5 -91.5 50.5c-36 0 -70.833 -17 -104.5 -51s-61.167 -80 -82.5 -138l-9 -26c-18.667 -56 -45 -84 -79 -84c-73.333 0 -122.666 4 -147.999 12s-38 23 -38 45c0 10.667 7 30.334 21 59.001c8.66699 17.333 15.334 31.333 20.001 42l10 26c20 52 41 93 63 123
c30 40 64.5 69.167 103.5 87.5s85.833 27.5 140.5 27.5c76 0 147.167 -9 213.5 -27s116.833 -41 151.5 -69c31.333 -26.667 53.5 -61.167 66.5 -103.5s19.5 -111.833 19.5 -208.5v-122zM644.998 351.998c0 28 -2.33203 48.333 -6.99902 61s-12 19 -22 19
c-76 0 -148.5 -26.333 -217.5 -79s-103.5 -111.667 -103.5 -177c0 -26 7.16699 -45.5 21.5 -58.5s35.833 -19.5 64.5 -19.5c65.333 0 125.666 24.667 180.999 74s83 109.333 83 180zM818.999 1382c-11.333 -82 -34.665 -143.333 -69.998 -184s-83 -61 -143 -61
c-8.66699 0 -17.167 0.5 -25.5 1.5s-16.5 2.5 -24.5 4.5l-103 28c-9.33301 2.66699 -18.166 4.5 -26.499 5.5s-18.833 1.5 -31.5 1.5c-22 0 -40 -6.83301 -54 -20.5s-26 -35.5 -36 -65.5h-66c11.333 82 34.5 143.333 69.5 184s82.167 61 141.5 61
c11.333 0 22.166 -0.666992 32.499 -2s20.833 -3.33301 31.5 -6l109 -27c7.33301 -2 14.166 -3.5 20.499 -4.5s12.166 -1.5 17.499 -1.5c22 0 40.333 6.83301 55 20.5s27 35.5 37 65.5h66z" />
    <glyph glyph-name="adieresis" unicode="&#xe4;" horiz-adv-x="985" 
d="M885 449l-0.00195312 -279.002c0 -47.333 1.66699 -93.666 5 -138.999c0.666992 -8 1 -13 1 -15c0 -19.333 -10.333 -32.666 -31 -39.999s-69 -11 -145 -11l-60 62c-4.66699 4.66699 -9 8.16699 -13 10.5s-7.66699 3.5 -11 3.5c-2.66699 0 -8.66699 -3 -18 -9
c-60.667 -39.333 -132.667 -59 -216 -59c-100.667 0 -182.5 25.667 -245.5 77s-94.5 117.333 -94.5 198c0 82.667 34.5 149.167 103.5 199.5s166.5 80.166 292.5 89.499l158 10c22 2 36 9.33301 42 22s9 45 9 97c0 59.333 -11.167 105.833 -33.5 139.5
s-52.833 50.5 -91.5 50.5c-36 0 -70.833 -17 -104.5 -51s-61.167 -80 -82.5 -138l-9 -26c-18.667 -56 -45 -84 -79 -84c-73.333 0 -122.666 4 -147.999 12s-38 23 -38 45c0 10.667 7 30.334 21 59.001c8.66699 17.333 15.334 31.333 20.001 42l10 26c20 52 41 93 63 123
c30 40 64.5 69.167 103.5 87.5s85.833 27.5 140.5 27.5c76 0 147.167 -9 213.5 -27s116.833 -41 151.5 -69c31.333 -26.667 53.5 -61.167 66.5 -103.5s19.5 -111.833 19.5 -208.5v-122zM644.998 351.998c0 28 -2.33203 48.333 -6.99902 61s-12 19 -22 19
c-76 0 -148.5 -26.333 -217.5 -79s-103.5 -111.667 -103.5 -177c0 -26 7.16699 -45.5 21.5 -58.5s35.833 -19.5 64.5 -19.5c65.333 0 125.666 24.667 180.999 74s83 109.333 83 180zM590.999 1225c0 32 12 59.667 36 83s52.333 35 85 35s60.667 -11.5 84 -34.5
s35 -50.833 35 -83.5c0 -36 -11.167 -65.5 -33.5 -88.5s-50.833 -34.5 -85.5 -34.5c-33.333 0 -61.833 12 -85.5 36s-35.5 53 -35.5 87zM226.999 1225c0 32 12 59.667 36 83s52.333 35 85 35s60.667 -11.5 84 -34.5s35 -50.833 35 -83.5c0 -36 -11.167 -65.5 -33.5 -88.5
s-50.833 -34.5 -85.5 -34.5c-34 0 -62.667 12 -86 36s-35 53 -35 87z" />
    <glyph glyph-name="aring" unicode="&#xe5;" horiz-adv-x="985" 
d="M614 1288c-4 0.666992 -8.33203 1.16504 -12.999 1.49805s-11 0.5 -19 0.5c-34.667 0 -63.834 -10.667 -87.501 -32s-35.5 -46.666 -35.5 -75.999c0 -24 10 -45 30 -63s42.667 -27 68 -27c27.333 0 51.166 10 71.499 30s30.5 43.333 30.5 70
c0 16.667 -3.66699 32.834 -11 48.501s-18.666 31.5 -33.999 47.5zM541.001 1012c-54.667 0 -99.832 16.832 -135.499 50.499s-53.5 76.167 -53.5 127.5c0 54 17.833 98.5 53.5 133.5s81.5 52.5 137.5 52.5c15.333 0 31.5 -2.83301 48.5 -8.5s40.5 -16.5 70.5 -32.5
c35.333 -20.667 57.666 -39.167 66.999 -55.5s14 -40.166 14 -71.499c0 -61.333 -17.833 -109.333 -53.5 -144s-85.167 -52 -148.5 -52zM645.003 351.997c0 28 -2.33203 48.333 -6.99902 61s-12 19 -22 19c-76 0 -148.5 -26.333 -217.5 -79s-103.5 -111.667 -103.5 -177
c0 -26 7.16699 -45.5 21.5 -58.5s35.833 -19.5 64.5 -19.5c65.333 0 125.666 24.667 180.999 74s83 109.333 83 180zM453.004 536.997l157.998 9.99805c22 2 36 9.33301 42 22s9 45 9 97c0 59.333 -11.167 105.833 -33.5 139.5s-52.833 50.5 -91.5 50.5
c-36 0 -70.833 -17 -104.5 -51s-61.167 -80 -82.5 -138l-9 -26c-18.667 -56 -45 -84 -79 -84c-73.333 0 -122.666 4 -147.999 12s-38 23 -38 45c0 10.667 7 30.334 21 59.001c8.66699 17.333 15.334 31.333 20.001 42l10 26c20 52 41 93 63 123
c30 40 64.5 69.167 103.5 87.5s85.833 27.5 140.5 27.5c76 0 147.167 -9 213.5 -27s116.833 -41 151.5 -69c31.333 -26.667 53.5 -61.167 66.5 -103.5s19.5 -111.833 19.5 -208.5v-122v-279c0 -47.333 1.66699 -93.666 5 -138.999c0.666992 -8 1 -13 1 -15
c0 -19.333 -10.333 -32.666 -31 -39.999s-69 -11 -145 -11l-60 62c-4.66699 4.66699 -9 8.16699 -13 10.5s-7.66699 3.5 -11 3.5c-2.66699 0 -8.66699 -3 -18 -9c-60.667 -39.333 -132.667 -59 -216 -59c-100.667 0 -182.5 25.667 -245.5 77s-94.5 117.333 -94.5 198
c0 82.667 34.5 149.167 103.5 199.5s166.5 80.166 292.5 89.499z" />
    <glyph glyph-name="ae" unicode="&#xe6;" horiz-adv-x="1542" 
d="M924 545l221.999 22.001c34 3.33301 56.333 8.33301 67 15s16 19.667 16 39c0 62 -12.667 113 -38 153s-57.666 60 -96.999 60c-48.667 0 -95 -30.333 -139 -91s-66 -119.334 -66 -176.001c0 -10 1.16699 -16.167 3.5 -18.5s7.83301 -3.5 16.5 -3.5h15zM790.999 881.001
c33.333 36.667 66.334 63.501 99.001 80.501s67 25.5 103 25.5c68 0 141.667 -13.833 221 -41.5s136 -58.834 170 -93.501c35.333 -35.333 64.666 -86.166 87.999 -152.499s35 -132.166 35 -197.499c0 -47.333 -44.667 -77.333 -134 -90h-3l-449 -60
c-12.667 -2 -21.5 -6.66699 -26.5 -14s-7.5 -19 -7.5 -35c0 -53.333 15.5 -98.333 46.5 -135s68.833 -55 113.5 -55c33.333 0 68.166 11 104.499 33s66.833 50.333 91.5 85c3.33301 4.66699 7.33301 11 12 19c29.333 43.333 61 65 95 65c8 0 19.833 -0.333008 35.5 -1
s27.5 -1 35.5 -1h19c23.333 0 40.333 -2.83301 51 -8.5s16 -14.167 16 -25.5c0 -10.667 -6.5 -26.334 -19.5 -47.001s-37.167 -53 -72.5 -97c-53.333 -65.333 -101.166 -109 -143.499 -131s-92.833 -33 -151.5 -33c-68 0 -139.333 12.333 -214 37s-134.334 56 -179.001 94
c-64 -46.667 -120 -79.834 -168 -99.501s-97 -29.5 -147 -29.5c-107.333 0 -193.333 25.167 -258 75.5s-97 116.833 -97 199.5s34.5 149.167 103.5 199.5s166.5 80.166 292.5 89.499l158 10c22 2 36 9.33301 42 22s9 45 9 97c0 59.333 -11.167 105.833 -33.5 139.5
s-52.833 50.5 -91.5 50.5c-36 0 -70.833 -17 -104.5 -51s-61.167 -80 -82.5 -138l-9 -26c-18.667 -56 -45 -84 -79 -84c-73.333 0 -122.666 4 -147.999 12s-38 23 -38 45c0 10.667 7 30.334 21 59.001c8.66699 17.333 15.334 31.333 20.001 42l10 26c20 52 41 93 63 123
c29.333 39.333 63.666 68.333 102.999 87s85.666 28 138.999 28c80.667 0 152.334 -8.66699 215.001 -26s110.667 -41.333 144 -72zM645 352.002c0 28 -2.33203 48.333 -6.99902 61s-12 19 -22 19c-76 0 -148.5 -26.333 -217.5 -79s-103.5 -111.667 -103.5 -177
c0 -26 7.16699 -45.5 21.5 -58.5s35.833 -19.5 64.5 -19.5c65.333 0 125.666 24.667 180.999 74s83 109.333 83 180z" />
    <glyph glyph-name="ccedilla" unicode="&#xe7;" horiz-adv-x="1014" 
d="M502 88c37.333 0 73.1689 13.167 107.502 39.5s71.5 69.833 111.5 130.5c2 4 5.33301 9 10 15c23.333 38 51.333 57 84 57c2.66699 0 11.667 -0.333008 27 -1s29 -1 41 -1c40 0 66 -3.33301 78 -10s18 -17.667 18 -33c0 -16.667 -9.33301 -41.167 -28 -73.5
s-44.334 -68.166 -77.001 -107.499c-47.333 -56.667 -93.166 -96.667 -137.499 -120s-96.5 -35 -156.5 -35c-176 0 -304.667 40.167 -386 120.5s-122 208.166 -122 383.499c0 168.667 29.667 299.5 89 392.5s143 139.5 251 139.5c90.667 0 181 -16 271 -48
s154.667 -69.333 194 -112c25.333 -28.667 44.166 -67 56.499 -115s18.5 -108 18.5 -180c0 -22.667 -3.83301 -37.5 -11.5 -44.5s-24.167 -10.5 -49.5 -10.5c-68.667 0 -112.834 4.5 -132.501 13.5s-31.5 32.5 -35.5 70.5c-8.66699 86 -30 156 -64 210s-72.667 81 -116 81
c-56.667 0 -105 -42 -145 -126s-60 -188.667 -60 -314c0 -102.667 14.333 -182 43 -238s69 -84 121 -84zM258.003 -375l40.998 87.999c52 -28 96.5 -47.167 133.5 -57.5s75.167 -15.5 114.5 -15.5c26 0 46.833 7.33301 62.5 22s23.5 34.334 23.5 59.001
c0 28.667 -8.66699 50.167 -26 64.5s-43.666 21.5 -78.999 21.5c-9.33301 0 -18.666 -0.5 -27.999 -1.5s-19 -2.16699 -29 -3.5v198h70v-112l42.5 3.5l30.5 2.5c53.333 0 96.5 -15.667 129.5 -47s49.5 -72.333 49.5 -123c0 -56.667 -20.167 -101 -60.5 -133
s-96.833 -48 -169.5 -48c-36 0 -76 5.66699 -120 17s-105.667 33 -185 65z" />
    <glyph glyph-name="egrave" unicode="&#xe8;" horiz-adv-x="995" 
d="M369 541l222.999 22.002c30.667 2.66699 52 7.66699 64 15s18 19.333 18 36c0 64 -12.667 115.833 -38 155.5s-57.666 59.5 -96.999 59.5c-49.333 0 -95.833 -29.833 -139.5 -89.5s-65.5 -117.834 -65.5 -174.501c0 -10.667 1.5 -17.334 4.5 -20.001s8.83301 -4 17.5 -4
h13zM365.999 348.002c-12 -2 -20.6689 -6.66602 -26.002 -13.999s-8 -19 -8 -35c0 -53.333 15.333 -98 46 -134s68.667 -54 114 -54c33.333 0 68.333 10.667 105 32s67 49.333 91 84c3.33301 4.66699 7.33301 11 12 19c29.333 43.333 61 65 95 65
c8 0 19.833 -0.333008 35.5 -1s27.5 -1 35.5 -1c2 0 4.83301 0.333008 8.5 1s6.5 1 8.5 1c22.667 0 39.834 -3 51.501 -9s17.5 -15.333 17.5 -28c0 -10 -6.5 -25.333 -19.5 -46s-37.167 -53 -72.5 -97c-52 -63.333 -99.667 -106.5 -143 -129.5s-94.666 -34.5 -153.999 -34.5
c-62.667 0 -129.667 11.5 -201 34.5s-125.666 49.833 -162.999 80.5c-43.333 34.667 -75.666 81.667 -96.999 141s-32 131 -32 215c0 160.667 33.333 292 100 394s152 153 256 153c70.667 0 147.167 -13.833 229.5 -41.5s140.166 -58.834 173.499 -93.501
c35.333 -35.333 64.666 -86.333 87.999 -153s35 -133 35 -199c0 -46 -42 -75 -126 -87c-5.33301 -0.666992 -9 -1 -11 -1zM733.997 1061h-91.001l-313 164c-37.333 20 -62.333 37.667 -75 53s-19 33.666 -19 54.999c0 26.667 8.33301 48.334 25 65.001s38.334 25 65.001 25
c20 0 40.5 -6.33301 61.5 -19s45.5 -33.667 73.5 -63z" />
    <glyph glyph-name="eacute" unicode="&#xe9;" horiz-adv-x="995" 
d="M369 541l222.999 22.002c30.667 2.66699 52 7.66699 64 15s18 19.333 18 36c0 64 -12.667 115.833 -38 155.5s-57.666 59.5 -96.999 59.5c-49.333 0 -95.833 -29.833 -139.5 -89.5s-65.5 -117.834 -65.5 -174.501c0 -10.667 1.5 -17.334 4.5 -20.001s8.83301 -4 17.5 -4
h13zM365.999 348.002c-12 -2 -20.6689 -6.66602 -26.002 -13.999s-8 -19 -8 -35c0 -53.333 15.333 -98 46 -134s68.667 -54 114 -54c33.333 0 68.333 10.667 105 32s67 49.333 91 84c3.33301 4.66699 7.33301 11 12 19c29.333 43.333 61 65 95 65
c8 0 19.833 -0.333008 35.5 -1s27.5 -1 35.5 -1c2 0 4.83301 0.333008 8.5 1s6.5 1 8.5 1c22.667 0 39.834 -3 51.501 -9s17.5 -15.333 17.5 -28c0 -10 -6.5 -25.333 -19.5 -46s-37.167 -53 -72.5 -97c-52 -63.333 -99.667 -106.5 -143 -129.5s-94.666 -34.5 -153.999 -34.5
c-62.667 0 -129.667 11.5 -201 34.5s-125.666 49.833 -162.999 80.5c-43.333 34.667 -75.666 81.667 -96.999 141s-32 131 -32 215c0 160.667 33.333 292 100 394s152 153 256 153c70.667 0 147.167 -13.833 229.5 -41.5s140.166 -58.834 173.499 -93.501
c35.333 -35.333 64.666 -86.333 87.999 -153s35 -133 35 -199c0 -46 -42 -75 -126 -87c-5.33301 -0.666992 -9 -1 -11 -1zM343.997 1061l272.999 280c28 29.333 52.5 50.333 73.5 63s41.5 19 61.5 19c26.667 0 48.334 -8.33301 65.001 -25s25 -38.334 25 -65.001
c0 -21.333 -6.33301 -39.666 -19 -54.999s-37.667 -33 -75 -53l-313 -164h-91z" />
    <glyph glyph-name="ecircumflex" unicode="&#xea;" horiz-adv-x="995" 
d="M369 541l222.999 22.002c30.667 2.66699 52 7.66699 64 15s18 19.333 18 36c0 64 -12.667 115.833 -38 155.5s-57.666 59.5 -96.999 59.5c-49.333 0 -95.833 -29.833 -139.5 -89.5s-65.5 -117.834 -65.5 -174.501c0 -10.667 1.5 -17.334 4.5 -20.001s8.83301 -4 17.5 -4
h13zM365.999 348.002c-12 -2 -20.6689 -6.66602 -26.002 -13.999s-8 -19 -8 -35c0 -53.333 15.333 -98 46 -134s68.667 -54 114 -54c33.333 0 68.333 10.667 105 32s67 49.333 91 84c3.33301 4.66699 7.33301 11 12 19c29.333 43.333 61 65 95 65
c8 0 19.833 -0.333008 35.5 -1s27.5 -1 35.5 -1c2 0 4.83301 0.333008 8.5 1s6.5 1 8.5 1c22.667 0 39.834 -3 51.501 -9s17.5 -15.333 17.5 -28c0 -10 -6.5 -25.333 -19.5 -46s-37.167 -53 -72.5 -97c-52 -63.333 -99.667 -106.5 -143 -129.5s-94.666 -34.5 -153.999 -34.5
c-62.667 0 -129.667 11.5 -201 34.5s-125.666 49.833 -162.999 80.5c-43.333 34.667 -75.666 81.667 -96.999 141s-32 131 -32 215c0 160.667 33.333 292 100 394s152 153 256 153c70.667 0 147.167 -13.833 229.5 -41.5s140.166 -58.834 173.499 -93.501
c35.333 -35.333 64.666 -86.333 87.999 -153s35 -133 35 -199c0 -46 -42 -75 -126 -87c-5.33301 -0.666992 -9 -1 -11 -1zM239.997 1061l225 348h148l225 -348h-84l-215 178l-215 -178h-84z" />
    <glyph glyph-name="edieresis" unicode="&#xeb;" horiz-adv-x="995" 
d="M369 541l222.999 22.002c30.667 2.66699 52 7.66699 64 15s18 19.333 18 36c0 64 -12.667 115.833 -38 155.5s-57.666 59.5 -96.999 59.5c-49.333 0 -95.833 -29.833 -139.5 -89.5s-65.5 -117.834 -65.5 -174.501c0 -10.667 1.5 -17.334 4.5 -20.001s8.83301 -4 17.5 -4
h13zM365.999 348.002c-12 -2 -20.6689 -6.66602 -26.002 -13.999s-8 -19 -8 -35c0 -53.333 15.333 -98 46 -134s68.667 -54 114 -54c33.333 0 68.333 10.667 105 32s67 49.333 91 84c3.33301 4.66699 7.33301 11 12 19c29.333 43.333 61 65 95 65
c8 0 19.833 -0.333008 35.5 -1s27.5 -1 35.5 -1c2 0 4.83301 0.333008 8.5 1s6.5 1 8.5 1c22.667 0 39.834 -3 51.501 -9s17.5 -15.333 17.5 -28c0 -10 -6.5 -25.333 -19.5 -46s-37.167 -53 -72.5 -97c-52 -63.333 -99.667 -106.5 -143 -129.5s-94.666 -34.5 -153.999 -34.5
c-62.667 0 -129.667 11.5 -201 34.5s-125.666 49.833 -162.999 80.5c-43.333 34.667 -75.666 81.667 -96.999 141s-32 131 -32 215c0 160.667 33.333 292 100 394s152 153 256 153c70.667 0 147.167 -13.833 229.5 -41.5s140.166 -58.834 173.499 -93.501
c35.333 -35.333 64.666 -86.333 87.999 -153s35 -133 35 -199c0 -46 -42 -75 -126 -87c-5.33301 -0.666992 -9 -1 -11 -1zM599.997 1225c0 32 12 59.667 36 83s52.333 35 85 35s60.667 -11.5 84 -34.5s35 -50.833 35 -83.5c0 -36 -11.167 -65.5 -33.5 -88.5
s-50.833 -34.5 -85.5 -34.5c-33.333 0 -61.833 12 -85.5 36s-35.5 53 -35.5 87zM235.997 1225c0 32 12 59.667 36 83s52.333 35 85 35s60.667 -11.5 84 -34.5s35 -50.833 35 -83.5c0 -36 -11.167 -65.5 -33.5 -88.5s-50.833 -34.5 -85.5 -34.5c-34 0 -62.667 12 -86 36
s-35 53 -35 87z" />
    <glyph glyph-name="igrave" unicode="&#xec;" horiz-adv-x="432" 
d="M332 102c0 -6.66699 -0.333008 -15.999 -1 -27.999c0 -53.333 -23 -80 -69 -80c-70.667 0 -116 3 -136 9s-30 20.667 -30 44c0 7.33301 0.666992 21 2 41s2 35.667 2 47l-4 522c0 41.333 -1.66699 84.166 -5 128.499s-5 68.5 -5 72.5c0 27.333 8.16699 45.833 24.5 55.5
s50.5 14.5 102.5 14.5c55.333 0 91 -3 107 -9s24 -22.333 24 -49v-94zM412 1061h-91.001l-313 164c-37.333 20 -62.333 37.667 -75 53s-19 33.666 -19 54.999c0 26.667 8.33301 48.334 25 65.001s38.334 25 65.001 25c20 0 40.5 -6.33301 61.5 -19s45.5 -33.667 73.5 -63z
" />
    <glyph glyph-name="iacute" unicode="&#xed;" horiz-adv-x="432" 
d="M332 102c0 -6.66699 -0.333008 -15.999 -1 -27.999c0 -53.333 -23 -80 -69 -80c-70.667 0 -116 3 -136 9s-30 20.667 -30 44c0 7.33301 0.666992 21 2 41s2 35.667 2 47l-4 522c0 41.333 -1.66699 84.166 -5 128.499s-5 68.5 -5 72.5c0 27.333 8.16699 45.833 24.5 55.5
s50.5 14.5 102.5 14.5c55.333 0 91 -3 107 -9s24 -22.333 24 -49v-94zM22 1061l272.999 280c28 29.333 52.5 50.333 73.5 63s41.5 19 61.5 19c26.667 0 48.334 -8.33301 65.001 -25s25 -38.334 25 -65.001c0 -21.333 -6.33301 -39.666 -19 -54.999s-37.667 -33 -75 -53
l-313 -164h-91z" />
    <glyph glyph-name="icircumflex" unicode="&#xee;" horiz-adv-x="432" 
d="M332 102c0 -6.66699 -0.333008 -15.999 -1 -27.999c0 -53.333 -23 -80 -69 -80c-70.667 0 -116 3 -136 9s-30 20.667 -30 44c0 7.33301 0.666992 21 2 41s2 35.667 2 47l-4 522c0 41.333 -1.66699 84.166 -5 128.499s-5 68.5 -5 72.5c0 27.333 8.16699 45.833 24.5 55.5
s50.5 14.5 102.5 14.5c55.333 0 91 -3 107 -9s24 -22.333 24 -49v-94zM-82 1061l225 348h148l225 -348h-84l-215 178l-215 -178h-84z" />
    <glyph glyph-name="idieresis" unicode="&#xef;" horiz-adv-x="432" 
d="M332 102c0 -6.66699 -0.333008 -15.999 -1 -27.999c0 -53.333 -23 -80 -69 -80c-70.667 0 -116 3 -136 9s-30 20.667 -30 44c0 7.33301 0.666992 21 2 41s2 35.667 2 47l-4 522c0 41.333 -1.66699 84.166 -5 128.499s-5 68.5 -5 72.5c0 27.333 8.16699 45.833 24.5 55.5
s50.5 14.5 102.5 14.5c55.333 0 91 -3 107 -9s24 -22.333 24 -49v-94zM278 1225c0 32 12 59.667 36 83s52.333 35 85 35s60.667 -11.5 84 -34.5s35 -50.833 35 -83.5c0 -36 -11.167 -65.5 -33.5 -88.5s-50.833 -34.5 -85.5 -34.5c-33.333 0 -61.833 12 -85.5 36
s-35.5 53 -35.5 87zM-86 1225c0 32 12 59.667 36 83s52.333 35 85 35s60.667 -11.5 84 -34.5s35 -50.833 35 -83.5c0 -36 -11.167 -65.5 -33.5 -88.5s-50.833 -34.5 -85.5 -34.5c-34 0 -62.667 12 -86 36s-35 53 -35 87z" />
    <glyph glyph-name="eth" unicode="&#xf0;" horiz-adv-x="1081" 
d="M702 934c-7.33301 35.333 -17.332 70.6631 -29.999 105.996s-28.334 71.666 -47.001 108.999l-248 -49c-2 -0.666992 -4.33301 -1.16699 -7 -1.5s-6 -0.5 -10 -0.5c-11.333 0 -20.5 2.83301 -27.5 8.5s-11.5 13.834 -13.5 24.501l-10 55
c-0.666992 2.66699 -1.16699 4.83398 -1.5 6.50098s-0.5 4.83398 -0.5 9.50098c0 12 3.16699 21.667 9.5 29s14.833 12 25.5 14l201 37c-32.667 48.667 -68.5 94.834 -107.5 138.501s-58.5 67.834 -58.5 72.501c0 10 12.5 20 37.5 30s53.5 15 85.5 15
c18.667 0 46.667 -16.333 84 -49s91 -88 161 -166l232 45c2 0.666992 4.16699 1.16699 6.5 1.5s5.5 0.5 9.5 0.5c12 0 21.667 -2.83301 29 -8.5s12 -13.5 14 -23.5l10 -53c1.33301 -3.33301 2.16602 -6.16602 2.49902 -8.49902s0.5 -5.83301 0.5 -10.5
c0 -12 -2.83301 -21.333 -8.5 -28s-13.834 -11 -24.501 -13l-185 -35c64.667 -104 114.334 -215.333 149.001 -334s52 -235.334 52 -350.001c0 -172.667 -39.5 -304.334 -118.5 -395.001s-194.5 -136 -346.5 -136c-154 0 -277.5 46.833 -370.5 140.5
s-139.5 219.167 -139.5 376.5c0 148.667 34.333 268.334 103 359.001s159.334 136 272.001 136c32.667 0 71.5 -4.33301 116.5 -13s96.167 -22 153.5 -40zM571.001 847.997c-72.667 0 -130.001 -37.167 -172.001 -111.5s-63 -176.5 -63 -306.5c0 -108 16 -190.667 48 -248
s78 -86 138 -86c72.667 0 132.834 35.833 180.501 107.5s71.5 163.5 71.5 275.5s-18.5 201.5 -55.5 268.5s-86.167 100.5 -147.5 100.5z" />
    <glyph glyph-name="ntilde" unicode="&#xf1;" horiz-adv-x="1053" 
d="M123 0c-15.333 0 -26.333 4.3252 -33 12.9922s-10 23.334 -10 44.001c0 8 5.5 89.667 16.5 245s16.5 304 16.5 446c0 28.667 -2.16699 60.834 -6.5 96.501s-6.5 57.167 -6.5 64.5c0 22 6.16699 36.833 18.5 44.5s38.5 11.5 78.5 11.5c26 0 47.5 -0.166992 64.5 -0.5
s34.167 -1.16602 51.5 -2.49902l4 -83l81 6c20.667 2 39.834 3.5 57.501 4.5s34.5 1.5 50.5 1.5c57.333 0 109 -6.83301 155 -20.5s93.333 -36.167 142 -67.5c70 -44.667 116.5 -89 139.5 -133s34.5 -107 34.5 -189c0 -122 -7 -251 -21 -387c-4 -34.667 -6 -55.667 -6 -63
c0 -28 -5.16699 -47.333 -15.5 -58s-29.5 -16 -57.5 -16c-52.667 0 -93.167 5 -121.5 15s-42.5 24 -42.5 42c0 8.66699 1.66699 30.334 5 65.001c14 130.667 21 253 21 367c0 112.667 -11.333 192.834 -34 240.501s-60.334 71.5 -113.001 71.5c-40 0 -80 -9 -120 -27
s-71.667 -41 -95 -69c-20 -24.667 -34.167 -60.667 -42.5 -108s-12.5 -116.666 -12.5 -207.999s1.66699 -179.666 5 -264.999c0.666992 -13.333 1 -21.333 1 -24c0 -21.333 -4.66699 -36.166 -14 -44.499s-34 -12.5 -74 -12.5h-117zM840 1381.99
c-11.333 -82 -34.665 -143.333 -69.998 -184s-83 -61 -143 -61c-8.66699 0 -17.167 0.5 -25.5 1.5s-16.5 2.5 -24.5 4.5l-103 28c-9.33301 2.66699 -18.166 4.5 -26.499 5.5s-18.833 1.5 -31.5 1.5c-22 0 -40 -6.83301 -54 -20.5s-26 -35.5 -36 -65.5h-66
c11.333 82 34.5 143.333 69.5 184s82.167 61 141.5 61c11.333 0 22.166 -0.666992 32.499 -2s20.833 -3.33301 31.5 -6l109 -27c7.33301 -2 14.166 -3.5 20.499 -4.5s12.166 -1.5 17.499 -1.5c22 0 40.333 6.83301 55 20.5s27 35.5 37 65.5h66z" />
    <glyph glyph-name="ograve" unicode="&#xf2;" horiz-adv-x="1085" 
d="M571 848c-71.333 0 -128.334 -37.3311 -171.001 -111.998s-64 -175.334 -64 -302.001c0 -108.667 16 -192.167 48 -250.5s78 -87.5 138 -87.5c72.667 0 132.834 36 180.501 108s71.5 163.667 71.5 275s-18.5 200.666 -55.5 267.999s-86.167 101 -147.5 101z
M56.999 492.002c0 148.667 34.333 268.332 103 358.999s159.334 136 272.001 136c59.333 0 128.166 -10.333 206.499 -31s144.833 -46.334 199.5 -77.001c70 -39.333 119.5 -88.166 148.5 -146.499s43.5 -140.166 43.5 -245.499c0 -165.333 -39.667 -292 -119 -380
s-194 -132 -344 -132c-154 0 -277.5 46.833 -370.5 140.5s-139.5 219.167 -139.5 376.5zM737.999 1061h-91.001l-313 164c-37.333 20 -62.333 37.667 -75 53s-19 33.666 -19 54.999c0 26.667 8.33301 48.334 25 65.001s38.334 25 65.001 25c20 0 40.5 -6.33301 61.5 -19
s45.5 -33.667 73.5 -63z" />
    <glyph glyph-name="oacute" unicode="&#xf3;" horiz-adv-x="1085" 
d="M571 848c-71.333 0 -128.334 -37.3311 -171.001 -111.998s-64 -175.334 -64 -302.001c0 -108.667 16 -192.167 48 -250.5s78 -87.5 138 -87.5c72.667 0 132.834 36 180.501 108s71.5 163.667 71.5 275s-18.5 200.666 -55.5 267.999s-86.167 101 -147.5 101z
M56.999 492.002c0 148.667 34.333 268.332 103 358.999s159.334 136 272.001 136c59.333 0 128.166 -10.333 206.499 -31s144.833 -46.334 199.5 -77.001c70 -39.333 119.5 -88.166 148.5 -146.499s43.5 -140.166 43.5 -245.499c0 -165.333 -39.667 -292 -119 -380
s-194 -132 -344 -132c-154 0 -277.5 46.833 -370.5 140.5s-139.5 219.167 -139.5 376.5zM347.999 1061l272.999 280c28 29.333 52.5 50.333 73.5 63s41.5 19 61.5 19c26.667 0 48.334 -8.33301 65.001 -25s25 -38.334 25 -65.001c0 -21.333 -6.33301 -39.666 -19 -54.999
s-37.667 -33 -75 -53l-313 -164h-91z" />
    <glyph glyph-name="ocircumflex" unicode="&#xf4;" horiz-adv-x="1085" 
d="M571 848c-71.333 0 -128.334 -37.3311 -171.001 -111.998s-64 -175.334 -64 -302.001c0 -108.667 16 -192.167 48 -250.5s78 -87.5 138 -87.5c72.667 0 132.834 36 180.501 108s71.5 163.667 71.5 275s-18.5 200.666 -55.5 267.999s-86.167 101 -147.5 101z
M56.999 492.002c0 148.667 34.333 268.332 103 358.999s159.334 136 272.001 136c59.333 0 128.166 -10.333 206.499 -31s144.833 -46.334 199.5 -77.001c70 -39.333 119.5 -88.166 148.5 -146.499s43.5 -140.166 43.5 -245.499c0 -165.333 -39.667 -292 -119 -380
s-194 -132 -344 -132c-154 0 -277.5 46.833 -370.5 140.5s-139.5 219.167 -139.5 376.5zM243.999 1061l225 348h148l225 -348h-84l-215 178l-215 -178h-84z" />
    <glyph glyph-name="otilde" unicode="&#xf5;" horiz-adv-x="1085" 
d="M571 848c-71.333 0 -128.334 -37.3311 -171.001 -111.998s-64 -175.334 -64 -302.001c0 -108.667 16 -192.167 48 -250.5s78 -87.5 138 -87.5c72.667 0 132.834 36 180.501 108s71.5 163.667 71.5 275s-18.5 200.666 -55.5 267.999s-86.167 101 -147.5 101z
M56.999 492.002c0 148.667 34.333 268.332 103 358.999s159.334 136 272.001 136c59.333 0 128.166 -10.333 206.499 -31s144.833 -46.334 199.5 -77.001c70 -39.333 119.5 -88.166 148.5 -146.499s43.5 -140.166 43.5 -245.499c0 -165.333 -39.667 -292 -119 -380
s-194 -132 -344 -132c-154 0 -277.5 46.833 -370.5 140.5s-139.5 219.167 -139.5 376.5zM831.999 1382c-11.333 -82 -34.665 -143.333 -69.998 -184s-83 -61 -143 -61c-8.66699 0 -17.167 0.5 -25.5 1.5s-16.5 2.5 -24.5 4.5l-103 28
c-9.33301 2.66699 -18.166 4.5 -26.499 5.5s-18.833 1.5 -31.5 1.5c-22 0 -40 -6.83301 -54 -20.5s-26 -35.5 -36 -65.5h-66c11.333 82 34.5 143.333 69.5 184s82.167 61 141.5 61c11.333 0 22.166 -0.666992 32.499 -2s20.833 -3.33301 31.5 -6l109 -27
c7.33301 -2 14.166 -3.5 20.499 -4.5s12.166 -1.5 17.499 -1.5c22 0 40.333 6.83301 55 20.5s27 35.5 37 65.5h66z" />
    <glyph glyph-name="odieresis" unicode="&#xf6;" horiz-adv-x="1085" 
d="M571 848c-71.333 0 -128.334 -37.3311 -171.001 -111.998s-64 -175.334 -64 -302.001c0 -108.667 16 -192.167 48 -250.5s78 -87.5 138 -87.5c72.667 0 132.834 36 180.501 108s71.5 163.667 71.5 275s-18.5 200.666 -55.5 267.999s-86.167 101 -147.5 101z
M56.999 492.002c0 148.667 34.333 268.332 103 358.999s159.334 136 272.001 136c59.333 0 128.166 -10.333 206.499 -31s144.833 -46.334 199.5 -77.001c70 -39.333 119.5 -88.166 148.5 -146.499s43.5 -140.166 43.5 -245.499c0 -165.333 -39.667 -292 -119 -380
s-194 -132 -344 -132c-154 0 -277.5 46.833 -370.5 140.5s-139.5 219.167 -139.5 376.5zM603.999 1225c0 32 12 59.667 36 83s52.333 35 85 35s60.667 -11.5 84 -34.5s35 -50.833 35 -83.5c0 -36 -11.167 -65.5 -33.5 -88.5s-50.833 -34.5 -85.5 -34.5
c-33.333 0 -61.833 12 -85.5 36s-35.5 53 -35.5 87zM239.999 1225c0 32 12 59.667 36 83s52.333 35 85 35s60.667 -11.5 84 -34.5s35 -50.833 35 -83.5c0 -36 -11.167 -65.5 -33.5 -88.5s-50.833 -34.5 -85.5 -34.5c-34 0 -62.667 12 -86 36s-35 53 -35 87z" />
    <glyph glyph-name="divide" unicode="&#xf7;" horiz-adv-x="1706" 
d="M854 367c38 0 70.333 -13.501 97 -40.501s40 -59.5 40 -97.5c0 -37.333 -13.167 -69.166 -39.5 -95.499s-58.833 -39.5 -97.5 -39.5s-71.167 13 -97.5 39s-39.5 58 -39.5 96s13.5 70.5 40.5 97.5s59.167 40.5 96.5 40.5zM254 693.999h1198v-166h-1198v166zM854 1128
c38 0 70.333 -13.668 97 -41.001s40 -60 40 -98c0 -37.333 -13.167 -69.166 -39.5 -95.499s-58.833 -39.5 -97.5 -39.5s-71.167 13 -97.5 39s-39.5 58 -39.5 96s13.5 70.667 40.5 98s59.167 41 96.5 41z" />
    <glyph glyph-name="oslash" unicode="&#xf8;" horiz-adv-x="1085" 
d="M768 575l-383.001 -402.999c22 -28.667 42.667 -48.5 62 -59.5s42.333 -16.5 69 -16.5c74.667 0 136.334 35.667 185.001 107s73 162.666 73 273.999c0 14 -0.5 29.5 -1.5 46.5s-2.5 34.167 -4.5 51.5zM339.999 344.001l377 406.001c-17.333 33.333 -37.833 58 -61.5 74
s-51.834 24 -84.501 24c-72 0 -129.167 -36.833 -171.5 -110.5s-63.5 -174.167 -63.5 -301.5c0 -6.66699 0.666992 -23.334 2 -50.001c0.666992 -16.667 1.33398 -30.667 2.00098 -42zM157.999 158.002c-36 49.333 -61.8311 99.5 -77.498 150.5s-23.5 112.167 -23.5 183.5
c0 151.333 34.5 271.666 103.5 360.999s162.167 134 279.5 134c61.333 0 124.666 -8.83301 189.999 -26.5s132.333 -44.167 201 -79.5l95 110c8 10.667 16.167 18.5 24.5 23.5s17.166 7.5 26.499 7.5c21.333 0 42.333 -9.66699 63 -29s31 -37.666 31 -54.999
c0 -10 -13 -30.667 -39 -62c-3.33301 -4 -6 -7.33301 -8 -10l-68 -84c26.667 -31.333 45.667 -69 57 -113s17 -103 17 -177c0 -168.667 -39.5 -297 -118.5 -385s-194.5 -132 -346.5 -132c-58.667 0 -112.667 7.16699 -162 21.5s-92.333 35.166 -129 62.499l-127 -127
c-4 -4 -9.16699 -7.33301 -15.5 -10s-11.833 -4 -16.5 -4c-18 0 -37.833 8.5 -59.5 25.5s-32.5 33.167 -32.5 48.5c0 17.333 12 38 36 62c6 6.66699 10.333 11.334 13 14.001z" />
    <glyph glyph-name="ugrave" unicode="&#xf9;" horiz-adv-x="1075" 
d="M735 59c-44.667 -34.667 -83.6689 -59.333 -117.002 -74s-67.333 -22 -102 -22c-33.333 0 -69.333 4.33301 -108 13s-77 20.667 -115 36c-40.667 16.667 -71.167 35.5 -91.5 56.5s-38.5 51.5 -54.5 91.5c-16 41.333 -28.833 121.166 -38.5 239.499
s-14.5 259.5 -14.5 423.5c0 55.333 4.66699 92.5 14 111.5s26 28.5 50 28.5c16 0 32.833 -0.833008 50.5 -2.5s27.5 -2.5 29.5 -2.5c14 0 30.833 1.5 50.5 4.5s32.834 4.5 39.501 4.5c12.667 -0.666992 20.834 -2.66699 24.501 -6s5.5 -11.666 5.5 -24.999
c0 -6 -3.66699 -53.5 -11 -142.5s-11 -174.5 -11 -256.5c0 -146.667 13.667 -255.834 41 -327.501s69 -107.5 125 -107.5c71.333 0 127.666 38.167 168.999 114.5s62 182.5 62 318.5c0 108 -6.66699 216.333 -20 325c-2.66699 21.333 -4 34.333 -4 39
c0 23.333 6.16699 39.833 18.5 49.5s34.833 14.5 67.5 14.5c26.667 0 55.334 0.333008 86.001 1c8.66699 0.666992 14 1 16 1c32 0 54 -3.5 66 -10.5s18 -19.167 18 -36.5c0 -2.66699 -0.666992 -13.667 -2 -33c-10.667 -189.333 -16 -404.333 -16 -645
c0 -48 2.66699 -95.167 8 -141.5l8 -69.5c0 -16.667 -5.16699 -30.5 -15.5 -41.5s-23.5 -16.5 -39.5 -16.5c-42 0 -81.333 -1.66699 -118 -5c-6 -0.666992 -9.66699 -1 -11 -1c-16.667 0 -29.5 2.83301 -38.5 8.5s-13.5 13.834 -13.5 24.501v12v6zM743.998 1061h-91.001
l-313 164c-37.333 20 -62.333 37.667 -75 53s-19 33.666 -19 54.999c0 26.667 8.33301 48.334 25 65.001s38.334 25 65.001 25c20 0 40.5 -6.33301 61.5 -19s45.5 -33.667 73.5 -63z" />
    <glyph glyph-name="uacute" unicode="&#xfa;" horiz-adv-x="1075" 
d="M735 59c-44.667 -34.667 -83.6689 -59.333 -117.002 -74s-67.333 -22 -102 -22c-33.333 0 -69.333 4.33301 -108 13s-77 20.667 -115 36c-40.667 16.667 -71.167 35.5 -91.5 56.5s-38.5 51.5 -54.5 91.5c-16 41.333 -28.833 121.166 -38.5 239.499
s-14.5 259.5 -14.5 423.5c0 55.333 4.66699 92.5 14 111.5s26 28.5 50 28.5c16 0 32.833 -0.833008 50.5 -2.5s27.5 -2.5 29.5 -2.5c14 0 30.833 1.5 50.5 4.5s32.834 4.5 39.501 4.5c12.667 -0.666992 20.834 -2.66699 24.501 -6s5.5 -11.666 5.5 -24.999
c0 -6 -3.66699 -53.5 -11 -142.5s-11 -174.5 -11 -256.5c0 -146.667 13.667 -255.834 41 -327.501s69 -107.5 125 -107.5c71.333 0 127.666 38.167 168.999 114.5s62 182.5 62 318.5c0 108 -6.66699 216.333 -20 325c-2.66699 21.333 -4 34.333 -4 39
c0 23.333 6.16699 39.833 18.5 49.5s34.833 14.5 67.5 14.5c26.667 0 55.334 0.333008 86.001 1c8.66699 0.666992 14 1 16 1c32 0 54 -3.5 66 -10.5s18 -19.167 18 -36.5c0 -2.66699 -0.666992 -13.667 -2 -33c-10.667 -189.333 -16 -404.333 -16 -645
c0 -48 2.66699 -95.167 8 -141.5l8 -69.5c0 -16.667 -5.16699 -30.5 -15.5 -41.5s-23.5 -16.5 -39.5 -16.5c-42 0 -81.333 -1.66699 -118 -5c-6 -0.666992 -9.66699 -1 -11 -1c-16.667 0 -29.5 2.83301 -38.5 8.5s-13.5 13.834 -13.5 24.501v12v6zM353.998 1061l272.999 280
c28 29.333 52.5 50.333 73.5 63s41.5 19 61.5 19c26.667 0 48.334 -8.33301 65.001 -25s25 -38.334 25 -65.001c0 -21.333 -6.33301 -39.666 -19 -54.999s-37.667 -33 -75 -53l-313 -164h-91z" />
    <glyph glyph-name="ucircumflex" unicode="&#xfb;" horiz-adv-x="1075" 
d="M735 59c-44.667 -34.667 -83.6689 -59.333 -117.002 -74s-67.333 -22 -102 -22c-33.333 0 -69.333 4.33301 -108 13s-77 20.667 -115 36c-40.667 16.667 -71.167 35.5 -91.5 56.5s-38.5 51.5 -54.5 91.5c-16 41.333 -28.833 121.166 -38.5 239.499
s-14.5 259.5 -14.5 423.5c0 55.333 4.66699 92.5 14 111.5s26 28.5 50 28.5c16 0 32.833 -0.833008 50.5 -2.5s27.5 -2.5 29.5 -2.5c14 0 30.833 1.5 50.5 4.5s32.834 4.5 39.501 4.5c12.667 -0.666992 20.834 -2.66699 24.501 -6s5.5 -11.666 5.5 -24.999
c0 -6 -3.66699 -53.5 -11 -142.5s-11 -174.5 -11 -256.5c0 -146.667 13.667 -255.834 41 -327.501s69 -107.5 125 -107.5c71.333 0 127.666 38.167 168.999 114.5s62 182.5 62 318.5c0 108 -6.66699 216.333 -20 325c-2.66699 21.333 -4 34.333 -4 39
c0 23.333 6.16699 39.833 18.5 49.5s34.833 14.5 67.5 14.5c26.667 0 55.334 0.333008 86.001 1c8.66699 0.666992 14 1 16 1c32 0 54 -3.5 66 -10.5s18 -19.167 18 -36.5c0 -2.66699 -0.666992 -13.667 -2 -33c-10.667 -189.333 -16 -404.333 -16 -645
c0 -48 2.66699 -95.167 8 -141.5l8 -69.5c0 -16.667 -5.16699 -30.5 -15.5 -41.5s-23.5 -16.5 -39.5 -16.5c-42 0 -81.333 -1.66699 -118 -5c-6 -0.666992 -9.66699 -1 -11 -1c-16.667 0 -29.5 2.83301 -38.5 8.5s-13.5 13.834 -13.5 24.501v12v6zM249.998 1061l225 348h148
l225 -348h-84l-215 178l-215 -178h-84z" />
    <glyph glyph-name="udieresis" unicode="&#xfc;" horiz-adv-x="1075" 
d="M735 59c-44.667 -34.667 -83.6689 -59.333 -117.002 -74s-67.333 -22 -102 -22c-33.333 0 -69.333 4.33301 -108 13s-77 20.667 -115 36c-40.667 16.667 -71.167 35.5 -91.5 56.5s-38.5 51.5 -54.5 91.5c-16 41.333 -28.833 121.166 -38.5 239.499
s-14.5 259.5 -14.5 423.5c0 55.333 4.66699 92.5 14 111.5s26 28.5 50 28.5c16 0 32.833 -0.833008 50.5 -2.5s27.5 -2.5 29.5 -2.5c14 0 30.833 1.5 50.5 4.5s32.834 4.5 39.501 4.5c12.667 -0.666992 20.834 -2.66699 24.501 -6s5.5 -11.666 5.5 -24.999
c0 -6 -3.66699 -53.5 -11 -142.5s-11 -174.5 -11 -256.5c0 -146.667 13.667 -255.834 41 -327.501s69 -107.5 125 -107.5c71.333 0 127.666 38.167 168.999 114.5s62 182.5 62 318.5c0 108 -6.66699 216.333 -20 325c-2.66699 21.333 -4 34.333 -4 39
c0 23.333 6.16699 39.833 18.5 49.5s34.833 14.5 67.5 14.5c26.667 0 55.334 0.333008 86.001 1c8.66699 0.666992 14 1 16 1c32 0 54 -3.5 66 -10.5s18 -19.167 18 -36.5c0 -2.66699 -0.666992 -13.667 -2 -33c-10.667 -189.333 -16 -404.333 -16 -645
c0 -48 2.66699 -95.167 8 -141.5l8 -69.5c0 -16.667 -5.16699 -30.5 -15.5 -41.5s-23.5 -16.5 -39.5 -16.5c-42 0 -81.333 -1.66699 -118 -5c-6 -0.666992 -9.66699 -1 -11 -1c-16.667 0 -29.5 2.83301 -38.5 8.5s-13.5 13.834 -13.5 24.501v12v6zM609.998 1225
c0 32 12 59.667 36 83s52.333 35 85 35s60.667 -11.5 84 -34.5s35 -50.833 35 -83.5c0 -36 -11.167 -65.5 -33.5 -88.5s-50.833 -34.5 -85.5 -34.5c-33.333 0 -61.833 12 -85.5 36s-35.5 53 -35.5 87zM245.998 1225c0 32 12 59.667 36 83s52.333 35 85 35
s60.667 -11.5 84 -34.5s35 -50.833 35 -83.5c0 -36 -11.167 -65.5 -33.5 -88.5s-50.833 -34.5 -85.5 -34.5c-34 0 -62.667 12 -86 36s-35 53 -35 87z" />
    <glyph glyph-name="yacute" unicode="&#xfd;" horiz-adv-x="1077" 
d="M737 102c-26 -48 -55.9961 -81.832 -89.9961 -101.499s-80.333 -29.5 -139 -29.5c-166 0 -278.167 41.333 -336.5 124s-87.5 249.667 -87.5 501c0 95.333 2.5 173 7.5 233s11.833 95.333 20.5 106c10 13.333 26.667 23.333 50 30s53.333 10 90 10
c39.333 0 66.5 -5.5 81.5 -16.5s22.5 -30.833 22.5 -59.5c0 -16.667 -4.66699 -76.334 -14 -179.001s-14 -196 -14 -280c0 -107.333 12.167 -188 36.5 -242s61.166 -81 110.499 -81c37.333 0 73.5 13.833 108.5 41.5s67.833 68.5 98.5 122.5
c26.667 46.667 45.667 98.167 57 154.5s17 144.5 17 264.5c0 49.333 -3.33301 102.333 -10 159c-2 16 -3 26 -3 30c0 24 6.16699 40.5 18.5 49.5s37.833 13.5 76.5 13.5c72 0 116.167 -5.5 132.5 -16.5s24.5 -43.5 24.5 -97.5c0 -17.333 -2 -69 -6 -155s-6 -164 -6 -234v-89
c0 -200.667 -4.16699 -352.167 -12.5 -454.5s-21.833 -177.166 -40.5 -224.499c-30.667 -76.667 -76.834 -135.5 -138.501 -176.5s-135.167 -61.5 -220.5 -61.5c-102.667 0 -190.667 36.333 -264 109s-110 155.667 -110 249c0 26 6.66699 43.5 20 52.5
s49.666 13.5 108.999 13.5c62 0 97.667 -17.667 107 -53c2.66699 -11.333 5 -20 7 -26c22 -72.667 43.167 -121.334 63.5 -146.001s46.5 -37 78.5 -37c53.333 0 93.166 27 119.499 81s39.5 136 39.5 246c0 26.667 -1 72 -3 136c0 14.667 -0.333008 26 -1 34zM344.004 1061
l272.999 280c28 29.333 52.5 50.333 73.5 63s41.5 19 61.5 19c26.667 0 48.334 -8.33301 65.001 -25s25 -38.334 25 -65.001c0 -21.333 -6.33301 -39.666 -19 -54.999s-37.667 -33 -75 -53l-313 -164h-91z" />
    <glyph glyph-name="thorn" unicode="&#xfe;" horiz-adv-x="1063" 
d="M354 670l-8 -441v-8c0 -39.333 10.167 -65.5 30.5 -78.5s63.5 -19.5 129.5 -19.5c84.667 0 144.667 26.833 180 80.5s53 146.167 53 277.5c0 102 -17.167 177.667 -51.5 227s-86.833 74 -157.5 74c-24.667 0 -49.667 -3.33301 -75 -10s-48.333 -16 -69 -28
c-12 -7.33301 -20.333 -14.333 -25 -21s-7 -15.667 -7 -27v-26zM336 -229c0 -77.333 -1.50098 -137.332 -4.50098 -179.999s-7.83301 -69 -14.5 -79c-8 -11.333 -30.667 -21.5 -68 -30.5s-77.333 -13.5 -120 -13.5c-18 0 -30.667 4.16699 -38 12.5s-11 22.5 -11 42.5
c0 4 0.333008 18.667 1 44c11.333 298 17 636.333 17 1015v106v746c0 46.667 4.66699 74.334 14 83.001s34 13 74 13c74 0 121.167 -3.16699 141.5 -9.5s30.5 -21.5 30.5 -45.5c0 -8.66699 -0.666992 -22.834 -2 -42.501s-2 -34.167 -2 -43.5l-6 -474
c34 9.33301 68 16.166 102 20.499s69 6.5 105 6.5c135.333 0 244 -42.167 326 -126.5s123 -196.5 123 -336.5c0 -146 -42.167 -267.167 -126.5 -363.5s-185.166 -144.5 -302.499 -144.5c-59.333 0 -108.833 3.83301 -148.5 11.5s-70.5 19.5 -92.5 35.5z" />
    <glyph glyph-name="ydieresis" unicode="&#xff;" horiz-adv-x="1077" 
d="M737 102c-26 -48 -55.9961 -81.832 -89.9961 -101.499s-80.333 -29.5 -139 -29.5c-166 0 -278.167 41.333 -336.5 124s-87.5 249.667 -87.5 501c0 95.333 2.5 173 7.5 233s11.833 95.333 20.5 106c10 13.333 26.667 23.333 50 30s53.333 10 90 10
c39.333 0 66.5 -5.5 81.5 -16.5s22.5 -30.833 22.5 -59.5c0 -16.667 -4.66699 -76.334 -14 -179.001s-14 -196 -14 -280c0 -107.333 12.167 -188 36.5 -242s61.166 -81 110.499 -81c37.333 0 73.5 13.833 108.5 41.5s67.833 68.5 98.5 122.5
c26.667 46.667 45.667 98.167 57 154.5s17 144.5 17 264.5c0 49.333 -3.33301 102.333 -10 159c-2 16 -3 26 -3 30c0 24 6.16699 40.5 18.5 49.5s37.833 13.5 76.5 13.5c72 0 116.167 -5.5 132.5 -16.5s24.5 -43.5 24.5 -97.5c0 -17.333 -2 -69 -6 -155s-6 -164 -6 -234v-89
c0 -200.667 -4.16699 -352.167 -12.5 -454.5s-21.833 -177.166 -40.5 -224.499c-30.667 -76.667 -76.834 -135.5 -138.501 -176.5s-135.167 -61.5 -220.5 -61.5c-102.667 0 -190.667 36.333 -264 109s-110 155.667 -110 249c0 26 6.66699 43.5 20 52.5
s49.666 13.5 108.999 13.5c62 0 97.667 -17.667 107 -53c2.66699 -11.333 5 -20 7 -26c22 -72.667 43.167 -121.334 63.5 -146.001s46.5 -37 78.5 -37c53.333 0 93.166 27 119.499 81s39.5 136 39.5 246c0 26.667 -1 72 -3 136c0 14.667 -0.333008 26 -1 34zM600.004 1225
c0 32 12 59.667 36 83s52.333 35 85 35s60.667 -11.5 84 -34.5s35 -50.833 35 -83.5c0 -36 -11.167 -65.5 -33.5 -88.5s-50.833 -34.5 -85.5 -34.5c-33.333 0 -61.833 12 -85.5 36s-35.5 53 -35.5 87zM236.004 1225c0 32 12 59.667 36 83s52.333 35 85 35
s60.667 -11.5 84 -34.5s35 -50.833 35 -83.5c0 -36 -11.167 -65.5 -33.5 -88.5s-50.833 -34.5 -85.5 -34.5c-34 0 -62.667 12 -86 36s-35 53 -35 87z" />
    <glyph glyph-name="Cacute" unicode="&#x106;" horiz-adv-x="1247" 
d="M1036 463l121.002 -0.000976562c18 0 31 -3.16699 39 -9.5s12 -16.166 12 -29.499c0 -35.333 -18.167 -85.166 -54.5 -149.499s-84.166 -130.5 -143.499 -198.5c-38.667 -43.333 -80.334 -74.666 -125.001 -93.999s-98.667 -29 -162 -29
c-216.667 0 -379 54.167 -487 162.5s-162 271.166 -162 488.499c0 237.333 43.833 436.333 131.5 597s193.834 241 318.501 241c109.333 0 212.666 -12.833 309.999 -38.5s164.666 -56.5 201.999 -92.5c36 -36 67.167 -99.333 93.5 -190s39.5 -185 39.5 -283
c0 -25.333 -5.5 -44.5 -16.5 -57.5s-27.167 -19.833 -48.5 -20.5l-96 -4h-17c-30.667 0 -50 31 -58 93c-2.66699 22 -5 40 -7 54c-17.333 112 -47.333 200.167 -90 264.5s-92.667 96.5 -150 96.5c-80.667 0 -152.334 -64.333 -215.001 -193s-94 -285.667 -94 -471
c0 -172.667 17.667 -297.334 53 -374.001s92 -115 170 -115c49.333 0 99.5 17.167 150.5 51.5s104.5 87.5 160.5 159.5c18 22.667 36 50.667 54 84c19.333 38 43 57 71 57zM518.002 1512l272.999 280c28 29.333 52.5 50.333 73.5 63s41.5 19 61.5 19
c26.667 0 48.334 -8.33301 65.001 -25s25 -38.334 25 -65.001c0 -21.333 -6.33301 -39.666 -19 -54.999s-37.667 -33 -75 -53l-313 -164h-91z" />
    <glyph glyph-name="cacute" unicode="&#x107;" horiz-adv-x="1014" 
d="M502 88c37.333 0 73.1689 13.167 107.502 39.5s71.5 69.833 111.5 130.5c2 4 5.33301 9 10 15c23.333 38 51.333 57 84 57c2.66699 0 11.667 -0.333008 27 -1s29 -1 41 -1c40 0 66 -3.33301 78 -10s18 -17.667 18 -33c0 -16.667 -9.33301 -41.167 -28 -73.5
s-44.334 -68.166 -77.001 -107.499c-47.333 -56.667 -93.166 -96.667 -137.499 -120s-96.5 -35 -156.5 -35c-176 0 -304.667 40.167 -386 120.5s-122 208.166 -122 383.499c0 168.667 29.667 299.5 89 392.5s143 139.5 251 139.5c90.667 0 181 -16 271 -48
s154.667 -69.333 194 -112c25.333 -28.667 44.166 -67 56.499 -115s18.5 -108 18.5 -180c0 -22.667 -3.83301 -37.5 -11.5 -44.5s-24.167 -10.5 -49.5 -10.5c-68.667 0 -112.834 4.5 -132.501 13.5s-31.5 32.5 -35.5 70.5c-8.66699 86 -30 156 -64 210s-72.667 81 -116 81
c-56.667 0 -105 -42 -145 -126s-60 -188.667 -60 -314c0 -102.667 14.333 -182 43 -238s69 -84 121 -84zM354.003 1061l272.999 280c28 29.333 52.5 50.333 73.5 63s41.5 19 61.5 19c26.667 0 48.334 -8.33301 65.001 -25s25 -38.334 25 -65.001
c0 -21.333 -6.33301 -39.666 -19 -54.999s-37.667 -33 -75 -53l-313 -164h-91z" />
    <glyph glyph-name="Ccaron" unicode="&#x10c;" horiz-adv-x="1247" 
d="M1036 463l121.002 -0.000976562c18 0 31 -3.16699 39 -9.5s12 -16.166 12 -29.499c0 -35.333 -18.167 -85.166 -54.5 -149.499s-84.166 -130.5 -143.499 -198.5c-38.667 -43.333 -80.334 -74.666 -125.001 -93.999s-98.667 -29 -162 -29
c-216.667 0 -379 54.167 -487 162.5s-162 271.166 -162 488.499c0 237.333 43.833 436.333 131.5 597s193.834 241 318.501 241c109.333 0 212.666 -12.833 309.999 -38.5s164.666 -56.5 201.999 -92.5c36 -36 67.167 -99.333 93.5 -190s39.5 -185 39.5 -283
c0 -25.333 -5.5 -44.5 -16.5 -57.5s-27.167 -19.833 -48.5 -20.5l-96 -4h-17c-30.667 0 -50 31 -58 93c-2.66699 22 -5 40 -7 54c-17.333 112 -47.333 200.167 -90 264.5s-92.667 96.5 -150 96.5c-80.667 0 -152.334 -64.333 -215.001 -193s-94 -285.667 -94 -471
c0 -172.667 17.667 -297.334 53 -374.001s92 -115 170 -115c49.333 0 99.5 17.167 150.5 51.5s104.5 87.5 160.5 159.5c18 22.667 36 50.667 54 84c19.333 38 43 57 71 57zM414.002 1860h84l215 -180l215 180h84l-225 -348h-148z" />
    <glyph glyph-name="ccaron" unicode="&#x10d;" horiz-adv-x="1014" 
d="M502 88c37.333 0 73.1689 13.167 107.502 39.5s71.5 69.833 111.5 130.5c2 4 5.33301 9 10 15c23.333 38 51.333 57 84 57c2.66699 0 11.667 -0.333008 27 -1s29 -1 41 -1c40 0 66 -3.33301 78 -10s18 -17.667 18 -33c0 -16.667 -9.33301 -41.167 -28 -73.5
s-44.334 -68.166 -77.001 -107.499c-47.333 -56.667 -93.166 -96.667 -137.499 -120s-96.5 -35 -156.5 -35c-176 0 -304.667 40.167 -386 120.5s-122 208.166 -122 383.499c0 168.667 29.667 299.5 89 392.5s143 139.5 251 139.5c90.667 0 181 -16 271 -48
s154.667 -69.333 194 -112c25.333 -28.667 44.166 -67 56.499 -115s18.5 -108 18.5 -180c0 -22.667 -3.83301 -37.5 -11.5 -44.5s-24.167 -10.5 -49.5 -10.5c-68.667 0 -112.834 4.5 -132.501 13.5s-31.5 32.5 -35.5 70.5c-8.66699 86 -30 156 -64 210s-72.667 81 -116 81
c-56.667 0 -105 -42 -145 -126s-60 -188.667 -60 -314c0 -102.667 14.333 -182 43 -238s69 -84 121 -84zM250.003 1409h84l215 -180l215 180h84l-225 -348h-148z" />
    <glyph glyph-name="dcroat" unicode="&#x111;" horiz-adv-x="1081" 
d="M735 516c0 48 -2.33301 92.001 -7 132.001s-9.66699 65.667 -15 77c-13.333 28.667 -36.333 54 -69 76s-63.667 33 -93 33c-69.333 0 -121.5 -40.5 -156.5 -121.5s-52.5 -201.833 -52.5 -362.5c0 -80.667 14.167 -142.834 42.5 -186.501s68.833 -65.5 121.5 -65.5
c64 0 118.167 30.5 162.5 91.5s66.5 138.5 66.5 232.5v94zM803 -19.999l-14.9971 -0.00195312c-16.667 0 -27.5 2.83301 -32.5 8.5s-7.5 17.834 -7.5 36.501v57c-51.333 -42.667 -98.833 -73.167 -142.5 -91.5s-89.834 -27.5 -138.501 -27.5
c-126.667 0 -224.834 42.333 -294.501 127s-104.5 204.334 -104.5 359.001c0 162 31.167 289.833 93.5 383.5s147.166 140.5 254.499 140.5c20 0 41.5 -1.66699 64.5 -5s46.5 -8 70.5 -14l119 -30c2 -0.666992 5 -1.33398 9 -2.00098c8.66699 -1.33301 15 -2 19 -2
c11.333 0 19 3.83301 23 11.5s6 22.167 6 43.5l2 137h-326c-15.333 0 -27.666 3.66699 -36.999 11s-14 17.333 -14 30v57c0 17.333 3.5 30.666 10.5 39.999s17.167 14 30.5 14h334c-0.666992 35.333 -3.16699 74.833 -7.5 118.5s-6.5 69.5 -6.5 77.5c0 26 6 45.167 18 57.5
s30.333 18.5 55 18.5c8.66699 0 19.834 -1.5 33.501 -4.5s23.167 -4.83301 28.5 -5.5l61 -6c7.33301 -1.33301 16.666 -2.33301 27.999 -3c33.333 -3.33301 50 -23.666 50 -60.999v-14l-2 -178h53c8.66699 0 18 -4.5 28 -13.5s15 -16.833 15 -23.5v-66
c0 -18.667 -3 -31.5 -9 -38.5s-16.667 -10.5 -32 -10.5h-61l4 -997c0 -6 0.666992 -15.667 2 -29s2 -23.666 2 -30.999c0 -28 -4.5 -47.167 -13.5 -57.5s-24.833 -15.5 -47.5 -15.5c-4 0 -10.333 0.333008 -19 1s-15.334 1 -20.001 1z" />
    <glyph glyph-name="Gbreve" unicode="&#x11e;" horiz-adv-x="1305" 
d="M755 694l435.002 24.9971h4c13.333 0 23.166 -6 29.499 -18s9.5 -30.667 9.5 -56c0 -65.333 -11.167 -138.166 -33.5 -218.499s-50.833 -149.5 -85.5 -207.5c-50.667 -83.333 -112.167 -147.833 -184.5 -193.5s-148.833 -68.5 -229.5 -68.5
c-30.667 0 -70.167 4.83301 -118.5 14.5s-102.166 23.834 -161.499 42.501c-41.333 13.333 -77 28 -107 44s-53.667 33.667 -71 53c-40 40.667 -74.333 120.667 -103 240s-43 250 -43 392c0 208 37 376.833 111 506.5s169.667 194.5 287 194.5
c96.667 0 193.5 -13.667 290.5 -41s172.167 -61.666 225.5 -102.999c51.333 -40 93.166 -98.833 125.499 -176.5s48.5 -155.834 48.5 -234.501c0 -23.333 -4.66699 -40.166 -14 -50.499s-27.333 -15.5 -54 -15.5h-18h-113c-40.667 0 -67.334 39.333 -80.001 118l-6 34
c-18.667 96 -45.834 167 -81.501 213s-81.5 69 -137.5 69c-84.667 0 -154.667 -58.333 -210 -175s-83 -269 -83 -457c0 -166.667 19.167 -296.5 57.5 -389.5s91.5 -139.5 159.5 -139.5c54.667 0 115.834 38.833 183.501 116.5s116.5 169.167 146.5 274.5l-152 -8h-14
c-33.333 0 -56 7.66699 -68 23s-18 45.333 -18 90c0 38.667 4.83301 65 14.5 79s29.167 21.667 58.5 23zM344.002 1829l75.998 -0.000976562c11.333 -43.333 34.833 -74.666 70.5 -93.999s89.834 -29 162.501 -29c72 0 125.833 9.66699 161.5 29
s58.834 50.666 69.501 93.999h76c-13.333 -93.333 -46.333 -164.666 -99 -213.999s-122 -74 -208 -74s-155.5 24.5 -208.5 73.5s-86.5 120.5 -100.5 214.5z" />
    <glyph glyph-name="gbreve" unicode="&#x11f;" horiz-adv-x="1028" 
d="M561 -92c-26.667 6 -49.667 10.832 -69 14.499s-29.666 5.5 -30.999 5.5c-4.66699 0 -12.834 -2.33301 -24.501 -7s-25.5 -11 -41.5 -19l-155 -84c-19.333 -10 -32 -19 -38 -27s-9 -17.667 -9 -29c0 -26.667 13.5 -45.5 40.5 -56.5s75.5 -16.5 145.5 -16.5
c131.333 0 235.833 10.333 313.5 31s116.5 48.334 116.5 83.001c0 32.667 -34.667 56.667 -104 72c-8.66699 2 -14.667 3.33301 -18 4zM713 587.999c0 66 -15.499 121.001 -46.499 165.001s-69.5 66 -115.5 66c-58.667 0 -109.167 -27.333 -151.5 -82
s-63.5 -121.334 -63.5 -200.001c0 -66 12.167 -115.667 36.5 -149s59.833 -50 106.5 -50c63.333 0 118.166 24.167 164.499 72.5s69.5 107.5 69.5 177.5zM178.001 -14l-57.002 52.9961l-17 14c-25.333 20 -38 38.667 -38 56c0 11.333 3.5 23.166 10.5 35.499
s16.167 22.833 27.5 31.5l127 94c-42.667 38.667 -74.167 81 -94.5 127s-30.5 98 -30.5 156c0 52 8.16699 106.333 24.5 163s39.166 110.334 68.499 161.001c22 38.667 48 67 78 85s66 27 108 27c24.667 0 51.834 -3 81.501 -9s61.834 -15.333 96.501 -28l113 140
c16 20 31.5 34.833 46.5 44.5s30.167 14.5 45.5 14.5c23.333 0 49.333 -10.167 78 -30.5s43 -39.5 43 -57.5c0 -3.33301 -3 -9.16602 -9 -17.499s-14 -17.5 -24 -27.5l-117 -115c64.667 -33.333 115.667 -83.166 153 -149.499s56 -139.166 56 -218.499
c0 -102 -33.833 -182.5 -101.5 -241.5s-160.167 -88.5 -277.5 -88.5c-9.33301 0 -23.5 1 -42.5 3s-33.5 3 -43.5 3c-12.667 0 -27 -7.16699 -43 -21.5s-24 -25.5 -24 -33.5c0 -20 42.333 -37.333 127 -52c70 -11.333 128 -22.666 174 -33.999
c136.667 -34 225 -68.667 265 -104s60 -89.666 60 -162.999c0 -52 -11.5 -94.833 -34.5 -128.5s-61.167 -63.167 -114.5 -88.5c-61.333 -28.667 -132.833 -51.167 -214.5 -67.5s-166.5 -24.5 -254.5 -24.5c-155.333 0 -278.833 24.333 -370.5 73s-137.5 113 -137.5 193
c0 33.333 9.33301 61.666 28 84.999s59.334 51 122.001 83zM204.999 1378l75.998 -0.000976562c11.333 -43.333 34.833 -74.666 70.5 -93.999s89.834 -29 162.501 -29c72 0 125.833 9.66699 161.5 29s58.834 50.666 69.501 93.999h76
c-13.333 -93.333 -46.333 -164.666 -99 -213.999s-122 -74 -208 -74s-155.5 24.5 -208.5 73.5s-86.5 120.5 -100.5 214.5z" />
    </font>
</defs>
</svg>
